<svg xmlns="http://www.w3.org/2000/svg" width="750" height="407.4074" viewBox="0 0 750 407.4074"><defs><style>.cls-1{fill:#f2f4f8;}.cls-2{fill:#f4f4f4;}.cls-10,.cls-12,.cls-2,.cls-3,.cls-4,.cls-5,.cls-6,.cls-7,.cls-8,.cls-9{stroke:#000;}.cls-14,.cls-2,.cls-3,.cls-7{stroke-miterlimit:10;}.cls-3{fill:#e3f6ff;}.cls-10,.cls-4{fill:#b3e6ff;}.cls-10,.cls-12,.cls-4,.cls-5,.cls-6,.cls-8,.cls-9{stroke-linejoin:round;}.cls-11,.cls-5,.cls-6{fill:#87eded;}.cls-10,.cls-12,.cls-5,.cls-8,.cls-9{stroke-linecap:round;}.cls-12,.cls-14,.cls-7,.cls-8,.cls-9{fill:none;}.cls-14,.cls-7{stroke-width:2px;}.cls-8{stroke-dasharray:2;}.cls-9{stroke-dasharray:2 2;}.cls-13{fill:#333;}.cls-14{stroke:#50565b;}.cls-15{fill:#50565b;}</style></defs><title>DBaaS-BYOK</title><g id="key"><path class="cls-1" d="M485,188.0942H725a0,0,0,0,1,0,0v20a4,4,0,0,1-4,4H489a4,4,0,0,1-4-4v-20A0,0,0,0,1,485,188.0942Z"/><path d="M491.1113,203.1831l-1.6992-6.9805h.89l.75,3.36.58,2.61h.0205l.6495-2.61.88-3.36h.961l.85,3.36.65,2.6006h.0293l.6-2.6006.791-3.36h.8594l-1.79,6.9805h-.93l-.91-3.4805-.64-2.56h-.0205l-.66,2.56-.93,3.4805Z"/><path d="M498.8721,203.1831v-5.16h.8v.95h.0508a1.5488,1.5488,0,0,1,.5-.66,1.5325,1.5325,0,0,1,.9892-.29h.31v.8h-.47a1.8082,1.8082,0,0,0-1.0147.2451.7232.7232,0,0,0-.3652.6153v3.5Z"/><path d="M506.252,203.1831a.7812.7812,0,0,1-.6446-.24,1.18,1.18,0,0,1-.2461-.6h-.0488a1.34,1.34,0,0,1-.56.72,1.7381,1.7381,0,0,1-.93.24,1.8083,1.8083,0,0,1-1.2754-.42,1.4786,1.4786,0,0,1-.4551-1.1407,1.2984,1.2984,0,0,1,.5352-1.1191,2.84,2.84,0,0,1,1.665-.3906h1.0205v-.51a1.1148,1.1148,0,0,0-.3008-.84,1.2768,1.2768,0,0,0-.92-.29,1.39,1.39,0,0,0-.7852.21,1.7338,1.7338,0,0,0-.5254.56l-.4794-.4493a1.8239,1.8239,0,0,1,.67-.7158,2.1132,2.1132,0,0,1,1.16-.2949,2.136,2.136,0,0,1,1.46.459,1.616,1.616,0,0,1,.52,1.2773v2.834h.59v.71Zm-2.3008-.56a2.0282,2.0282,0,0,0,.5508-.07,1.3439,1.3439,0,0,0,.43-.2,1.0018,1.0018,0,0,0,.28-.3.719.719,0,0,0,.1006-.37v-.85h-1.06a1.94,1.94,0,0,0-1.0049.1992.6473.6473,0,0,0-.3155.58v.21a.7007.7007,0,0,0,.2754.5908A1.2,1.2,0,0,0,503.9512,202.6235Z"/><path d="M507.8418,198.0229h.8v.8311h.04a1.4406,1.4406,0,0,1,.585-.7178,1.7551,1.7551,0,0,1,.9248-.2334,1.9556,1.9556,0,0,1,.87.19,1.8887,1.8887,0,0,1,.6651.54,2.4722,2.4722,0,0,1,.42.85,4.4135,4.4135,0,0,1,0,2.24,2.4722,2.4722,0,0,1-.42.85,1.8778,1.8778,0,0,1-.6651.54,1.9556,1.9556,0,0,1-.87.19,1.5627,1.5627,0,0,1-1.51-.95h-.04v2.83h-.8Zm2.13,4.57a1.377,1.377,0,0,0,1.0693-.4267,1.5966,1.5966,0,0,0,.3906-1.1211v-.8848a1.5924,1.5924,0,0,0-.3906-1.12,1.3739,1.3739,0,0,0-1.0693-.4277,1.7177,1.7177,0,0,0-.5147.0761,1.4387,1.4387,0,0,0-.4258.2051,1.0153,1.0153,0,0,0-.2851.3174.8.8,0,0,0-.1045.3965v1.93a.9367.9367,0,0,0,.1045.4472,1.0241,1.0241,0,0,0,.2851.3321,1.311,1.311,0,0,0,.4258.206A1.85,1.85,0,0,0,509.9717,202.5932Z"/><path d="M519.1816,198.0229h.7891l-2.31,6.36a2.8251,2.8251,0,0,1-.18.3847.7539.7539,0,0,1-.22.2451.8778.8778,0,0,1-.3252.13,2.4256,2.4256,0,0,1-.4756.04h-.41v-.71h.8105l.3907-1.0986-1.9307-5.3516h.8l1.24,3.5039.24.8379h.05l.28-.8379Z"/><path d="M522.8916,203.3032a2.3235,2.3235,0,0,1-.95-.19,2.0349,2.0349,0,0,1-.7344-.545,2.5641,2.5641,0,0,1-.4746-.85,3.7292,3.7292,0,0,1,0-2.2256,2.5606,2.5606,0,0,1,.4746-.8545,2.0578,2.0578,0,0,1,.7344-.5449,2.3235,2.3235,0,0,1,.95-.19,2.2905,2.2905,0,0,1,.9453.19,2.1225,2.1225,0,0,1,.7354.5449,2.52,2.52,0,0,1,.4795.8545,3.7292,3.7292,0,0,1,0,2.2256,2.5232,2.5232,0,0,1-.4795.85,2.0981,2.0981,0,0,1-.7354.545A2.2905,2.2905,0,0,1,522.8916,203.3032Zm0-.71a1.4534,1.4534,0,0,0,1.06-.4,1.6335,1.6335,0,0,0,.41-1.22v-.74a1.6353,1.6353,0,0,0-.41-1.22,1.6025,1.6025,0,0,0-2.1192,0,1.6353,1.6353,0,0,0-.41,1.22v.74a1.6335,1.6335,0,0,0,.41,1.22A1.455,1.455,0,0,0,522.8916,202.5932Z"/><path d="M529.7207,202.353h-.0391a2.6207,2.6207,0,0,1-.1953.3515,1.3009,1.3009,0,0,1-.2851.3067,1.3351,1.3351,0,0,1-.41.2129,1.7877,1.7877,0,0,1-.56.0791,1.6379,1.6379,0,0,1-1.27-.5147,2.0873,2.0873,0,0,1-.47-1.455v-3.3106h.8V201.2q0,1.393,1.18,1.3935a1.7988,1.7988,0,0,0,.4658-.06,1.2849,1.2849,0,0,0,.3994-.18.9029.9029,0,0,0,.28-.3057.89.89,0,0,0,.1045-.4463v-3.5781h.8008v5.16h-.8008Z"/><path d="M532.2217,203.1831v-5.16h.8v.95h.0508a1.5488,1.5488,0,0,1,.5-.66,1.5325,1.5325,0,0,1,.9892-.29h.31v.8h-.47a1.8085,1.8085,0,0,0-1.0147.2451.7232.7232,0,0,0-.3652.6153v3.5Z"/><path d="M541.5508,202.353h-.0391a1.5752,1.5752,0,0,1-1.51.95,1.9627,1.9627,0,0,1-.8711-.19,1.8746,1.8746,0,0,1-.6641-.54,2.4546,2.4546,0,0,1-.42-.85,4.3842,4.3842,0,0,1,0-2.24,2.4546,2.4546,0,0,1,.42-.85,1.8854,1.8854,0,0,1,.6641-.54,1.9627,1.9627,0,0,1,.8711-.19,1.75,1.75,0,0,1,.9238.2334,1.4415,1.4415,0,0,1,.5859.7178h.0391v-3.0713h.8008v7.4h-.8008Zm-1.33.24a1.8612,1.8612,0,0,0,.5156-.07,1.3047,1.3047,0,0,0,.4248-.206,1.0009,1.0009,0,0,0,.2852-.3321.9252.9252,0,0,0,.1045-.4472v-1.93a.7894.7894,0,0,0-.1045-.3965.9917.9917,0,0,0-.2852-.3174,1.4315,1.4315,0,0,0-.4248-.2051,1.7279,1.7279,0,0,0-.5156-.0761,1.3737,1.3737,0,0,0-1.0693.4277,1.5965,1.5965,0,0,0-.39,1.12v.8848a1.6007,1.6007,0,0,0,.39,1.1211A1.3768,1.3768,0,0,0,540.2207,202.5932Z"/><path d="M547.8008,203.1831a.7838.7838,0,0,1-.6446-.24,1.1882,1.1882,0,0,1-.2451-.6h-.05a1.3355,1.3355,0,0,1-.5605.72,1.7379,1.7379,0,0,1-.93.24,1.81,1.81,0,0,1-1.2754-.42,1.4789,1.4789,0,0,1-.4551-1.1407,1.3008,1.3008,0,0,1,.5352-1.1191,2.8438,2.8438,0,0,1,1.666-.3906h1.0195v-.51a1.111,1.111,0,0,0-.3008-.84,1.2768,1.2768,0,0,0-.92-.29,1.3916,1.3916,0,0,0-.7851.21,1.7289,1.7289,0,0,0-.5244.56l-.48-.4493a1.8239,1.8239,0,0,1,.67-.7158,2.4952,2.4952,0,0,1,2.6191.1641,1.6134,1.6134,0,0,1,.5205,1.2773v2.834h.59v.71Zm-2.3-.56a2.02,2.02,0,0,0,.55-.07,1.3354,1.3354,0,0,0,.43-.2.9938.9938,0,0,0,.2812-.3.7181.7181,0,0,0,.1-.37v-.85h-1.0605a1.9364,1.9364,0,0,0-1.0039.1992.6461.6461,0,0,0-.3164.58v.21a.7007.7007,0,0,0,.2754.5908A1.201,1.201,0,0,0,545.501,202.6235Z"/><path d="M550.5312,203.1831a.8172.8172,0,0,1-.6347-.2344.8675.8675,0,0,1-.2149-.6133v-3.6025h-.8505v-.71h.4794a.4735.4735,0,0,0,.3555-.1045.546.546,0,0,0,.0957-.3652v-.96h.7188v1.43h1.1308v.71h-1.1308v3.74h1.0507v.71Z"/><path d="M556.6514,203.1831a.787.787,0,0,1-.6455-.24,1.1953,1.1953,0,0,1-.2442-.6h-.0508a1.3335,1.3335,0,0,1-.56.72,1.7415,1.7415,0,0,1-.9307.24,1.8073,1.8073,0,0,1-1.2744-.42,1.4754,1.4754,0,0,1-.4551-1.1407,1.3008,1.3008,0,0,1,.5352-1.1191,2.8381,2.8381,0,0,1,1.665-.3906h1.0195v-.51a1.1144,1.1144,0,0,0-.3-.84,1.28,1.28,0,0,0-.92-.29,1.3871,1.3871,0,0,0-.7851.21,1.72,1.72,0,0,0-.5245.56l-.48-.4493a1.8319,1.8319,0,0,1,.67-.7158,2.4969,2.4969,0,0,1,2.62.1641,1.6167,1.6167,0,0,1,.52,1.2773v2.834h.59v.71Zm-2.3-.56a2.0307,2.0307,0,0,0,.55-.07,1.3455,1.3455,0,0,0,.43-.2.99.99,0,0,0,.28-.3.7181.7181,0,0,0,.1-.37v-.85h-1.06a1.94,1.94,0,0,0-1.0049.1992.6452.6452,0,0,0-.3154.58v.21a.7008.7008,0,0,0,.2753.5908A1.1975,1.1975,0,0,0,554.3516,202.6235Z"/><path d="M562.541,203.3032a2.3111,2.3111,0,0,1-.9551-.19,2.0448,2.0448,0,0,1-.73-.545,2.5034,2.5034,0,0,1-.47-.85,3.835,3.835,0,0,1,0-2.2256,2.5006,2.5006,0,0,1,.47-.8545,2.0682,2.0682,0,0,1,.73-.5449,2.3111,2.3111,0,0,1,.9551-.19,2.1974,2.1974,0,0,1,.93.1894,2.056,2.056,0,0,1,.7.5235,2.3318,2.3318,0,0,1,.4453.792,3.1485,3.1485,0,0,1,.1553,1.0068v.3789h-3.711v.2393a1.7544,1.7544,0,0,0,.1055.6152,1.4588,1.4588,0,0,0,.3.4951,1.3788,1.3788,0,0,0,.48.33,1.6531,1.6531,0,0,0,.6455.12,1.5645,1.5645,0,0,0,.8545-.23,1.5048,1.5048,0,0,0,.5654-.66l.57.4131a1.9923,1.9923,0,0,1-.78.86A2.3544,2.3544,0,0,1,562.541,203.3032Zm0-4.7305a1.5188,1.5188,0,0,0-.6.1143,1.3479,1.3479,0,0,0-.4648.3232,1.5105,1.5105,0,0,0-.3057.4922,1.7019,1.7019,0,0,0-.11.6211v.0693h2.8506v-.1093a1.5676,1.5676,0,0,0-.375-1.0977A1.2794,1.2794,0,0,0,562.541,198.5727Z"/><path d="M566.0918,203.1831v-5.16h.7988v.8311h.041a1.6722,1.6722,0,0,1,.5352-.6934,1.5049,1.5049,0,0,1,.9238-.2578,1.62,1.62,0,0,1,1.2656.5156,2.0918,2.0918,0,0,1,.4649,1.4551v3.31h-.8v-3.1768q0-1.3931-1.17-1.3935a1.8052,1.8052,0,0,0-.4659.0605,1.3559,1.3559,0,0,0-.4043.1807.8889.8889,0,0,0-.2851.3056.8644.8644,0,0,0-.1055.4356v3.5879Z"/><path d="M573.6914,203.3032a2.3761,2.3761,0,0,1-.9707-.19,1.9657,1.9657,0,0,1-.7246-.54,2.4009,2.4009,0,0,1-.45-.85,4.117,4.117,0,0,1,0-2.24,2.4009,2.4009,0,0,1,.45-.85,1.9767,1.9767,0,0,1,.7246-.54,2.3761,2.3761,0,0,1,.9707-.19,2.0736,2.0736,0,0,1,1.2344.335,2.0523,2.0523,0,0,1,.6953.875l-.67.34a1.2164,1.2164,0,0,0-.461-.6191,1.3778,1.3778,0,0,0-.7988-.2207,1.609,1.609,0,0,0-.6309.1152,1.2289,1.2289,0,0,0-.4492.32,1.3238,1.3238,0,0,0-.2705.49,2.078,2.078,0,0,0-.09.625v.88a1.68,1.68,0,0,0,.3642,1.1143,1.3261,1.3261,0,0,0,1.0762.4355,1.45,1.45,0,0,0,1.3994-.9l.58.3907a2.05,2.05,0,0,1-.7451.89A2.1823,2.1823,0,0,1,573.6914,203.3032Z"/><path d="M576.8008,203.1831v-5.16h.8v.95h.05a1.5577,1.5577,0,0,1,.5-.66,1.5374,1.5374,0,0,1,.99-.29h.3106v.8h-.4707a1.8062,1.8062,0,0,0-1.0147.2451.7253.7253,0,0,0-.3652.6153v3.5Z"/><path d="M583.75,198.0229h.791l-2.3105,6.36a2.7321,2.7321,0,0,1-.18.3847.7476.7476,0,0,1-.2207.2451.8671.8671,0,0,1-.3242.13,2.4366,2.4366,0,0,1-.4747.04h-.41v-.71h.81l.39-1.0986-1.93-5.3516h.8008l1.2393,3.5039.24.8379h.05l.2793-.8379Z"/><path d="M585.5605,198.0229h.8v.8311h.04a1.44,1.44,0,0,1,.585-.7178,1.7551,1.7551,0,0,1,.9248-.2334,1.956,1.956,0,0,1,.87.19,1.8892,1.8892,0,0,1,.665.54,2.47,2.47,0,0,1,.42.85,4.4106,4.4106,0,0,1,0,2.24,2.47,2.47,0,0,1-.42.85,1.8784,1.8784,0,0,1-.665.54,1.956,1.956,0,0,1-.87.19,1.5626,1.5626,0,0,1-1.51-.95h-.04v2.83h-.8Zm2.13,4.57a1.3771,1.3771,0,0,0,1.0694-.4267,1.5971,1.5971,0,0,0,.3906-1.1211v-.8848a1.5929,1.5929,0,0,0-.3906-1.12,1.3739,1.3739,0,0,0-1.0694-.4277,1.7175,1.7175,0,0,0-.5146.0761,1.4375,1.4375,0,0,0-.4258.2051,1.0169,1.0169,0,0,0-.2852.3174.8.8,0,0,0-.1044.3965v1.93a.9366.9366,0,0,0,.1044.4472,1.0256,1.0256,0,0,0,.2852.3321,1.31,1.31,0,0,0,.4258.206A1.85,1.85,0,0,0,587.69,202.5932Z"/><path d="M592.4414,203.1831a.8194.8194,0,0,1-.6357-.2344.8715.8715,0,0,1-.2149-.6133v-3.6025H590.74v-.71h.4805a.4752.4752,0,0,0,.3555-.1045.5521.5521,0,0,0,.0947-.3652v-.96h.72v1.43h1.13v.71h-1.13v3.74h1.0508v.71Z"/><path d="M595.2109,196.8129a.4851.4851,0,0,1-.375-.125.4584.4584,0,0,1-.1152-.3251v-.13a.4618.4618,0,0,1,.1152-.3252.625.625,0,0,1,.75,0,.466.466,0,0,1,.1153.3252v.13a.4625.4625,0,0,1-.1153.3251A.4877.4877,0,0,1,595.2109,196.8129Zm-.4,1.21h.8v5.16h-.8Z"/><path d="M599.26,203.3032a2.3229,2.3229,0,0,1-.9493-.19,2.0252,2.0252,0,0,1-.7343-.545,2.5484,2.5484,0,0,1-.4756-.85,3.7292,3.7292,0,0,1,0-2.2256,2.545,2.545,0,0,1,.4756-.8545,2.0479,2.0479,0,0,1,.7343-.5449,2.3229,2.3229,0,0,1,.9493-.19,2.2842,2.2842,0,0,1,.9453.19,2.112,2.112,0,0,1,.7353.5449,2.5182,2.5182,0,0,1,.48.8545,3.7292,3.7292,0,0,1,0,2.2256,2.5215,2.5215,0,0,1-.48.85,2.0878,2.0878,0,0,1-.7353.545A2.2842,2.2842,0,0,1,599.26,203.3032Zm0-.71a1.4554,1.4554,0,0,0,1.06-.4,1.6331,1.6331,0,0,0,.41-1.22v-.74a1.6349,1.6349,0,0,0-.41-1.22,1.6024,1.6024,0,0,0-2.1191,0,1.6349,1.6349,0,0,0-.41,1.22v.74a1.6331,1.6331,0,0,0,.41,1.22A1.4507,1.4507,0,0,0,599.26,202.5932Z"/><path d="M602.91,203.1831v-5.16h.8007v.8311h.0391a1.6887,1.6887,0,0,1,.5352-.6934,1.5127,1.5127,0,0,1,.9257-.2578,1.6171,1.6171,0,0,1,1.2647.5156,2.0965,2.0965,0,0,1,.4648,1.4551v3.31h-.8v-3.1768q0-1.3931-1.17-1.3935a1.7962,1.7962,0,0,0-.4648.0605,1.3493,1.3493,0,0,0-.4053.1807.8892.8892,0,0,0-.2852.3056.8746.8746,0,0,0-.1045.4356v3.5879Z"/><path d="M610.95,195.7827h.8v4.69h.04l.79-.88,1.46-1.57h.97l-1.91,2.04,2.1006,3.12h-.97l-1.711-2.63-.7695.79v1.84h-.8Z"/><path d="M617.99,203.3032a2.3106,2.3106,0,0,1-.955-.19,2.0417,2.0417,0,0,1-.73-.545,2.4882,2.4882,0,0,1-.4707-.85,3.8328,3.8328,0,0,1,0-2.2256,2.4856,2.4856,0,0,1,.4707-.8545,2.0649,2.0649,0,0,1,.73-.5449,2.3106,2.3106,0,0,1,.955-.19,2.1974,2.1974,0,0,1,.93.1894,2.054,2.054,0,0,1,.7.5235,2.3318,2.3318,0,0,1,.4453.792,3.1239,3.1239,0,0,1,.1543,1.0068v.3789h-3.71v.2393a1.7544,1.7544,0,0,0,.1054.6152,1.46,1.46,0,0,0,.3.4951,1.3736,1.3736,0,0,0,.4805.33,1.6414,1.6414,0,0,0,.6445.12,1.5725,1.5725,0,0,0,.8555-.23,1.5043,1.5043,0,0,0,.5645-.66l.57.4131a1.9923,1.9923,0,0,1-.78.86A2.3541,2.3541,0,0,1,617.99,203.3032Zm0-4.7305a1.5223,1.5223,0,0,0-.6.1143,1.3719,1.3719,0,0,0-.4658.3232,1.5268,1.5268,0,0,0-.3047.4922,1.7019,1.7019,0,0,0-.11.6211v.0693H619.36v-.1093a1.5676,1.5676,0,0,0-.375-1.0977A1.28,1.28,0,0,0,617.99,198.5727Z"/><path d="M624.6709,198.0229h.79l-2.3105,6.36a2.8372,2.8372,0,0,1-.18.3847.7665.7665,0,0,1-.22.2451.8778.8778,0,0,1-.3252.13,2.4328,2.4328,0,0,1-.4756.04h-.4092v-.71h.81l.39-1.0986-1.93-5.3516h.8l1.24,3.5039.24.8379h.05l.28-.8379Z"/><path d="M628.82,200.0629a6.8145,6.8145,0,0,1,.14-1.39,6.5953,6.5953,0,0,1,.3857-1.2451,5.6872,5.6872,0,0,1,.5742-1.0449,4.4262,4.4262,0,0,1,.71-.8h.7607a5.0712,5.0712,0,0,0-.7558.8593,5.89,5.89,0,0,0-.5694,1.02,6.3156,6.3156,0,0,0-.3652,1.1,4.765,4.765,0,0,0-.13,1.08v.86a4.7948,4.7948,0,0,0,.13,1.09,6.1909,6.1909,0,0,0,.9453,2.12,4.6628,4.6628,0,0,0,.7451.84H630.63a4.045,4.045,0,0,1-.6992-.78,5.5874,5.5874,0,0,1-.5752-1.05,6.93,6.93,0,0,1-.3907-1.2549A6.6766,6.6766,0,0,1,628.82,200.0629Z"/><path d="M632.27,196.2026h2.34a3.0561,3.0561,0,0,1,1.1806.2207,2.3926,2.3926,0,0,1,.9053.6543,2.972,2.972,0,0,1,.5742,1.0908,5.9076,5.9076,0,0,1,0,3.05,2.9685,2.9685,0,0,1-.5742,1.09,2.3842,2.3842,0,0,1-.9053.6552,3.0559,3.0559,0,0,1-1.1806.22h-2.34Zm2.34,6.24a2.09,2.09,0,0,0,.79-.1445,1.7,1.7,0,0,0,.62-.4248,1.9539,1.9539,0,0,0,.4053-.6856,2.7307,2.7307,0,0,0,.1455-.9248v-1.14a2.7408,2.7408,0,0,0-.1455-.9258,1.96,1.96,0,0,0-.4053-.6846,1.7,1.7,0,0,0-.62-.4248,2.0925,2.0925,0,0,0-.79-.1455h-1.5v5.5Z"/><path d="M638.98,203.1831v-6.9805H643.24v.74h-3.4209v2.34H643.04v.74h-3.2207v2.42H643.24v.74Z"/><path d="M646.64,199.7534l-.99,1.1v2.33h-.84v-6.9805h.84v3.7109h.03l1-1.2109,2.11-2.5h1.03l-2.6006,2.99,2.78,3.99h-1.04Z"/><path d="M652.8389,200.0629a6.67,6.67,0,0,1-.1446,1.4053,7.0014,7.0014,0,0,1-.39,1.2549,5.7033,5.7033,0,0,1-.5752,1.05,4.0158,4.0158,0,0,1-.7.78h-.76a4.6936,4.6936,0,0,0,.7451-.84,6.108,6.108,0,0,0,.5743-1.02,6.0259,6.0259,0,0,0,.37-1.1,4.7948,4.7948,0,0,0,.13-1.09v-.86a4.765,4.765,0,0,0-.13-1.08,6.3119,6.3119,0,0,0-.3643-1.1,5.8944,5.8944,0,0,0-.57-1.02,5.062,5.062,0,0,0-.7549-.8593h.76a4.3924,4.3924,0,0,1,.71.8,5.69,5.69,0,0,1,.5752,1.0449,6.6756,6.6756,0,0,1,.3847,1.2451A6.7447,6.7447,0,0,1,652.8389,200.0629Z"/><path d="M656.3389,198.0229h.78l.55,2.2305.5508,2.26h.02l.63-2.26.65-2.2305h.71l.67,2.2305.64,2.26h.0205l.5293-2.26.5605-2.2305h.75l-1.37,5.16h-.99l-.72-2.4805-.45-1.5693H659.85l-.44,1.5693-.72,2.4805h-.97Z"/><path d="M664.959,196.8129a.4851.4851,0,0,1-.375-.125.4579.4579,0,0,1-.1152-.3251v-.13a.4614.4614,0,0,1,.1152-.3252.625.625,0,0,1,.75,0,.4659.4659,0,0,1,.1152.3252v.13a.4624.4624,0,0,1-.1152.3251A.488.488,0,0,1,664.959,196.8129Zm-.4,1.21h.8008v5.16h-.8008Z"/><path d="M668.1992,203.1831a.817.817,0,0,1-.6347-.2344.8721.8721,0,0,1-.2159-.6133v-3.6025h-.85v-.71h.48a.4736.4736,0,0,0,.3555-.1045.5465.5465,0,0,0,.0947-.3652v-.96h.7207v1.43h1.13v.71h-1.13v3.74h1.05v.71Z"/><path d="M670.5693,195.7827h.8008v3.0713h.04a1.6773,1.6773,0,0,1,.5341-.6934,1.5132,1.5132,0,0,1,.9258-.2578,1.6171,1.6171,0,0,1,1.2647.5156,2.097,2.097,0,0,1,.4648,1.4551v3.31h-.8v-3.1768q0-1.3931-1.17-1.3935a1.7925,1.7925,0,0,0-.4649.0605,1.3487,1.3487,0,0,0-.4052.1807.8883.8883,0,0,0-.2852.3056.8641.8641,0,0,0-.1045.4356v3.5879h-.8008Z"/><path d="M679.5293,203.1831h-.84v-6.9805h2.78a1.95,1.95,0,0,1,1.4346.5107,1.9771,1.9771,0,0,1,.5156,1.47,2.1123,2.1123,0,0,1-.3554,1.2646,1.7,1.7,0,0,1-1.045.6553l1.6006,3.08h-.95l-1.51-3h-1.6309Zm1.94-3.72a1.0842,1.0842,0,0,0,.7754-.2607.97.97,0,0,0,.2744-.7393v-.52a.9741.9741,0,0,0-.2744-.74,1.0879,1.0879,0,0,0-.7754-.26h-1.94v2.52Z"/><path d="M686.81,203.3032a2.3235,2.3235,0,0,1-.95-.19,2.0332,2.0332,0,0,1-.7344-.545,2.5484,2.5484,0,0,1-.4756-.85,3.7292,3.7292,0,0,1,0-2.2256,2.545,2.545,0,0,1,.4756-.8545,2.0561,2.0561,0,0,1,.7344-.5449,2.3235,2.3235,0,0,1,.95-.19,2.2875,2.2875,0,0,1,.9453.19,2.1212,2.1212,0,0,1,.7353.5449,2.5182,2.5182,0,0,1,.48.8545,3.7292,3.7292,0,0,1,0,2.2256,2.5215,2.5215,0,0,1-.48.85,2.0968,2.0968,0,0,1-.7353.545A2.2875,2.2875,0,0,1,686.81,203.3032Zm0-.71a1.4554,1.4554,0,0,0,1.06-.4,1.6369,1.6369,0,0,0,.4092-1.22v-.74a1.6387,1.6387,0,0,0-.4092-1.22,1.6037,1.6037,0,0,0-2.12,0,1.6353,1.6353,0,0,0-.41,1.22v.74a1.6335,1.6335,0,0,0,.41,1.22A1.4532,1.4532,0,0,0,686.81,202.5932Z"/><path d="M692.4092,203.3032a2.3235,2.3235,0,0,1-.95-.19,2.034,2.034,0,0,1-.7344-.545,2.5484,2.5484,0,0,1-.4756-.85,3.7292,3.7292,0,0,1,0-2.2256,2.545,2.545,0,0,1,.4756-.8545,2.057,2.057,0,0,1,.7344-.5449,2.3235,2.3235,0,0,1,.95-.19,2.2872,2.2872,0,0,1,.9453.19,2.1212,2.1212,0,0,1,.7353.5449,2.5165,2.5165,0,0,1,.48.8545,3.7271,3.7271,0,0,1,0,2.2256,2.52,2.52,0,0,1-.48.85,2.0968,2.0968,0,0,1-.7353.545A2.2872,2.2872,0,0,1,692.4092,203.3032Zm0-.71a1.4554,1.4554,0,0,0,1.06-.4,1.6369,1.6369,0,0,0,.4092-1.22v-.74a1.6387,1.6387,0,0,0-.4092-1.22,1.6037,1.6037,0,0,0-2.12,0,1.6353,1.6353,0,0,0-.41,1.22v.74a1.6335,1.6335,0,0,0,.41,1.22A1.4532,1.4532,0,0,0,692.4092,202.5932Z"/><path d="M697.1992,203.1831a.817.817,0,0,1-.6347-.2344.8721.8721,0,0,1-.2159-.6133v-3.6025h-.85v-.71h.48a.4736.4736,0,0,0,.3555-.1045.5465.5465,0,0,0,.0947-.3652v-.96h.7207v1.43h1.13v.71h-1.13v3.74h1.05v.71Z"/><path d="M701.9287,195.7827h.8008v4.69h.04l.79-.88,1.46-1.57h.97l-1.91,2.04,2.1,3.12h-.97l-1.71-2.63-.7695.79v1.84h-.8008Z"/><path d="M708.9688,203.3032a2.3107,2.3107,0,0,1-.9551-.19,2.0417,2.0417,0,0,1-.7295-.545,2.4882,2.4882,0,0,1-.4707-.85,3.8328,3.8328,0,0,1,0-2.2256,2.4856,2.4856,0,0,1,.4707-.8545,2.0649,2.0649,0,0,1,.7295-.5449,2.3107,2.3107,0,0,1,.9551-.19,2.1973,2.1973,0,0,1,.93.1894,2.054,2.054,0,0,1,.7.5235,2.3318,2.3318,0,0,1,.4453.792,3.1212,3.1212,0,0,1,.1543,1.0068v.3789h-3.71v.2393a1.7522,1.7522,0,0,0,.1055.6152,1.4588,1.4588,0,0,0,.3.4951,1.3723,1.3723,0,0,0,.48.33,1.6415,1.6415,0,0,0,.6446.12,1.5724,1.5724,0,0,0,.8554-.23,1.5036,1.5036,0,0,0,.5645-.66l.57.4131a1.9923,1.9923,0,0,1-.78.86A2.354,2.354,0,0,1,708.9688,203.3032Zm0-4.7305a1.5225,1.5225,0,0,0-.6.1143,1.3719,1.3719,0,0,0-.4658.3232,1.5268,1.5268,0,0,0-.3047.4922,1.7019,1.7019,0,0,0-.11.6211v.0693h2.8506v-.1093a1.5676,1.5676,0,0,0-.375-1.0977A1.28,1.28,0,0,0,708.9688,198.5727Z"/><path d="M715.6494,198.0229h.79l-2.3106,6.36a2.8372,2.8372,0,0,1-.18.3847.7665.7665,0,0,1-.22.2451.8778.8778,0,0,1-.3252.13,2.4328,2.4328,0,0,1-.4756.04H712.52v-.71h.81l.39-1.0986-1.93-5.3516h.8l1.24,3.5039.24.8379h.05l.28-.8379Z"/><path class="cls-1" d="M154,105.0942h87a0,0,0,0,1,0,0v25a4,4,0,0,1-4,4H158a4,4,0,0,1-4-4v-25A0,0,0,0,1,154,105.0942Z"/><path d="M170.5117,120.7773l-.7-2.06h-2.82l-.7,2.06h-.85l2.44-6.98h1.07l2.44,6.98Zm-2.09-6.2h-.05l-1.18,3.4h2.41Z"/><path d="M175.772,119.9472h-.04a1.5742,1.5742,0,0,1-1.51.95,1.9572,1.9572,0,0,1-.87-.19,1.883,1.883,0,0,1-.6651-.54,2.4727,2.4727,0,0,1-.42-.85,4.3988,4.3988,0,0,1,0-2.24,2.4722,2.4722,0,0,1,.42-.85,1.8917,1.8917,0,0,1,.6651-.54,1.9559,1.9559,0,0,1,.87-.1905,1.7553,1.7553,0,0,1,.9248.2334,1.4429,1.4429,0,0,1,.5849.7178h.04v-3.0713h.8v7.4h-.8Zm-1.33.24a1.8576,1.8576,0,0,0,.5151-.07,1.2978,1.2978,0,0,0,.4248-.206,1.0052,1.0052,0,0,0,.2852-.332.9255.9255,0,0,0,.105-.4473v-1.93a.79.79,0,0,0-.105-.3965.9964.9964,0,0,0-.2852-.3174,1.4254,1.4254,0,0,0-.4248-.205,1.7246,1.7246,0,0,0-.5151-.0762,1.3752,1.3752,0,0,0-1.07.4277,1.5967,1.5967,0,0,0-.39,1.12v.8848a1.601,1.601,0,0,0,.39,1.1211A1.3777,1.3777,0,0,0,174.4419,120.1875Z"/><path d="M181.5718,119.9472h-.04a1.5742,1.5742,0,0,1-1.51.95,1.9572,1.9572,0,0,1-.87-.19,1.883,1.883,0,0,1-.6651-.54,2.4727,2.4727,0,0,1-.42-.85,4.3988,4.3988,0,0,1,0-2.24,2.4722,2.4722,0,0,1,.42-.85,1.8917,1.8917,0,0,1,.6651-.54,1.9559,1.9559,0,0,1,.87-.1905,1.7553,1.7553,0,0,1,.9248.2334,1.4429,1.4429,0,0,1,.5849.7178h.04v-3.0713h.8v7.4h-.8Zm-1.33.24a1.8576,1.8576,0,0,0,.5151-.07,1.2978,1.2978,0,0,0,.4248-.206,1.0052,1.0052,0,0,0,.2852-.332.9255.9255,0,0,0,.105-.4473v-1.93a.79.79,0,0,0-.105-.3965.9964.9964,0,0,0-.2852-.3174,1.4254,1.4254,0,0,0-.4248-.205,1.7246,1.7246,0,0,0-.5151-.0762,1.3752,1.3752,0,0,0-1.07.4277,1.5967,1.5967,0,0,0-.39,1.12v.8848a1.601,1.601,0,0,0,.39,1.1211A1.3777,1.3777,0,0,0,180.2417,120.1875Z"/><path d="M190.1816,120.7773a.7843.7843,0,0,1-.645-.24,1.188,1.188,0,0,1-.2451-.6h-.05a1.3371,1.3371,0,0,1-.56.72,1.74,1.74,0,0,1-.93.24,1.8073,1.8073,0,0,1-1.2749-.42,1.4768,1.4768,0,0,1-.4551-1.1406,1.3,1.3,0,0,1,.5351-1.1192,2.84,2.84,0,0,1,1.6651-.3906h1.02v-.51a1.1147,1.1147,0,0,0-.3-.84,1.2784,1.2784,0,0,0-.92-.29,1.39,1.39,0,0,0-.7852.21,1.7281,1.7281,0,0,0-.5249.56l-.48-.4492a1.8272,1.8272,0,0,1,.67-.7158,2.1132,2.1132,0,0,1,1.16-.295,2.1351,2.1351,0,0,1,1.46.459,1.6166,1.6166,0,0,1,.52,1.2774v2.8339h.59v.71Zm-2.3-.56a2.0292,2.0292,0,0,0,.55-.07,1.3444,1.3444,0,0,0,.43-.2.9967.9967,0,0,0,.28-.3.7185.7185,0,0,0,.1-.37v-.85h-1.06a1.94,1.94,0,0,0-1.0048.1992.6464.6464,0,0,0-.3155.58v.21a.7008.7008,0,0,0,.2754.5908A1.1993,1.1993,0,0,0,187.8813,120.2177Z"/><path d="M195.0513,120.7773h-.84v-6.98h2.78a1.9518,1.9518,0,0,1,1.4351.5108,1.9786,1.9786,0,0,1,.5151,1.47,2.1185,2.1185,0,0,1-.355,1.2647,1.7009,1.7009,0,0,1-1.0454.6552l1.6,3.08h-.95l-1.51-3h-1.63Zm1.94-3.72a1.0809,1.0809,0,0,0,.7749-.2608.9668.9668,0,0,0,.2749-.7392v-.52a.9709.9709,0,0,0-.2749-.74,1.0854,1.0854,0,0,0-.7749-.26h-1.94v2.52Z"/><path d="M202.3311,120.8974a2.32,2.32,0,0,1-.95-.19,2.0309,2.0309,0,0,1-.7348-.5449,2.5582,2.5582,0,0,1-.4751-.85,3.7292,3.7292,0,0,1,0-2.2256,2.5518,2.5518,0,0,1,.4751-.8545,2.0529,2.0529,0,0,1,.7348-.5449,2.3187,2.3187,0,0,1,.95-.1905,2.2876,2.2876,0,0,1,.9453.1905,2.1136,2.1136,0,0,1,.7348.5449,2.51,2.51,0,0,1,.48.8545,3.7292,3.7292,0,0,1,0,2.2256,2.5159,2.5159,0,0,1-.48.85,2.09,2.09,0,0,1-.7348.5449A2.2892,2.2892,0,0,1,202.3311,120.8974Zm0-.71a1.4544,1.4544,0,0,0,1.06-.4,1.6333,1.6333,0,0,0,.41-1.22v-.74a1.6346,1.6346,0,0,0-.41-1.22,1.6028,1.6028,0,0,0-2.12,0,1.6346,1.6346,0,0,0-.41,1.22v.74a1.6333,1.6333,0,0,0,.41,1.22A1.4531,1.4531,0,0,0,202.3311,120.1875Z"/><path d="M207.9312,120.8974a2.32,2.32,0,0,1-.95-.19,2.0309,2.0309,0,0,1-.7348-.5449,2.5582,2.5582,0,0,1-.4751-.85,3.7292,3.7292,0,0,1,0-2.2256,2.5518,2.5518,0,0,1,.4751-.8545,2.0529,2.0529,0,0,1,.7348-.5449,2.3187,2.3187,0,0,1,.95-.1905,2.2876,2.2876,0,0,1,.9453.1905,2.1136,2.1136,0,0,1,.7348.5449,2.51,2.51,0,0,1,.48.8545,3.7292,3.7292,0,0,1,0,2.2256,2.5159,2.5159,0,0,1-.48.85,2.09,2.09,0,0,1-.7348.5449A2.2892,2.2892,0,0,1,207.9312,120.8974Zm0-.71a1.4544,1.4544,0,0,0,1.06-.4,1.6337,1.6337,0,0,0,.41-1.22v-.74a1.635,1.635,0,0,0-.41-1.22,1.6028,1.6028,0,0,0-2.12,0,1.6346,1.6346,0,0,0-.41,1.22v.74a1.6333,1.6333,0,0,0,.41,1.22A1.4531,1.4531,0,0,0,207.9312,120.1875Z"/><path d="M212.7217,120.7773a.8189.8189,0,0,1-.6353-.2344.8718.8718,0,0,1-.2148-.6133v-3.6025h-.85v-.71h.48a.4731.4731,0,0,0,.3549-.1044.5465.5465,0,0,0,.0953-.3653v-.96h.72v1.43h1.13v.71h-1.13v3.74h1.05v.71Z"/><path d="M217.4512,113.3769h.8v4.69h.04l.79-.88,1.46-1.57h.97l-1.91,2.04,2.1,3.12h-.97l-1.71-2.63-.77.79v1.84h-.8Z"/><path d="M224.4912,120.8974a2.3111,2.3111,0,0,1-.9551-.19,2.0428,2.0428,0,0,1-.73-.5449,2.4977,2.4977,0,0,1-.47-.85,3.8461,3.8461,0,0,1,0-2.2256,2.4923,2.4923,0,0,1,.47-.8545,2.0652,2.0652,0,0,1,.73-.5449,2.31,2.31,0,0,1,.9551-.1905,2.1986,2.1986,0,0,1,.93.1895,2.06,2.06,0,0,1,.7.5234,2.3328,2.3328,0,0,1,.4453.792,3.138,3.138,0,0,1,.1548,1.0068v.379h-3.71v.2392a1.7658,1.7658,0,0,0,.105.6152,1.4514,1.4514,0,0,0,.3.4952,1.3806,1.3806,0,0,0,.48.33,1.6471,1.6471,0,0,0,.645.12,1.57,1.57,0,0,0,.855-.2305,1.5045,1.5045,0,0,0,.5649-.66l.57.4131a1.9917,1.9917,0,0,1-.78.86A2.3543,2.3543,0,0,1,224.4912,120.8974Zm0-4.73a1.5248,1.5248,0,0,0-.6.1142,1.3638,1.3638,0,0,0-.4648.3233,1.5259,1.5259,0,0,0-.3052.4921,1.7018,1.7018,0,0,0-.11.6211v.0694h2.85v-.1094a1.5679,1.5679,0,0,0-.375-1.0977A1.2794,1.2794,0,0,0,224.4912,116.167Z"/><path d="M231.1709,115.6171h.79l-2.31,6.36a2.7969,2.7969,0,0,1-.18.3848.7529.7529,0,0,1-.22.2451.8735.8735,0,0,1-.3247.13,2.44,2.44,0,0,1-.4751.04h-.41v-.71h.81l.39-1.0986-1.93-5.3516h.8l1.24,3.504.24.8378h.05l.28-.8378Z"/></g><g id="text"><rect class="cls-2" x="339.5" y="18.5942" width="275" height="165"/><rect class="cls-3" x="354.5" y="96.5942" width="241" height="73"/><g id="Hardware"><rect class="cls-4" x="372.9947" y="135.1307" width="40" height="10.5882"/><polygon class="cls-4" points="412.995 134.739 372.995 134.739 380.054 119.444 405.936 119.444 412.995 134.739"/><rect x="398.2888" y="138.0718" width="4.7059" height="4.7059"/><rect x="404.7594" y="138.0718" width="4.7059" height="4.7059"/></g><path d="M430.0723,129.3056V120.93h5.3886v1.4039h-3.8047v2.0283h3.3126v1.4038h-3.3126v3.54Z"/><path d="M436.6484,129.3056v-1.272h1.1045v-5.832h-1.1045V120.93h3.8047v1.272h-1.1162v5.832h1.1162v1.272Z"/><path d="M442.0723,129.3056V120.93h3.7685a2.7615,2.7615,0,0,1,1.0381.1861,2.1985,2.1985,0,0,1,.7861.5278,2.2591,2.2591,0,0,1,.4912.8223,3.4208,3.4208,0,0,1,0,2.1177,2.2637,2.2637,0,0,1-.4912.8164,2.205,2.205,0,0,1-.7861.5278,2.7615,2.7615,0,0,1-1.0381.186h-2.1846v3.1919Zm1.5839-4.56h2.0411a1.0155,1.0155,0,0,0,.72-.2461.9121.9121,0,0,0,.2637-.7017v-.5522a.8936.8936,0,0,0-.2637-.6958,1.03,1.03,0,0,0-.72-.24h-2.0411Z"/><path d="M452.2852,129.45a3.9746,3.9746,0,0,1-1.83-.3848,4.2629,4.2629,0,0,1-1.291-1.01l1.0683-1.0337a3.067,3.067,0,0,0,.9668.7622,2.642,2.642,0,0,0,1.1817.2623,1.6667,1.6667,0,0,0,1.1035-.316,1.0593,1.0593,0,0,0,.373-.851.9657.9657,0,0,0-.24-.6792,1.6173,1.6173,0,0,0-.9-.3809l-.792-.1191q-2.5092-.3963-2.5078-2.439a2.4032,2.4032,0,0,1,.21-1.021,2.1683,2.1683,0,0,1,.6054-.7812,2.7984,2.7984,0,0,1,.9551-.4986,4.2325,4.2325,0,0,1,1.2656-.1743,4.0764,4.0764,0,0,1,1.6563.313,3.2583,3.2583,0,0,1,1.2109.9253l-1.08,1.0224a2.46,2.46,0,0,0-.7558-.6186,2.3428,2.3428,0,0,0-1.1153-.2383,1.7033,1.7033,0,0,0-1.0263.2559.9749.9749,0,0,0-.0655,1.4218,1.9481,1.9481,0,0,0,.8868.3331l.7812.144a3.5734,3.5734,0,0,1,1.877.811,2.15,2.15,0,0,1,.6064,1.6275,2.7068,2.7068,0,0,1-.21,1.0874,2.3632,2.3632,0,0,1-.6114.8408,2.7938,2.7938,0,0,1-.9844.5464A4.2582,4.2582,0,0,1,452.2852,129.45Z"/><path d="M459.9521,129.3056v-1.2842h2.3038V122.07h-.1075l-1.8242,2.16-.9844-.8277,2.0762-2.4722h2.3887v7.0918h1.92v1.2842Z"/><path d="M470.2363,129.3056v-1.62h-3.792V126.33l3.3369-5.4h1.9551v5.52h1.0918v1.2358h-1.0918v1.62ZM467.74,126.45h2.4961v-3.9839h-.0957Z"/><path d="M476.86,129.45a3.078,3.078,0,0,1-1.3916-.294,2.562,2.562,0,0,1-.9727-.8462,3.9019,3.9019,0,0,1-.57-1.3559,9.1442,9.1442,0,0,1,0-3.666,3.9067,3.9067,0,0,1,.57-1.3619,2.5671,2.5671,0,0,1,.9727-.8462,3.078,3.078,0,0,1,1.3916-.2939,2.6392,2.6392,0,0,1,2.3584,1.14,7.0687,7.0687,0,0,1,0,6.3838A2.6391,2.6391,0,0,1,476.86,129.45Zm0-1.3321a1.1579,1.1579,0,0,0,1.122-.6059,3.5484,3.5484,0,0,0,.3184-1.6382v-1.5117a3.5513,3.5513,0,0,0-.3184-1.6382,1.3418,1.3418,0,0,0-2.2441,0,3.5513,3.5513,0,0,0-.3184,1.6382v1.5117a3.5484,3.5484,0,0,0,.3184,1.6382A1.157,1.157,0,0,0,476.86,128.1176Z"/><path d="M481.1562,126.4135V124.89h3.4317v1.5239Z"/><path d="M491.8359,129.3056h-5.8076v-1.4638l2.6279-2.3042a5.6023,5.6023,0,0,0,.9844-1.0621,1.8357,1.8357,0,0,0,.3115-1.0258v-.1563a1.0285,1.0285,0,0,0-.36-.8457,1.3393,1.3393,0,0,0-.875-.2939,1.27,1.27,0,0,0-.9844.3657,2.118,2.118,0,0,0-.48.8823l-1.3672-.5283a3.3545,3.3545,0,0,1,.3711-.7979,2.6571,2.6571,0,0,1,.6064-.666,2.878,2.878,0,0,1,.8584-.456,3.8389,3.8389,0,0,1,2.3037.018,2.4646,2.4646,0,0,1,.87.522,2.249,2.249,0,0,1,.5391.792,2.7889,2.7889,0,0,1,.0185,1.9561,3.5663,3.5663,0,0,1-.456.8217,5.2277,5.2277,0,0,1-.6719.7442q-.3837.3544-.8164.7138l-1.7637,1.4522h4.0918Z"/><path d="M496.3008,129.3056V120.93h1.584v6.9722h3.3v1.4038Z"/><path d="M504.8682,129.45a3.1332,3.1332,0,0,1-1.2422-.2339,2.5694,2.5694,0,0,1-.9239-.66,2.9461,2.9461,0,0,1-.582-1.0322,4.6487,4.6487,0,0,1-.0058-2.7056,2.9373,2.9373,0,0,1,.57-1.0263,2.5148,2.5148,0,0,1,.9121-.66,3.0412,3.0412,0,0,1,1.2236-.2344,2.97,2.97,0,0,1,1.2715.2525,2.4565,2.4565,0,0,1,.8887.6836,2.9684,2.9684,0,0,1,.5215,1.0019,4.1471,4.1471,0,0,1,.1738,1.2183v.5039h-4.1631v.1548a1.5281,1.5281,0,0,0,.3838,1.09,1.4854,1.4854,0,0,0,1.14.4111,1.7008,1.7008,0,0,0,.9424-.2383,2.6621,2.6621,0,0,0,.6533-.6079l.8282.9268a2.571,2.571,0,0,1-1.05.8486A3.6585,3.6585,0,0,1,504.8682,129.45Zm-.0235-5.4a1.2318,1.2318,0,0,0-.9726.4077,1.5354,1.5354,0,0,0-.3594,1.0561v.0962H506.08v-.1084a1.6492,1.6492,0,0,0-.3174-1.05A1.103,1.103,0,0,0,504.8447,124.05Z"/><path d="M510.2686,129.3056l-2.0889-6.2641h1.5127l.876,2.7.6113,2.2319h.084l.6123-2.2319.8525-2.7h1.4639l-2.1006,6.2641Z"/><path d="M517.6475,129.45a3.1332,3.1332,0,0,1-1.2422-.2339,2.5694,2.5694,0,0,1-.9239-.66,2.9461,2.9461,0,0,1-.582-1.0322,4.6487,4.6487,0,0,1-.0058-2.7056,2.9373,2.9373,0,0,1,.57-1.0263,2.5148,2.5148,0,0,1,.9121-.66,3.0412,3.0412,0,0,1,1.2236-.2344,2.97,2.97,0,0,1,1.2715.2525,2.4565,2.4565,0,0,1,.8887.6836,2.9665,2.9665,0,0,1,.5214,1.0019,4.1438,4.1438,0,0,1,.1739,1.2183v.5039H516.292v.1548a1.5281,1.5281,0,0,0,.3838,1.09,1.4854,1.4854,0,0,0,1.14.4111,1.7008,1.7008,0,0,0,.9424-.2383,2.6621,2.6621,0,0,0,.6533-.6079l.8282.9268a2.571,2.571,0,0,1-1.05.8486A3.6585,3.6585,0,0,1,517.6475,129.45Zm-.0235-5.4a1.2318,1.2318,0,0,0-.9726.4077,1.5354,1.5354,0,0,0-.3594,1.0561v.0962h2.5674v-.1084a1.6492,1.6492,0,0,0-.3174-1.05A1.103,1.103,0,0,0,517.624,124.05Z"/><path d="M523.3477,129.3056a1.5293,1.5293,0,0,1-1.1641-.396,1.5675,1.5675,0,0,1-.3721-1.1162v-7.3677h1.5362V128.07h.8281v1.2358Z"/><path d="M530.4277,124.3134a1.6032,1.6032,0,0,0,1.0625-.2939.9456.9456,0,0,0,.3418-.75v-.084a1.0312,1.0312,0,0,0-.33-.81,1.3135,1.3135,0,0,0-.9063-.2939,1.82,1.82,0,0,0-.9775.2642,2.38,2.38,0,0,0-.7383.7441l-1.0078-.9121a5.1568,5.1568,0,0,1,.4736-.5459,2.6779,2.6779,0,0,1,.5947-.4443,3.2188,3.2188,0,0,1,.7559-.294,3.8239,3.8239,0,0,1,.9482-.1079,4.1949,4.1949,0,0,1,1.1573.15,2.6963,2.6963,0,0,1,.9.438,2.059,2.059,0,0,1,.66,2.3281,1.7678,1.7678,0,0,1-.3477.564,1.8344,1.8344,0,0,1-.5166.39,2.5885,2.5885,0,0,1-.6181.2217v.0723a2.8565,2.8565,0,0,1,.6846.228,1.8037,1.8037,0,0,1,.5576.4141,1.9674,1.9674,0,0,1,.372.6059,2.1392,2.1392,0,0,1,.1377.792,2.2184,2.2184,0,0,1-.8515,1.7881,2.948,2.948,0,0,1-.9717.498,4.2817,4.2817,0,0,1-1.2607.1739,4.1783,4.1783,0,0,1-1.08-.126,3.1254,3.1254,0,0,1-.8213-.3423,2.9073,2.9073,0,0,1-.6182-.4976,3.7312,3.7312,0,0,1-.456-.5942l1.164-.8882a3.6262,3.6262,0,0,0,.3116.4624,1.963,1.963,0,0,0,.3847.3657,1.6553,1.6553,0,0,0,.4912.24,2.1612,2.1612,0,0,0,.6241.084,1.5431,1.5431,0,0,0,1.0683-.336,1.1825,1.1825,0,0,0,.3721-.9243v-.084a1.0241,1.0241,0,0,0-.4024-.8759,1.911,1.911,0,0,0-1.1582-.3h-.8271v-1.32Z"/><path d="M435.4492,139.9135h-4.2363v3.792h-1.0078V135.33h1.0078v3.6963h4.2363V135.33h1.0078v8.376h-1.0078Z"/><path d="M443.0928,143.7055a.9415.9415,0,0,1-.7744-.2881,1.4159,1.4159,0,0,1-.293-.72h-.0606a1.6055,1.6055,0,0,1-.6718.8643,2.0931,2.0931,0,0,1-1.1162.2871,2.1726,2.1726,0,0,1-1.53-.5039,1.7723,1.7723,0,0,1-.5459-1.3672,1.5644,1.5644,0,0,1,.6416-1.3447,3.4166,3.4166,0,0,1,1.998-.4678h1.2246v-.6123a1.3417,1.3417,0,0,0-.3593-1.0078,1.5368,1.5368,0,0,0-1.1045-.3477,1.6631,1.6631,0,0,0-.9424.252,2.0723,2.0723,0,0,0-.63.6718l-.5762-.54a2.1992,2.1992,0,0,1,.8037-.8579,2.9968,2.9968,0,0,1,3.1446.1968,1.9369,1.9369,0,0,1,.624,1.5322v3.4014h.708v.8515Zm-2.7608-.6719a2.4546,2.4546,0,0,0,.66-.0839,1.5889,1.5889,0,0,0,.5166-.24,1.184,1.184,0,0,0,.3359-.36.8562.8562,0,0,0,.12-.4434v-1.02h-1.2714a2.3227,2.3227,0,0,0-1.2071.24.7753.7753,0,0,0-.3769.6963v.252a.838.838,0,0,0,.33.708A1.433,1.433,0,0,0,440.332,143.0336Z"/><path d="M445,143.7055v-6.1919h.9609v1.14h.06a1.869,1.869,0,0,1,.6006-.7925,1.8407,1.8407,0,0,1,1.1875-.3477h.3721v.9595h-.5635a2.1729,2.1729,0,0,0-1.2188.2939.8674.8674,0,0,0-.4375.7383v4.2Z"/><path d="M453.293,142.7094h-.0489a1.8894,1.8894,0,0,1-1.8115,1.14,2.3481,2.3481,0,0,1-1.0439-.2276,2.2737,2.2737,0,0,1-.7989-.6484,2.9842,2.9842,0,0,1-.5039-1.0195,5.2854,5.2854,0,0,1,0-2.6885,3.0015,3.0015,0,0,1,.5039-1.0195,2.2737,2.2737,0,0,1,.7989-.648,2.3565,2.3565,0,0,1,1.0439-.228,2.1107,2.1107,0,0,1,1.11.2793,1.7388,1.7388,0,0,1,.7011.8613h.0489v-3.6846h.959v8.88h-.959Zm-1.5967.2881a2.2544,2.2544,0,0,0,.6182-.084,1.5386,1.5386,0,0,0,.51-.248,1.2014,1.2014,0,0,0,.3418-.3975,1.1213,1.1213,0,0,0,.127-.5371v-2.3154a.9567.9567,0,0,0-.127-.4766,1.1941,1.1941,0,0,0-.3418-.38,1.729,1.729,0,0,0-.51-.247,2.1171,2.1171,0,0,0-.6182-.0909,1.6562,1.6562,0,0,0-1.2842.5127,1.9193,1.9193,0,0,0-.4678,1.3448V141.14a1.9191,1.9191,0,0,0,.4678,1.3447A1.6528,1.6528,0,0,0,451.6963,142.9975Z"/><path d="M455.6445,137.5136h.9356l.66,2.6763.66,2.7119h.0234l.7569-2.7119.78-2.6763h.8516l.8047,2.6763.7676,2.7119h.0234l.6367-2.7119.6719-2.6763h.9l-1.6445,6.1919h-1.1875L460.42,140.73l-.539-1.8847h-.0245l-.5283,1.8847-.8633,2.9756h-1.164Z"/><path d="M469.9,143.7055a.9393.9393,0,0,1-.7734-.2881,1.4264,1.4264,0,0,1-.295-.72h-.06a1.6061,1.6061,0,0,1-.6719.8643,2.0931,2.0931,0,0,1-1.1162.2871,2.1685,2.1685,0,0,1-1.5293-.5039,1.766,1.766,0,0,1-.5469-1.3672,1.5627,1.5627,0,0,1,.6426-1.3447,3.4166,3.4166,0,0,1,1.998-.4678h1.2237v-.6123a1.3383,1.3383,0,0,0-.36-1.0078,1.5324,1.5324,0,0,0-1.1035-.3477,1.6611,1.6611,0,0,0-.9424.252,2.0734,2.0734,0,0,0-.63.6718l-.5761-.54a2.1793,2.1793,0,0,1,.8046-.8579,2.5318,2.5318,0,0,1,1.3916-.354,2.56,2.56,0,0,1,1.752.5508,1.9369,1.9369,0,0,1,.624,1.5322v3.4014h.708v.8515Zm-2.76-.6719a2.4652,2.4652,0,0,0,.66-.0839,1.6121,1.6121,0,0,0,.5156-.24,1.1705,1.1705,0,0,0,.3359-.36.8562.8562,0,0,0,.12-.4434v-1.02H467.5a2.3169,2.3169,0,0,0-1.2051.24.777.777,0,0,0-.3789.6963v.252a.8406.8406,0,0,0,.33.708A1.4394,1.4394,0,0,0,467.1406,143.0336Z"/><path d="M471.8086,143.7055v-6.1919h.96v1.14h.06a1.8772,1.8772,0,0,1,.6006-.7925,1.8456,1.8456,0,0,1,1.1885-.3477h.3711v.9595h-.5635a2.1693,2.1693,0,0,0-1.2178.2939.8665.8665,0,0,0-.4384.7383v4.2Z"/><path d="M478.4805,143.8491a2.7739,2.7739,0,0,1-1.1465-.2276,2.4629,2.4629,0,0,1-.875-.6543,2.9919,2.9919,0,0,1-.5645-1.0195,4.5948,4.5948,0,0,1,0-2.67,2.9886,2.9886,0,0,1,.5645-1.0264,2.4627,2.4627,0,0,1,.875-.6538,2.7836,2.7836,0,0,1,1.1465-.228,2.6317,2.6317,0,0,1,1.1152.227,2.4774,2.4774,0,0,1,.8408.6285,2.82,2.82,0,0,1,.5342.95,3.7784,3.7784,0,0,1,.1855,1.208v.4541h-4.4521v.288a2.1233,2.1233,0,0,0,.126.7383,1.7528,1.7528,0,0,0,.36.5938,1.6515,1.6515,0,0,0,.5752.3965,1.9886,1.9886,0,0,0,.7754.1435,1.88,1.88,0,0,0,1.0254-.2764,1.8035,1.8035,0,0,0,.6777-.7919l.6836.4951a2.3872,2.3872,0,0,1-.9355,1.0332A2.8285,2.8285,0,0,1,478.4805,143.8491Zm0-5.6758a1.83,1.83,0,0,0-.7207.1377,1.6445,1.6445,0,0,0-.5577.3867,1.8457,1.8457,0,0,0-.3662.5908,2.0459,2.0459,0,0,0-.1318.7451v.084h3.4209v-.1318a1.8808,1.8808,0,0,0-.4512-1.3174A1.5321,1.5321,0,0,0,478.4805,138.1733Z"/><path d="M487.4316,143.8491a2.8979,2.8979,0,0,1-1.4453-.3291,3.2847,3.2847,0,0,1-1.0019-.8828l.6836-.5518a2.6785,2.6785,0,0,0,.8047.7022,2.09,2.09,0,0,0,1.0312.246,1.5287,1.5287,0,0,0,.9541-.2636.958.958,0,0,0,.1084-1.3623,1.43,1.43,0,0,0-.8457-.3545l-.4922-.0713a4.1191,4.1191,0,0,1-.793-.1865,2.1844,2.1844,0,0,1-.6289-.336,1.4392,1.4392,0,0,1-.42-.5215,1.6941,1.6941,0,0,1-.15-.7441,1.7883,1.7883,0,0,1,.168-.7988,1.5972,1.5972,0,0,1,.4619-.5694,2.0307,2.0307,0,0,1,.7022-.3422,3.254,3.254,0,0,1,.8759-.1138,2.7367,2.7367,0,0,1,1.2666.2641,2.8291,2.8291,0,0,1,.8926.732l-.6347.5762a1.9119,1.9119,0,0,0-.6006-.5225,1.9427,1.9427,0,0,0-.9961-.2334,1.373,1.373,0,0,0-.9053.2578.8675.8675,0,0,0-.3066.7022.7312.7312,0,0,0,.3066.6591,2.2736,2.2736,0,0,0,.8809.3008l.48.0713a2.5863,2.5863,0,0,1,1.4649.5947,1.5645,1.5645,0,0,1,.4316,1.1455,1.7566,1.7566,0,0,1-.6123,1.4161A2.528,2.528,0,0,1,487.4316,143.8491Z"/><path d="M493.7441,143.8491a2.77,2.77,0,0,1-1.1455-.2276,2.4669,2.4669,0,0,1-.8759-.6543,3.0071,3.0071,0,0,1-.5645-1.0195,4.6148,4.6148,0,0,1,0-2.67,3.0036,3.0036,0,0,1,.5645-1.0264,2.4668,2.4668,0,0,1,.8759-.6538,2.78,2.78,0,0,1,1.1455-.228,2.6368,2.6368,0,0,1,1.1163.227,2.4639,2.4639,0,0,1,.84.6285,2.7885,2.7885,0,0,1,.5342.95,3.7534,3.7534,0,0,1,.1865,1.208v.4541h-4.4521v.288a2.1026,2.1026,0,0,0,.1259.7383,1.7651,1.7651,0,0,0,.3594.5938,1.6639,1.6639,0,0,0,.5762.3965,1.9867,1.9867,0,0,0,.7744.1435,1.8777,1.8777,0,0,0,1.0254-.2764,1.8061,1.8061,0,0,0,.6787-.7919l.6836.4951a2.393,2.393,0,0,1-.9356,1.0332A2.8345,2.8345,0,0,1,493.7441,143.8491Zm0-5.6758a1.8221,1.8221,0,0,0-.72.1377,1.6258,1.6258,0,0,0-.5576.3867,1.8267,1.8267,0,0,0-.3662.5908,2.0251,2.0251,0,0,0-.1318.7451v.084h3.42v-.1318a1.885,1.885,0,0,0-.45-1.3174A1.5359,1.5359,0,0,0,493.7441,138.1733Z"/><path d="M500.3086,143.8491a2.8424,2.8424,0,0,1-1.1641-.2276,2.3767,2.3767,0,0,1-.87-.6484,2.8711,2.8711,0,0,1-.54-1.0195,4.9608,4.9608,0,0,1,0-2.6885,2.8875,2.8875,0,0,1,.54-1.0195,2.3768,2.3768,0,0,1,.87-.648,2.8523,2.8523,0,0,1,1.1641-.228,2.482,2.482,0,0,1,1.4814.4018,2.4458,2.4458,0,0,1,.834,1.05l-.8037.4082a1.4643,1.4643,0,0,0-.5517-.7451,1.6572,1.6572,0,0,0-.96-.2637,1.92,1.92,0,0,0-.7559.1387,1.4613,1.4613,0,0,0-.54.3838,1.6164,1.6164,0,0,0-.3242.5879,2.4707,2.4707,0,0,0-.1084.75v1.0557a2.0085,2.0085,0,0,0,.4385,1.3379,1.5863,1.5863,0,0,0,1.29.5224,1.7418,1.7418,0,0,0,1.68-1.08l.6963.4678a2.4563,2.4563,0,0,1-.8946,1.0684A2.6153,2.6153,0,0,1,500.3086,143.8491Z"/><path d="M507.8564,142.7094h-.0478a3.0186,3.0186,0,0,1-.2344.4219,1.54,1.54,0,0,1-.834.6231,2.1435,2.1435,0,0,1-.6718.0947,1.96,1.96,0,0,1-1.5235-.6172,2.4941,2.4941,0,0,1-.5644-1.7461v-3.9722h.96v3.812q0,1.6714,1.416,1.6719a2.1588,2.1588,0,0,0,.5577-.0722,1.5411,1.5411,0,0,0,.48-.2159,1.099,1.099,0,0,0,.336-.3672,1.0707,1.0707,0,0,0,.1259-.5351v-4.2935h.96v6.1919h-.96Z"/><path d="M510.8555,143.7055v-6.1919h.9609v1.14h.06a1.8745,1.8745,0,0,1,.6-.7925,1.8456,1.8456,0,0,1,1.1885-.3477h.372v.9595h-.5644a2.1735,2.1735,0,0,0-1.2178.2939.8674.8674,0,0,0-.4375.7383v4.2Z"/><path d="M515.74,136.0615a.5866.5866,0,0,1-.45-.15.5544.5544,0,0,1-.1377-.39v-.1557a.5544.5544,0,0,1,.1377-.39.751.751,0,0,1,.9,0,.5544.5544,0,0,1,.1377.39v.1557a.5544.5544,0,0,1-.1377.39A.5866.5866,0,0,1,515.74,136.0615Zm-.48,1.4521h.9609v6.1919H515.26Z"/><path d="M519.6279,143.7055a.9822.9822,0,0,1-.7617-.2812,1.0481,1.0481,0,0,1-.2578-.7364v-4.3222h-1.02v-.8521h.5762a.564.564,0,0,0,.4257-.1259.6529.6529,0,0,0,.1143-.438v-1.1524h.8643v1.7163h1.3554v.8521h-1.3554v4.4883h1.26v.8515Z"/><path d="M526.2881,137.5136h.9482l-2.7724,7.6324a3.31,3.31,0,0,1-.2159.4619.9084.9084,0,0,1-.2636.2939,1.0536,1.0536,0,0,1-.3906.1553,2.8575,2.8575,0,0,1-.5694.0488h-.4922v-.8525h.9717l.4678-1.3174-2.3155-6.4224h.96l1.4883,4.2036.2881,1.0059h.0595l.336-1.0059Z"/><path d="M531.291,143.7055v-6.1919h.961v.9966H532.3a3.0914,3.0914,0,0,1,.2461-.4458,1.5169,1.5169,0,0,1,.3359-.3623,1.54,1.54,0,0,1,.462-.2436,1.9626,1.9626,0,0,1,.624-.0889,2.2582,2.2582,0,0,1,1.1279.2915,1.7591,1.7591,0,0,1,.7676.9575h.0244a1.8932,1.8932,0,0,1,.63-.8745,1.934,1.934,0,0,1,1.2539-.3745,1.8557,1.8557,0,0,1,1.4824.6182,2.592,2.592,0,0,1,.5332,1.746v3.9717h-.96V139.893a2.0288,2.0288,0,0,0-.3232-1.25,1.2209,1.2209,0,0,0-1.0322-.4219,2.0271,2.0271,0,0,0-.5459.0723,1.5,1.5,0,0,0-.4619.2168,1.0483,1.0483,0,0,0-.3243.3672,1.0818,1.0818,0,0,0-.12.5225v4.3056h-.96V139.893a2.0286,2.0286,0,0,0-.3242-1.25,1.19,1.19,0,0,0-1.0079-.4219,2.0921,2.0921,0,0,0-.5517.0723,1.5084,1.5084,0,0,0-.4688.2168,1.1139,1.1139,0,0,0-.3291.3672,1.04,1.04,0,0,0-.1259.5225v4.3056Z"/><path d="M544.1074,143.8491a2.785,2.785,0,0,1-1.1406-.2276,2.4618,2.4618,0,0,1-.8818-.6543,3.0874,3.0874,0,0,1-.57-1.0195,4.4888,4.4888,0,0,1,0-2.67,3.0827,3.0827,0,0,1,.57-1.0264,2.4616,2.4616,0,0,1,.8818-.6538,2.795,2.795,0,0,1,1.1406-.228,2.7525,2.7525,0,0,1,1.1338.228,2.5311,2.5311,0,0,1,.8818.6538,3.0248,3.0248,0,0,1,.5762,1.0264,4.4678,4.4678,0,0,1,0,2.67,3.0291,3.0291,0,0,1-.5762,1.0195,2.5312,2.5312,0,0,1-.8818.6543A2.7428,2.7428,0,0,1,544.1074,143.8491Zm0-.8516a1.7431,1.7431,0,0,0,1.2715-.4805,1.96,1.96,0,0,0,.4922-1.4638v-.8877a1.9613,1.9613,0,0,0-.4922-1.4639,1.9238,1.9238,0,0,0-2.5439,0,1.9609,1.9609,0,0,0-.4922,1.4639v.8877a1.9593,1.9593,0,0,0,.4922,1.4638A1.7438,1.7438,0,0,0,544.1074,142.9975Z"/><path d="M552.4482,142.7094h-.0488a1.8894,1.8894,0,0,1-1.8115,1.14,2.3458,2.3458,0,0,1-1.044-.2276,2.2612,2.2612,0,0,1-.7978-.6484,2.9312,2.9312,0,0,1-.5039-1.0195,5.2562,5.2562,0,0,1,0-2.6885,2.9479,2.9479,0,0,1,.5039-1.0195,2.2612,2.2612,0,0,1,.7978-.648,2.3542,2.3542,0,0,1,1.044-.228,2.1106,2.1106,0,0,1,1.11.2793,1.7384,1.7384,0,0,1,.7012.8613h.0488v-3.6846h.96v8.88h-.96Zm-1.5966.2881a2.2536,2.2536,0,0,0,.6181-.084,1.5306,1.5306,0,0,0,.51-.248,1.2026,1.2026,0,0,0,.3418-.3975,1.111,1.111,0,0,0,.1269-.5371v-2.3154a.9474.9474,0,0,0-.1269-.4766,1.1953,1.1953,0,0,0-.3418-.38,1.7188,1.7188,0,0,0-.51-.247,2.1164,2.1164,0,0,0-.6181-.0909,1.6562,1.6562,0,0,0-1.2842.5127,1.9193,1.9193,0,0,0-.4678,1.3448V141.14a1.9191,1.9191,0,0,0,.4678,1.3447A1.6528,1.6528,0,0,0,550.8516,142.9975Z"/><path d="M559.2637,142.7094h-.0479a3.0084,3.0084,0,0,1-.2344.4219,1.5406,1.5406,0,0,1-.8339.6231,2.1441,2.1441,0,0,1-.6719.0947,1.96,1.96,0,0,1-1.5235-.6172,2.4941,2.4941,0,0,1-.5644-1.7461v-3.9722h.96v3.812q0,1.6714,1.416,1.6719a2.158,2.158,0,0,0,.5576-.0722,1.5417,1.5417,0,0,0,.4805-.2159,1.1,1.1,0,0,0,.3359-.3672,1.0707,1.0707,0,0,0,.126-.5351v-4.2935h.96v6.1919h-.96Z"/><path d="M563.2832,143.7055a.9791.9791,0,0,1-.7617-.2822,1.0123,1.0123,0,0,1-.2588-.7139v-7.8838h.9609v8.0284h.9112v.8515Z"/><path d="M567.8545,143.8491a2.7694,2.7694,0,0,1-1.1455-.2276,2.4752,2.4752,0,0,1-.876-.6543,2.9917,2.9917,0,0,1-.5644-1.0195,4.6148,4.6148,0,0,1,0-2.67,2.9885,2.9885,0,0,1,.5644-1.0264,2.4751,2.4751,0,0,1,.876-.6538,2.7791,2.7791,0,0,1,1.1455-.228,2.6363,2.6363,0,0,1,1.1162.227,2.4639,2.4639,0,0,1,.84.6285,2.7868,2.7868,0,0,1,.5342.95,3.7507,3.7507,0,0,1,.1865,1.208v.4541h-4.4521v.288a2.1233,2.1233,0,0,0,.126.7383,1.7651,1.7651,0,0,0,.3594.5938,1.6635,1.6635,0,0,0,.5761.3965,1.987,1.987,0,0,0,.7744.1435,1.8777,1.8777,0,0,0,1.0254-.2764,1.8055,1.8055,0,0,0,.6787-.7919l.6836.4951a2.3933,2.3933,0,0,1-.9355,1.0332A2.8345,2.8345,0,0,1,567.8545,143.8491Zm0-5.6758a1.8218,1.8218,0,0,0-.72.1377,1.6253,1.6253,0,0,0-.5577.3867,1.8284,1.8284,0,0,0-.3662.5908,2.0459,2.0459,0,0,0-.1318.7451v.084h3.42v-.1318a1.885,1.885,0,0,0-.45-1.3174A1.5357,1.5357,0,0,0,567.8545,138.1733Z"/><g id="key-2" data-name="key"><path class="cls-5" d="M384.04,75.13a11.68,11.68,0,1,1-.5547-7.9353"/><circle cx="369.022" cy="71.9145" r="2.5"/><polyline class="cls-6" points="383.486 67.195 406.809 67.195 411.175 71.561 407.412 75.323 392.748 75.323 390.119 72.718 387.707 75.13 384.04 75.13"/></g><path d="M355.2686,39.8935v-1.272h1.104V32.79h-1.104v-1.272h3.8037V32.79h-1.1158v5.832h1.1158v1.272Z"/><path d="M360.6919,31.5175h3.876a2.6319,2.6319,0,0,1,.93.1558,2.0508,2.0508,0,0,1,.7022.4321,1.794,1.794,0,0,1,.438.6782,2.5143,2.5143,0,0,1,.15.8819,2.2793,2.2793,0,0,1-.126.81,1.5816,1.5816,0,0,1-.3359.5459,1.3858,1.3858,0,0,1-.48.3243,1.6846,1.6846,0,0,1-.5581.12v.0723a1.856,1.856,0,0,1,.5937.1079,1.7579,1.7579,0,0,1,.5884.3423,1.88,1.88,0,0,1,.45.6,2.0428,2.0428,0,0,1,.18.9062,2.6963,2.6963,0,0,1-.1621.9419,2.3679,2.3679,0,0,1-.45.7622,2.1023,2.1023,0,0,1-.6836.51,2.0083,2.0083,0,0,1-.8643.186h-4.248Zm1.584,3.4922h1.956a.9208.9208,0,0,0,.6719-.2344.8693.8693,0,0,0,.24-.6538V33.75a.87.87,0,0,0-.24-.6538.9208.9208,0,0,0-.6719-.2344h-1.956Zm0,3.54h2.208a1,1,0,0,0,.708-.2339.879.879,0,0,0,.2519-.6777V37.23a.9.9,0,0,0-.2519-.6841.9866.9866,0,0,0-.708-.24h-2.208Z"/><path d="M374.9722,33.8813h-.0484l-.6479,1.332-1.7158,3.168-1.7159-3.168-.6479-1.332h-.0484v6.0122h-1.5v-8.376h1.7881l2.148,4.0918h.0478l2.1241-4.0918h1.7168v8.376h-1.5Z"/><path d="M383.9727,36.1015l-1.1172,1.32v2.4722h-1.584v-8.376h1.584v4.128h.06l1.1875-1.5718,2.0762-2.5562h1.8242l-2.916,3.4922,3.1562,4.8838h-1.8847Z"/><path d="M391.5439,40.0376a3.1255,3.1255,0,0,1-1.2412-.2339,2.5651,2.5651,0,0,1-.9248-.66,2.9446,2.9446,0,0,1-.582-1.0322,4.65,4.65,0,0,1-.0059-2.7056,2.9373,2.9373,0,0,1,.5694-1.0263,2.5307,2.5307,0,0,1,.9121-.66,3.0488,3.0488,0,0,1,1.2246-.2344,2.97,2.97,0,0,1,1.2715.2525,2.4551,2.4551,0,0,1,.8886.6835,2.9311,2.9311,0,0,1,.5215,1.002,4.1471,4.1471,0,0,1,.1739,1.2183v.5039h-4.1641V37.3a1.533,1.533,0,0,0,.3848,1.09,1.4854,1.4854,0,0,0,1.14.4111,1.7008,1.7008,0,0,0,.9424-.2383,2.6877,2.6877,0,0,0,.6543-.6079l.8281.9268a2.586,2.586,0,0,1-1.0508.8486A3.6546,3.6546,0,0,1,391.5439,40.0376Zm-.0244-5.4a1.23,1.23,0,0,0-.9716.4077,1.5406,1.5406,0,0,0-.36,1.0561v.0962h2.5684v-.1084a1.6378,1.6378,0,0,0-.3184-1.05A1.0989,1.0989,0,0,0,391.52,34.6377Z"/><path d="M399.4766,33.6294h1.4394l-2.5195,7.38a3.1416,3.1416,0,0,1-.2705.5821,1.4518,1.4518,0,0,1-.3545.4018,1.3268,1.3268,0,0,1-.4912.228,2.8064,2.8064,0,0,1-.6729.0718h-.9238V41.0576h1.1289l.2871-.8745-2.2441-6.5537H396.38l1.0928,3.3051.4072,1.5806h.0722l.4327-1.5806Z"/><path d="M404.8516,39.8935v-8.376h3.7675a2.7611,2.7611,0,0,1,1.0391.1861,2.2046,2.2046,0,0,1,.7852.5278,2.2477,2.2477,0,0,1,.4921.8223,3.42,3.42,0,0,1,0,2.1176,2.2526,2.2526,0,0,1-.4921.8165,2.2111,2.2111,0,0,1-.7852.5278,2.7631,2.7631,0,0,1-1.0391.186h-2.1836v3.1919Zm1.5839-4.56h2.04a1.0139,1.0139,0,0,0,.72-.2461.9121.9121,0,0,0,.2637-.7017v-.5522a.8934.8934,0,0,0-.2637-.6958,1.0287,1.0287,0,0,0-.72-.24h-2.04Z"/><path d="M412.3281,39.8935V33.6294h1.5352v1.2963h.0605a1.9607,1.9607,0,0,1,.1856-.4863,1.4845,1.4845,0,0,1,.33-.4141,1.5736,1.5736,0,0,1,.4863-.2875,1.8149,1.8149,0,0,1,.6543-.1084h.3359v1.4521h-.4805a2.4094,2.4094,0,0,0-1.1757.228.7929.7929,0,0,0-.3965.7442v3.84Z"/><path d="M419.4678,40.0376a3.0433,3.0433,0,0,1-1.2061-.2281,2.5017,2.5017,0,0,1-.9121-.66,3.0284,3.0284,0,0,1-.582-1.0381,4.2334,4.2334,0,0,1-.2041-1.3618,4.18,4.18,0,0,1,.2041-1.356,2.9755,2.9755,0,0,1,.582-1.0259,2.5412,2.5412,0,0,1,.9121-.6543,3.045,3.045,0,0,1,1.2061-.228,3.0881,3.0881,0,0,1,1.2119.228,2.53,2.53,0,0,1,.918.6543,2.9755,2.9755,0,0,1,.582,1.0259,4.2075,4.2075,0,0,1,.2041,1.356,4.2611,4.2611,0,0,1-.2041,1.3618,3.0284,3.0284,0,0,1-.582,1.0381,2.4906,2.4906,0,0,1-.918.66A3.0863,3.0863,0,0,1,419.4678,40.0376Zm0-1.2359a1.2517,1.2517,0,0,0,.96-.3721,1.5416,1.5416,0,0,0,.3477-1.0922V36.1733a1.5217,1.5217,0,0,0-.3477-1.08,1.2521,1.2521,0,0,0-.96-.3721,1.2361,1.2361,0,0,0-.9483.3721,1.5222,1.5222,0,0,0-.3476,1.08v1.1641A1.542,1.542,0,0,0,418.52,38.43,1.2357,1.2357,0,0,0,419.4678,38.8017Z"/><path d="M425.6484,39.8935a1.637,1.637,0,0,1-1.207-.4131,1.595,1.595,0,0,1-.4141-1.1792V34.8657h-.9238V33.6294h.4805a.5732.5732,0,0,0,.4736-.1617.7851.7851,0,0,0,.126-.4863V31.9135h1.38v1.7159h1.2842v1.2363h-1.2842v3.792h1.1885v1.2358Z"/><path d="M430.6641,40.0376a3.1267,3.1267,0,0,1-1.2422-.2339,2.5694,2.5694,0,0,1-.9239-.66,2.9461,2.9461,0,0,1-.582-1.0322,4.6267,4.6267,0,0,1-.0058-2.7056,2.92,2.92,0,0,1,.5693-1.0263,2.5221,2.5221,0,0,1,.9121-.66,3.048,3.048,0,0,1,1.2236-.2344,2.9774,2.9774,0,0,1,1.2725.2525,2.4518,2.4518,0,0,1,.8877.6835,2.9541,2.9541,0,0,1,.5225,1.002,4.1471,4.1471,0,0,1,.1738,1.2183v.5039h-4.1641V37.3a1.5325,1.5325,0,0,0,.3838,1.09,1.4879,1.4879,0,0,0,1.1406.4111,1.6973,1.6973,0,0,0,.9414-.2383,2.668,2.668,0,0,0,.6543-.6079l.8282.9268a2.5741,2.5741,0,0,1-1.0508.8486A3.6506,3.6506,0,0,1,430.6641,40.0376Zm-.0245-5.4a1.23,1.23,0,0,0-.9716.4077,1.5358,1.5358,0,0,0-.36,1.0561v.0962h2.5674v-.1084a1.6433,1.6433,0,0,0-.3174-1.05A1.1013,1.1013,0,0,0,430.64,34.6377Z"/><path d="M437.2988,40.0376a3.1565,3.1565,0,0,1-1.2353-.2281,2.38,2.38,0,0,1-.9063-.66,2.9684,2.9684,0,0,1-.5576-1.0381,4.47,4.47,0,0,1-.1924-1.3618,4.4133,4.4133,0,0,1,.1924-1.356,2.9153,2.9153,0,0,1,.5576-1.0259,2.4152,2.4152,0,0,1,.9063-.6543,3.1583,3.1583,0,0,1,1.2353-.228,2.7244,2.7244,0,0,1,1.5664.42,2.36,2.36,0,0,1,.8946,1.1636l-1.26.5644a1.3146,1.3146,0,0,0-.4023-.6542,1.1709,1.1709,0,0,0-.7989-.2579,1.1467,1.1467,0,0,0-.9648.4078,1.6848,1.6848,0,0,0-.3184,1.0683v1.14a1.6559,1.6559,0,0,0,.3184,1.062,1.1533,1.1533,0,0,0,.9648.4023,1.1967,1.1967,0,0,0,.8526-.2822,1.9182,1.9182,0,0,0,.4677-.7022l1.1758.564a2.4521,2.4521,0,0,1-.9472,1.2422A2.78,2.78,0,0,1,437.2988,40.0376Z"/><path d="M442.94,39.8935a1.6362,1.6362,0,0,1-1.2061-.4131,1.5909,1.5909,0,0,1-.4141-1.1792V34.8657h-.9248V33.6294h.4805a.5742.5742,0,0,0,.4746-.1617.7854.7854,0,0,0,.125-.4863V31.9135h1.3809v1.7159h1.2832v1.2363h-1.2832v3.792h1.1875v1.2358Z"/><path d="M429.5938,74.7861h-1.0079V66.41h3.336a2.3432,2.3432,0,0,1,1.7226.6118,2.3741,2.3741,0,0,1,.6172,1.7642,2.54,2.54,0,0,1-.4258,1.5181,2.0372,2.0372,0,0,1-1.2539.7861l1.92,3.6958h-1.14l-1.8115-3.6h-1.957Zm2.3281-4.4639a1.2974,1.2974,0,0,0,.93-.312,1.1608,1.1608,0,0,0,.33-.8882v-.624a1.16,1.16,0,0,0-.33-.8877,1.2974,1.2974,0,0,0-.93-.312h-2.3281v3.0239Z"/><path d="M438.33,74.93a2.7894,2.7894,0,0,1-1.14-.228,2.4527,2.4527,0,0,1-.8818-.6538,3.077,3.077,0,0,1-.57-1.02,4.4694,4.4694,0,0,1,0-2.67,3.0675,3.0675,0,0,1,.57-1.0259,2.4527,2.4527,0,0,1,.8818-.6538,2.7894,2.7894,0,0,1,1.14-.228,2.7555,2.7555,0,0,1,1.1347.228,2.5266,2.5266,0,0,1,.8809.6538,3.0121,3.0121,0,0,1,.5762,1.0259,4.4694,4.4694,0,0,1,0,2.67,3.0211,3.0211,0,0,1-.5762,1.02,2.5266,2.5266,0,0,1-.8809.6538A2.7555,2.7555,0,0,1,438.33,74.93Zm0-.852a1.7455,1.7455,0,0,0,1.2715-.48,1.9613,1.9613,0,0,0,.4922-1.4639v-.8881a1.9613,1.9613,0,0,0-.4922-1.4639,1.9241,1.9241,0,0,0-2.543,0,1.9613,1.9613,0,0,0-.4922,1.4639v.8881a1.9613,1.9613,0,0,0,.4922,1.4639A1.7452,1.7452,0,0,0,438.33,74.0781Z"/><path d="M445.0508,74.93a2.7933,2.7933,0,0,1-1.1406-.228,2.4617,2.4617,0,0,1-.8819-.6538,3.0594,3.0594,0,0,1-.5693-1.02,4.4486,4.4486,0,0,1,0-2.67,3.05,3.05,0,0,1,.5693-1.0259,2.4617,2.4617,0,0,1,.8819-.6538,2.7933,2.7933,0,0,1,1.1406-.228,2.7513,2.7513,0,0,1,1.1338.228,2.5307,2.5307,0,0,1,.8818.6538,3.0271,3.0271,0,0,1,.5762,1.0259,4.49,4.49,0,0,1,0,2.67,3.0363,3.0363,0,0,1-.5762,1.02,2.5307,2.5307,0,0,1-.8818.6538A2.7513,2.7513,0,0,1,445.0508,74.93Zm0-.852a1.7455,1.7455,0,0,0,1.2715-.48,1.9613,1.9613,0,0,0,.4922-1.4639v-.8881a1.9613,1.9613,0,0,0-.4922-1.4639,1.9254,1.9254,0,0,0-2.544,0,1.961,1.961,0,0,0-.4912,1.4639v.8881a1.961,1.961,0,0,0,.4912,1.4639A1.7461,1.7461,0,0,0,445.0508,74.0781Z"/><path d="M450.7988,74.7861a.9831.9831,0,0,1-.7627-.2813,1.0476,1.0476,0,0,1-.2578-.7363V69.4462h-1.0205v-.852h.5762a.564.564,0,0,0,.4258-.126.6535.6535,0,0,0,.1142-.438V66.8779h.8643v1.7163h1.3555v.852h-1.3555V73.934h1.26v.8521Z"/><path d="M456.4746,65.9062h.959v5.6279h.0488l.9473-1.0561,1.7519-1.8838h1.1641l-2.291,2.4478,2.5195,3.7441H460.41L458.3574,71.63l-.9238.9478v2.208h-.959Z"/><path d="M464.9219,74.93a2.7772,2.7772,0,0,1-1.1455-.228,2.4651,2.4651,0,0,1-.876-.6538,3.016,3.016,0,0,1-.5645-1.02,4.6188,4.6188,0,0,1,0-2.67A3.0076,3.0076,0,0,1,462.9,69.332a2.4651,2.4651,0,0,1,.876-.6538,2.7772,2.7772,0,0,1,1.1455-.228,2.6348,2.6348,0,0,1,1.1162.227,2.4822,2.4822,0,0,1,.8408.6279,2.8048,2.8048,0,0,1,.5332.9507,3.7518,3.7518,0,0,1,.1856,1.208v.4541h-4.4512v.2881a2.0964,2.0964,0,0,0,.126.7383,1.7459,1.7459,0,0,0,.36.5937,1.6424,1.6424,0,0,0,.5752.396,1.9741,1.9741,0,0,0,.7744.1441,1.8793,1.8793,0,0,0,1.0254-.2759,1.8057,1.8057,0,0,0,.6777-.792l.6846.4951a2.3847,2.3847,0,0,1-.9365,1.0323A2.82,2.82,0,0,1,464.9219,74.93Zm0-5.6762a1.8226,1.8226,0,0,0-.72.1377,1.6229,1.6229,0,0,0-.5576.3872,1.8144,1.8144,0,0,0-.3662.59,2.0261,2.0261,0,0,0-.1318.7456v.0835h3.42v-.1313a1.8846,1.8846,0,0,0-.45-1.3179A1.5357,1.5357,0,0,0,464.9219,69.2539Z"/><path d="M472.9375,68.5942h.9492l-2.7724,7.6318a3.388,3.388,0,0,1-.2159.4619.9026.9026,0,0,1-.2636.294,1.0592,1.0592,0,0,1-.3907.1562,2.9038,2.9038,0,0,1-.57.0479h-.4922v-.8521h.9727l.4678-1.3178-2.3155-6.4219h.959l1.4883,4.2036.2881,1.0064h.06l.3359-1.0064Z"/><line class="cls-7" x1="80" y1="17.0942" x2="80" y2="382.0942"/><path d="M95.8184,29.1386V27.8667h1.104V22.0346h-1.104V20.7627h3.8037v1.2719H98.5063v5.8321h1.1158v1.2719Z"/><path d="M101.2417,20.7627h3.876a2.6329,2.6329,0,0,1,.93.1557,2.0528,2.0528,0,0,1,.7021.4321,1.7936,1.7936,0,0,1,.438.6783,2.5133,2.5133,0,0,1,.15.8818,2.28,2.28,0,0,1-.126.81,1.5835,1.5835,0,0,1-.3359.5459,1.3869,1.3869,0,0,1-.48.3242,1.6821,1.6821,0,0,1-.5581.12v.0723a1.856,1.856,0,0,1,.5937.1079,1.7579,1.7579,0,0,1,.5884.3423,1.88,1.88,0,0,1,.45.6,2.0431,2.0431,0,0,1,.18.9062,2.6959,2.6959,0,0,1-.1621.9419,2.3679,2.3679,0,0,1-.45.7622,2.1023,2.1023,0,0,1-.6836.51,2.0083,2.0083,0,0,1-.8643.186h-4.248Zm1.584,3.4921h1.956a.9212.9212,0,0,0,.6719-.2343.87.87,0,0,0,.24-.6538v-.3721a.87.87,0,0,0-.24-.6538.9208.9208,0,0,0-.6719-.2344h-1.956Zm0,3.54h2.208a1,1,0,0,0,.708-.2339.879.879,0,0,0,.252-.6777v-.4082a.9.9,0,0,0-.252-.6841.9866.9866,0,0,0-.708-.24h-2.208Z"/><path d="M115.522,23.1264h-.0484l-.6479,1.3321L113.11,27.6264l-1.7159-3.1679-.6479-1.3321h-.0483v6.0122h-1.5V20.7627h1.788l2.148,4.0918h.0478l2.1241-4.0918h1.7163v8.3759h-1.5Z"/><path d="M125.0737,29.2827a3.9412,3.9412,0,0,1-1.4936-.27,2.994,2.994,0,0,1-1.14-.81,3.6655,3.6655,0,0,1-.726-1.3379,6.1683,6.1683,0,0,1-.252-1.854,6.4069,6.4069,0,0,1,.252-1.8779,3.8357,3.8357,0,0,1,.726-1.38,3.0834,3.0834,0,0,1,1.14-.8457,3.7277,3.7277,0,0,1,1.4936-.2881,3.3913,3.3913,0,0,1,1.8721.48,3.2977,3.2977,0,0,1,1.188,1.4521l-1.356.72a1.9064,1.9064,0,0,0-.5879-.9058,1.684,1.684,0,0,0-1.1162-.3423,1.7728,1.7728,0,0,0-1.41.6,2.4776,2.4776,0,0,0-.522,1.68v1.32a2.4264,2.4264,0,0,0,.522,1.6743,1.7993,1.7993,0,0,0,1.41.5821,1.72,1.72,0,0,0,1.1582-.3843,2.2121,2.2121,0,0,0,.6538-.9478l1.2842.7559a3.6894,3.6894,0,0,1-1.2119,1.458A3.2382,3.2382,0,0,1,125.0737,29.2827Z"/><path d="M130.9658,29.1386a1.5285,1.5285,0,0,1-1.164-.396,1.5673,1.5673,0,0,1-.3716-1.1162V20.2587h1.5356v7.6441h.8281v1.2358Z"/><path d="M135.4419,29.2827a3.0454,3.0454,0,0,1-1.2061-.2281,2.4984,2.4984,0,0,1-.9121-.66,3.02,3.02,0,0,1-.582-1.0381,4.2472,4.2472,0,0,1-.2041-1.3618,4.1939,4.1939,0,0,1,.2041-1.356,2.9661,2.9661,0,0,1,.582-1.0258,2.5354,2.5354,0,0,1,.9121-.6543,3.0454,3.0454,0,0,1,1.2061-.2281,3.09,3.09,0,0,1,1.2119.2281,2.5231,2.5231,0,0,1,.918.6543,2.9661,2.9661,0,0,1,.582,1.0258,4.2048,4.2048,0,0,1,.2041,1.356,4.2583,4.2583,0,0,1-.2041,1.3618,3.02,3.02,0,0,1-.582,1.0381,2.4865,2.4865,0,0,1-.918.66A3.09,3.09,0,0,1,135.4419,29.2827Zm0-1.2359a1.2509,1.2509,0,0,0,.96-.372,1.5447,1.5447,0,0,0,.3481-1.0923V25.4184a1.5246,1.5246,0,0,0-.3481-1.08,1.2509,1.2509,0,0,0-.96-.372,1.2349,1.2349,0,0,0-.9482.372,1.524,1.524,0,0,0-.3477,1.08v1.1641a1.5441,1.5441,0,0,0,.3477,1.0923A1.2349,1.2349,0,0,0,135.4419,28.0468Z"/><path d="M143.4575,28.0947h-.06a2.0318,2.0318,0,0,1-.2217.45,1.64,1.64,0,0,1-.3482.3784,1.5922,1.5922,0,0,1-.5039.2637,2.188,2.188,0,0,1-.6782.0962,1.8035,1.8035,0,0,1-1.4878-.6363,2.8077,2.8077,0,0,1-.5161-1.812v-3.96h1.5361v3.8042a1.65,1.65,0,0,0,.252.99.9324.9324,0,0,0,.8042.3423,1.7122,1.7122,0,0,0,.45-.06,1.1409,1.1409,0,0,0,.39-.186,1.0346,1.0346,0,0,0,.2759-.312.8539.8539,0,0,0,.1079-.438v-4.14h1.5362v6.2641h-1.5362Z"/><path d="M150.6572,28.0947h-.06a1.6016,1.6016,0,0,1-.6358.8638,1.8694,1.8694,0,0,1-1.0923.3242,2.1213,2.1213,0,0,1-1.8178-.8521,4.0438,4.0438,0,0,1-.63-2.436,3.9932,3.9932,0,0,1,.63-2.418,2.1283,2.1283,0,0,1,1.8178-.8462,1.8977,1.8977,0,0,1,1.0923.3184,1.5733,1.5733,0,0,1,.6358.8579h.06v-3.648h1.5362v8.88h-1.5362Zm-1.2959-.084a1.5549,1.5549,0,0,0,.9239-.2642.87.87,0,0,0,.372-.7558V24.9985a.8677.8677,0,0,0-.372-.7319,1.5076,1.5076,0,0,0-.9239-.2759,1.2431,1.2431,0,0,0-.9658.4018,1.534,1.534,0,0,0-.3662,1.0743v1.08a1.5118,1.5118,0,0,0,.3662,1.0679A1.2517,1.2517,0,0,0,149.3613,28.0107Z"/><rect class="cls-2" x="339.5" y="216.5942" width="275" height="173"/><path d="M362.6924,235.354H359.2v3.539h-1.584v-8.375H359.2V233.95h3.4922V230.518h1.584v8.375h-1.584Z"/><path d="M369.9883,232.6294h1.44l-2.52,7.3808a3.2016,3.2016,0,0,1-.27.582,1.4615,1.4615,0,0,1-.354.4014,1.32,1.32,0,0,1-.4917.2275,2.7505,2.7505,0,0,1-.6724.0723h-.9238v-1.2363h1.1279l.2881-.874-2.2441-6.5537h1.5239l1.0923,3.3046.4077,1.5811h.0723l.4321-1.5811Z"/><path d="M372.436,232.6294h1.5357v1.0322h.0483a1.5762,1.5762,0,0,1,.6358-.8584,1.9044,1.9044,0,0,1,1.0922-.3184,2.1429,2.1429,0,0,1,1.83.8467,3.9929,3.9929,0,0,1,.63,2.418,4.0484,4.0484,0,0,1-.63,2.4365,2.1341,2.1341,0,0,1-1.83.8516,1.8392,1.8392,0,0,1-1.0864-.3243,1.6748,1.6748,0,0,1-.6416-.8632h-.0483v3.4433H372.436Zm2.82,5.1367a1.2758,1.2758,0,0,0,.9726-.3965,1.5,1.5,0,0,0,.3711-1.0684v-1.08a1.5252,1.5252,0,0,0-.3711-1.0742,1.2661,1.2661,0,0,0-.9726-.4013,1.4783,1.4783,0,0,0-.918.2763.871.871,0,0,0-.3662.7315v1.9922a.8749.8749,0,0,0,.3662.7558A1.5236,1.5236,0,0,0,375.2559,237.7661Z"/><path d="M382.168,239.0376a3.1245,3.1245,0,0,1-1.2422-.2344,2.5648,2.5648,0,0,1-.9238-.66,2.95,2.95,0,0,1-.5821-1.0312,4.65,4.65,0,0,1-.0058-2.7061,2.9418,2.9418,0,0,1,.57-1.0263,2.534,2.534,0,0,1,.9121-.66,3.0412,3.0412,0,0,1,1.2236-.2344,2.973,2.973,0,0,1,1.2725.253,2.4551,2.4551,0,0,1,.8877.6835,2.9878,2.9878,0,0,1,.5224,1.002,4.1738,4.1738,0,0,1,.1739,1.2178v.5039h-4.1641V236.3a1.5306,1.5306,0,0,0,.3838,1.0908,1.4868,1.4868,0,0,0,1.14.41,1.6908,1.6908,0,0,0,.9414-.2383,2.6657,2.6657,0,0,0,.6543-.6074l.8282.9268a2.575,2.575,0,0,1-1.05.8486A3.6582,3.6582,0,0,1,382.168,239.0376Zm-.0235-5.4a1.2338,1.2338,0,0,0-.9726.4082,1.535,1.535,0,0,0-.3594,1.0566v.0957H383.38v-.1084a1.6482,1.6482,0,0,0-.3174-1.05A1.1045,1.1045,0,0,0,382.1445,233.6372Z"/><path d="M386.332,238.893v-6.2636h1.5352v1.2968h.06a1.9915,1.9915,0,0,1,.1856-.4863,1.481,1.481,0,0,1,.33-.4141,1.5785,1.5785,0,0,1,.4863-.288,1.8149,1.8149,0,0,1,.6543-.1084h.3359v1.4521h-.48a2.416,2.416,0,0,0-1.1758.2275.7939.7939,0,0,0-.3965.7442v3.84Z"/><path d="M393.9756,238.893v-8.375h3.7685a2.7506,2.7506,0,0,1,1.0371.1856,2.2082,2.2082,0,0,1,.7872.5273,2.2962,2.2962,0,0,1,.4912.8223,3.424,3.424,0,0,1,0,2.1181,2.2887,2.2887,0,0,1-.4912.8165,2.2237,2.2237,0,0,1-.7872.5283,2.7723,2.7723,0,0,1-1.0371.1855H395.56v3.1914Zm1.584-4.56h2.04a1.0163,1.0163,0,0,0,.7207-.2461.9111.9111,0,0,0,.2637-.7022v-.5517a.8945.8945,0,0,0-.2637-.6963,1.0311,1.0311,0,0,0-.7207-.24h-2.04Z"/><path d="M401.4512,238.893v-6.2636h1.5361v1.2968h.06a2.0314,2.0314,0,0,1,.1865-.4863,1.481,1.481,0,0,1,.33-.4141,1.5618,1.5618,0,0,1,.4853-.288,1.8191,1.8191,0,0,1,.6543-.1084h.336v1.4521h-.48a2.4209,2.4209,0,0,0-1.1768.2275.7932.7932,0,0,0-.3955.7442v3.84Z"/><path d="M408.5918,239.0376a3.0384,3.0384,0,0,1-1.2061-.2286,2.4783,2.4783,0,0,1-.9121-.66,2.9982,2.9982,0,0,1-.582-1.0371,4.2665,4.2665,0,0,1-.2041-1.3623,4.2129,4.2129,0,0,1,.2041-1.3565,2.9618,2.9618,0,0,1,.582-1.0254,2.5335,2.5335,0,0,1,.9121-.6543,3.04,3.04,0,0,1,1.2061-.2285,3.0855,3.0855,0,0,1,1.2119.2285,2.5212,2.5212,0,0,1,.918.6543,2.9618,2.9618,0,0,1,.582,1.0254,4.21,4.21,0,0,1,.2041,1.3565,4.2637,4.2637,0,0,1-.2041,1.3623,2.9982,2.9982,0,0,1-.582,1.0371,2.4668,2.4668,0,0,1-.918.66A3.0837,3.0837,0,0,1,408.5918,239.0376Zm0-1.2364a1.2485,1.2485,0,0,0,.96-.3711,1.5489,1.5489,0,0,0,.3486-1.0927v-1.1641a1.5255,1.5255,0,0,0-.3486-1.0791,1.25,1.25,0,0,0-.96-.3731,1.2345,1.2345,0,0,0-.9482.3731,1.5248,1.5248,0,0,0-.3477,1.0791v1.1641a1.5482,1.5482,0,0,0,.3477,1.0927A1.2333,1.2333,0,0,0,408.5918,237.8012Z"/><path d="M414.7715,238.893a1.6333,1.6333,0,0,1-1.2051-.4121,1.5893,1.5893,0,0,1-.4141-1.18v-3.4355h-.9248v-1.2363h.4795a.5724.5724,0,0,0,.4746-.1622.7821.7821,0,0,0,.126-.4863v-1.0674h1.38v1.7159h1.2842v1.2363h-1.2842v3.792h1.1885v1.2353Z"/><path d="M419.7871,239.0376a3.1233,3.1233,0,0,1-1.2412-.2344,2.56,2.56,0,0,1-.9248-.66,2.95,2.95,0,0,1-.582-1.0312,4.6715,4.6715,0,0,1-.0059-2.7061,2.9594,2.9594,0,0,1,.57-1.0263,2.5435,2.5435,0,0,1,.9121-.66,3.0427,3.0427,0,0,1,1.2246-.2344,2.9652,2.9652,0,0,1,1.2715.253,2.4587,2.4587,0,0,1,.8887.6835,2.9681,2.9681,0,0,1,.5215,1.002,4.1771,4.1771,0,0,1,.1738,1.2178v.5039h-4.1641V236.3a1.5312,1.5312,0,0,0,.3848,1.0908,1.4848,1.4848,0,0,0,1.1387.41,1.6948,1.6948,0,0,0,.9424-.2383,2.6854,2.6854,0,0,0,.6543-.6074l.8281.9268a2.5882,2.5882,0,0,1-1.05.8486A3.6629,3.6629,0,0,1,419.7871,239.0376Zm-.0234-5.4a1.234,1.234,0,0,0-.9727.4082,1.54,1.54,0,0,0-.3594,1.0566v.0957H421v-.1084a1.6421,1.6421,0,0,0-.3184-1.05A1.1017,1.1017,0,0,0,419.7637,233.6372Z"/><path d="M426.4238,239.0376a3.1427,3.1427,0,0,1-1.2363-.2286,2.3727,2.3727,0,0,1-.9063-.66,2.9565,2.9565,0,0,1-.5576-1.0371,4.5063,4.5063,0,0,1-.1924-1.3623,4.45,4.45,0,0,1,.1924-1.3565,2.919,2.919,0,0,1,.5576-1.0254,2.4231,2.4231,0,0,1,.9063-.6543,3.1445,3.1445,0,0,1,1.2363-.2285,2.7259,2.7259,0,0,1,1.5655.4209,2.3557,2.3557,0,0,1,.8935,1.1631l-1.26.5645a1.31,1.31,0,0,0-.4013-.6543,1.1681,1.1681,0,0,0-.7979-.2579,1.1536,1.1536,0,0,0-.9668.4083,1.6975,1.6975,0,0,0-.3174,1.0683v1.14a1.6659,1.6659,0,0,0,.3174,1.0615,1.1585,1.1585,0,0,0,.9668.4023,1.1993,1.1993,0,0,0,.8516-.2812,1.9444,1.9444,0,0,0,.4687-.7031l1.1758.5644a2.4607,2.4607,0,0,1-.9482,1.2422A2.7846,2.7846,0,0,1,426.4238,239.0376Z"/><path d="M432.0635,238.893a1.6344,1.6344,0,0,1-1.2061-.4121,1.5933,1.5933,0,0,1-.414-1.18v-3.4355H429.52v-1.2363h.48a.5718.5718,0,0,0,.4737-.1622.7825.7825,0,0,0,.1269-.4863v-1.0674h1.3789v1.7159h1.2852v1.2363h-1.2852v3.792h1.19v1.2353Z"/><path d="M437.5234,230.518h3.0479a3.9886,3.9886,0,0,1,1.4814.2637,3.0248,3.0248,0,0,1,1.1407.7852,3.6072,3.6072,0,0,1,.7324,1.3085,6.6248,6.6248,0,0,1,0,3.66,3.6077,3.6077,0,0,1-.7324,1.3086,3.0248,3.0248,0,0,1-1.1407.7852,3.9906,3.9906,0,0,1-1.4814.2636h-3.0479Zm3.0479,6.9717a1.9047,1.9047,0,0,0,1.4092-.5225,2.1774,2.1774,0,0,0,.5224-1.6015v-1.32a2.1777,2.1777,0,0,0-.5224-1.6016,1.9047,1.9047,0,0,0-1.4092-.5225h-1.4639V237.49Z"/><path d="M445.791,230.518h3.876a2.6358,2.6358,0,0,1,.9307.1553,2.0355,2.0355,0,0,1,.7011.4326,1.7931,1.7931,0,0,1,.4385.6777,2.5138,2.5138,0,0,1,.1494.8819,2.275,2.275,0,0,1-.125.81,1.6005,1.6005,0,0,1-.3359.5468,1.3968,1.3968,0,0,1-.4805.3242,1.6916,1.6916,0,0,1-.5586.1192v.0723a1.8622,1.8622,0,0,1,.5938.1074,1.7562,1.7562,0,0,1,.5888.3428,1.8961,1.8961,0,0,1,.45.6,2.0544,2.0544,0,0,1,.18.9062,2.7148,2.7148,0,0,1-.1621.9424,2.3726,2.3726,0,0,1-.45.7617,2.1076,2.1076,0,0,1-.6836.51,2.0075,2.0075,0,0,1-.8642.1855H445.791Zm1.584,3.4922h1.9561a.9207.9207,0,0,0,.6718-.2344.8713.8713,0,0,0,.24-.6543v-.372a.8678.8678,0,0,0-.24-.6534.9211.9211,0,0,0-.6718-.2343H447.375Zm0,3.5391h2.208a1.001,1.001,0,0,0,.708-.2344.877.877,0,0,0,.252-.6777v-.4082a.9.9,0,0,0-.252-.6836.9854.9854,0,0,0-.708-.24h-2.208Z"/><path d="M458.26,238.893a1.0831,1.0831,0,0,1-.7989-.2929,1.3529,1.3529,0,0,1-.3652-.7872h-.0723a1.468,1.468,0,0,1-.6367.918,2.158,2.158,0,0,1-1.1875.3067,2.0332,2.0332,0,0,1-1.4765-.502,1.786,1.786,0,0,1-.5157-1.34,1.6223,1.6223,0,0,1,.6963-1.4414,3.5023,3.5023,0,0,1,1.9795-.4727h1.0684v-.4561a1.13,1.13,0,0,0-.2754-.8154,1.1822,1.1822,0,0,0-.8887-.2891,1.4728,1.4728,0,0,0-.87.2344,2.3128,2.3128,0,0,0-.5576.5586l-.9121-.8213a2.6665,2.6665,0,0,1,.9238-.8759,3.0472,3.0472,0,0,1,1.5234-.3321,2.8655,2.8655,0,0,1,1.9326.5752,2.0733,2.0733,0,0,1,.66,1.6524v2.9453h.624v1.2353Zm-2.545-.9717a1.623,1.623,0,0,0,.877-.2255.7414.7414,0,0,0,.3594-.668v-.8223h-.9844q-1.2,0-1.1992.7627v.2022a.6617.6617,0,0,0,.2461.5664A1.15,1.15,0,0,0,455.7148,237.9213Z"/><path d="M464.9668,238.893a1.0808,1.0808,0,0,1-.7979-.2929,1.3544,1.3544,0,0,1-.3662-.7872h-.0722a1.4665,1.4665,0,0,1-.6358.918,2.1592,2.1592,0,0,1-1.1885.3067,2.0323,2.0323,0,0,1-1.4755-.502,1.7828,1.7828,0,0,1-.5166-1.34,1.6207,1.6207,0,0,1,.6972-1.4414,3.4981,3.4981,0,0,1,1.9795-.4727h1.0674v-.4561a1.13,1.13,0,0,0-.2754-.8154,1.1807,1.1807,0,0,0-.8887-.2891,1.47,1.47,0,0,0-.8691.2344,2.3011,2.3011,0,0,0-.5586.5586l-.9121-.8213a2.6752,2.6752,0,0,1,.9238-.8759,3.0487,3.0487,0,0,1,1.5244-.3321,2.866,2.866,0,0,1,1.9327.5752,2.0768,2.0768,0,0,1,.66,1.6524v2.9453h.6231v1.2353Zm-2.5439-.9717a1.6193,1.6193,0,0,0,.8759-.2255.7394.7394,0,0,0,.3594-.668v-.8223h-.9834q-1.2,0-1.2.7627v.2022a.6617.6617,0,0,0,.2461.5664A1.1541,1.1541,0,0,0,462.4229,237.9213Z"/><path d="M469.7666,239.0376a3.9838,3.9838,0,0,1-1.83-.3848,4.24,4.24,0,0,1-1.29-1.01l1.0683-1.0332a3.057,3.057,0,0,0,.9659.7617,2.647,2.647,0,0,0,1.1826.2618,1.6709,1.6709,0,0,0,1.1035-.3155,1.0577,1.0577,0,0,0,.3721-.8506.9648.9648,0,0,0-.24-.68,1.62,1.62,0,0,0-.8994-.3809l-.793-.1191q-2.5077-.3956-2.5078-2.44a2.4027,2.4027,0,0,1,.211-1.02,2.1543,2.1543,0,0,1,.6054-.7813,2.8316,2.8316,0,0,1,.9541-.499,4.2752,4.2752,0,0,1,1.2657-.1738,4.078,4.078,0,0,1,1.6562.3125,3.2654,3.2654,0,0,1,1.2119.9258l-1.08,1.0224a2.4753,2.4753,0,0,0-.7559-.6181,2.3409,2.3409,0,0,0-1.1162-.2383,1.7048,1.7048,0,0,0-1.0264.2558.8461.8461,0,0,0-.3418.7188.8548.8548,0,0,0,.2764.7031,1.9432,1.9432,0,0,0,.8877.3321l.78.1445a3.58,3.58,0,0,1,1.8779.8105,2.1521,2.1521,0,0,1,.6055,1.628,2.7182,2.7182,0,0,1-.209,1.0869,2.3713,2.3713,0,0,1-.6123.8418,2.7954,2.7954,0,0,1-.9844.5459A4.2693,4.2693,0,0,1,469.7666,239.0376Z"/><line class="cls-8" x1="374.5" y1="285.5942" x2="570.5" y2="285.5942"/><line class="cls-9" x1="571.5" y1="272.5942" x2="571.5" y2="308.2885"/><polygon points="568.508 307.413 571.5 312.594 574.492 307.413 568.508 307.413"/><line class="cls-9" x1="374.5" y1="285.5942" x2="374.5" y2="313.2885"/><polygon points="371.508 312.413 374.5 317.594 377.492 312.413 371.508 312.413"/><line class="cls-9" x1="473.5" y1="285.5942" x2="473.5" y2="313.2885"/><polygon points="470.508 312.413 473.5 317.594 476.492 312.413 470.508 312.413"/><path d="M346.7354,370.0463a12.088,12.088,0,0,1,2.0029-.1562,3.3207,3.3207,0,0,1,2.2666.6719,2.1728,2.1728,0,0,1,.7075,1.69,2.38,2.38,0,0,1-.6235,1.7275,3.3487,3.3487,0,0,1-2.4707.8877,3.6135,3.6135,0,0,1-.8394-.0722v3.2382h-1.0434Zm1.0434,3.8975a3.4652,3.4652,0,0,0,.8633.084c1.2593,0,2.0268-.6113,2.0268-1.7266,0-1.0674-.7553-1.584-1.9067-1.584a4.3849,4.3849,0,0,0-.9834.084Z"/><path d="M352.8911,374.04c0-.6836-.0122-1.27-.0478-1.81h.9233l.0361,1.14h.0479a1.7406,1.7406,0,0,1,1.6069-1.2715,1.124,1.124,0,0,1,.3.0362v.9951a1.5669,1.5669,0,0,0-.36-.0362,1.4808,1.4808,0,0,0-1.4155,1.3555,2.973,2.973,0,0,0-.0478.4912v3.0947h-1.0435Z"/><path d="M358.0381,370.5981a.6536.6536,0,0,1-1.3071,0,.6433.6433,0,0,1,.66-.66A.6268.6268,0,0,1,358.0381,370.5981Zm-1.1753,7.4355V372.229h1.0557v5.8046Z"/><path d="M359.6709,373.8c0-.6-.0117-1.0918-.0479-1.5713h.9234l.0478.9355h.0362a2.0007,2.0007,0,0,1,1.8227-1.0674,1.7162,1.7162,0,0,1,1.6436,1.1631h.0234a2.4023,2.4023,0,0,1,.6485-.7558,1.9808,1.9808,0,0,1,1.2832-.4073c.7675,0,1.9062.5039,1.9062,2.5186v3.4179h-1.0312v-3.2861c0-1.1152-.4073-1.7871-1.2588-1.7871a1.3676,1.3676,0,0,0-1.2481.96,1.7358,1.7358,0,0,0-.084.5273v3.5859h-1.0312v-3.4785c0-.9228-.4072-1.5947-1.2109-1.5947a1.4417,1.4417,0,0,0-1.3077,1.0557,1.4627,1.4627,0,0,0-.084.5156v3.5019h-1.0312Z"/><path d="M372.8936,378.0336l-.084-.7314h-.0362a2.1614,2.1614,0,0,1-1.7754.8633,1.6534,1.6534,0,0,1-1.7744-1.667c0-1.4033,1.2471-2.1709,3.49-2.1592V374.22a1.1967,1.1967,0,0,0-1.3194-1.3438,2.8958,2.8958,0,0,0-1.5117.4317l-.2392-.6953a3.6016,3.6016,0,0,1,1.9062-.5157c1.7754,0,2.207,1.211,2.207,2.374v2.1709a8.2434,8.2434,0,0,0,.0957,1.3916Zm-.1563-2.9619c-1.1514-.0244-2.458.18-2.458,1.3067a.9339.9339,0,0,0,.9951,1.0078,1.4436,1.4436,0,0,0,1.4033-.9717,1.09,1.09,0,0,0,.06-.3359Z"/><path d="M375.4639,374.04c0-.6836-.0127-1.27-.0489-1.81h.9239l.0361,1.14h.0479a1.7406,1.7406,0,0,1,1.6074-1.2715,1.1176,1.1176,0,0,1,.3.0362v.9951a1.5654,1.5654,0,0,0-.36-.0362,1.481,1.481,0,0,0-1.415,1.3555,3.0162,3.0162,0,0,0-.0479.4912v3.0947h-1.0429Z"/><path d="M380.0713,372.229l1.27,3.43c.1318.3838.2764.84.3721,1.1875h.0244c.1074-.3476.2275-.791.3711-1.2109l1.1513-3.4062h1.1163l-1.584,4.1377c-.7549,1.9912-1.2705,3.0107-1.99,3.6337a2.851,2.851,0,0,1-1.2959.6836l-.2636-.8877a2.803,2.803,0,0,0,.9238-.5156,3.2,3.2,0,0,0,.8877-1.1748.7689.7689,0,0,0,.084-.2519.923.923,0,0,0-.0723-.2764L378.92,372.229Z"/><path d="M387.8838,373.8c0-.6-.0127-1.0918-.0488-1.5713h.9355l.0606.9589h.0234a2.1351,2.1351,0,0,1,1.9189-1.0908c.8037,0,2.0508.4795,2.0508,2.4707v3.4658H391.77v-3.3457c0-.9355-.3476-1.7158-1.3437-1.7158a1.5,1.5,0,0,0-1.4151,1.08,1.5189,1.5189,0,0,0-.0722.4912v3.49h-1.0547Z"/><path d="M399.7969,375.0835a2.8371,2.8371,0,0,1-2.8907,3.082,2.76,2.76,0,0,1-2.7822-2.9863,2.834,2.834,0,0,1,2.878-3.0821A2.7491,2.7491,0,0,1,399.7969,375.0835Zm-4.6055.0595c0,1.2715.7315,2.2315,1.7627,2.2315,1.0078,0,1.7627-.9483,1.7627-2.2549,0-.9834-.4912-2.2315-1.7383-2.2315S395.1914,374.04,395.1914,375.143Z"/><path d="M406.1445,369.518v7.0166c0,.5157.0117,1.1035.0479,1.499h-.9473l-.0478-1.0078h-.0244a2.145,2.145,0,0,1-1.9786,1.14c-1.4033,0-2.4824-1.1875-2.4824-2.95-.0127-1.9307,1.1875-3.1182,2.6026-3.1182a1.94,1.94,0,0,1,1.7509.8877h.0235V369.518Zm-1.0556,5.0733a1.8533,1.8533,0,0,0-.0479-.4434,1.5516,1.5516,0,0,0-1.5234-1.2236c-1.0908,0-1.7383.96-1.7383,2.2431,0,1.1748.5752,2.1465,1.7148,2.1465a1.5857,1.5857,0,0,0,1.5469-1.2588,1.8328,1.8328,0,0,0,.0479-.456Z"/><path d="M408.4863,375.3227a1.86,1.86,0,0,0,1.9912,2.0156,3.8186,3.8186,0,0,0,1.6075-.3l.18.7549a4.7,4.7,0,0,1-1.9306.36,2.696,2.696,0,0,1-2.8545-2.9268c0-1.751,1.0312-3.13,2.7226-3.13a2.4593,2.4593,0,0,1,2.3985,2.7344,4.0165,4.0165,0,0,1-.0361.4912Zm3.0948-.7549a1.5037,1.5037,0,0,0-1.4629-1.7158,1.75,1.75,0,0,0-1.6192,1.7158Z"/><path d="M433.5918,376.7622a3.6955,3.6955,0,0,0,1.8711.5283c1.0674,0,1.6914-.5645,1.6914-1.38,0-.7559-.4316-1.1875-1.5234-1.6064-1.3194-.4678-2.1348-1.1514-2.1348-2.2911a2.3271,2.3271,0,0,1,2.6143-2.1953,3.6729,3.6729,0,0,1,1.7871.3965l-.2881.8516a3.2083,3.2083,0,0,0-1.5352-.3838c-1.1035,0-1.5234.6592-1.5234,1.2109,0,.7559.4922,1.127,1.6074,1.56,1.3672.5273,2.0625,1.1865,2.0625,2.374,0,1.2481-.9228,2.3272-2.83,2.3272a4.1834,4.1834,0,0,1-2.0625-.5157Z"/><path d="M440.2754,375.3227a1.86,1.86,0,0,0,1.99,2.0156,3.8146,3.8146,0,0,0,1.6074-.3l.18.7549a4.6923,4.6923,0,0,1-1.9306.36,2.696,2.696,0,0,1-2.8545-2.9268c0-1.751,1.0312-3.13,2.7226-3.13a2.4593,2.4593,0,0,1,2.3985,2.7344,4.0557,4.0557,0,0,1-.0352.4912Zm3.0937-.7549a1.5029,1.5029,0,0,0-1.4629-1.7158,1.75,1.75,0,0,0-1.6191,1.7158Z"/><path d="M449.8369,377.8178a3.8907,3.8907,0,0,1-1.667.336,2.7582,2.7582,0,0,1-2.8906-2.9629,2.9493,2.9493,0,0,1,3.1182-3.0821,3.5377,3.5377,0,0,1,1.4638.3l-.24.8155a2.452,2.452,0,0,0-1.2236-.2754,2.1882,2.1882,0,0,0-.0362,4.3652,2.9977,2.9977,0,0,0,1.2959-.2881Z"/><path d="M456.2568,375.0835a2.8371,2.8371,0,0,1-2.8906,3.082,2.76,2.76,0,0,1-2.7822-2.9863,2.8346,2.8346,0,0,1,2.8779-3.0821A2.7491,2.7491,0,0,1,456.2568,375.0835Zm-4.6054.0595c0,1.2715.7314,2.2315,1.7627,2.2315,1.0078,0,1.7627-.9483,1.7627-2.2549,0-.9834-.4913-2.2315-1.7383-2.2315S451.6514,374.04,451.6514,375.143Z"/><path d="M457.5918,373.8c0-.6-.0127-1.0918-.0488-1.5713h.9355l.0606.9589h.0234a2.1351,2.1351,0,0,1,1.9189-1.0908c.8038,0,2.0508.4795,2.0508,2.4707v3.4658h-1.0547v-3.3457c0-.9355-.3486-1.7158-1.3437-1.7158a1.5,1.5,0,0,0-1.415,1.08,1.5161,1.5161,0,0,0-.0723.4912v3.49h-1.0547Z"/><path d="M469.2646,369.518v7.0166c0,.5157.0118,1.1035.0479,1.499h-.9473l-.0478-1.0078h-.0244a2.145,2.145,0,0,1-1.9785,1.14c-1.4034,0-2.4825-1.1875-2.4825-2.95-.0127-1.9307,1.1875-3.1182,2.6026-3.1182a1.94,1.94,0,0,1,1.7509.8877h.0235V369.518Zm-1.0556,5.0733a1.8483,1.8483,0,0,0-.0479-.4434,1.5512,1.5512,0,0,0-1.5224-1.2236c-1.0918,0-1.7393.96-1.7393,2.2431,0,1.1748.5752,2.1465,1.7149,2.1465a1.5856,1.5856,0,0,0,1.5468-1.2588,1.8281,1.8281,0,0,0,.0479-.456Z"/><path d="M474.2334,378.0336l-.084-.7314h-.0361a2.1615,2.1615,0,0,1-1.7754.8633,1.6534,1.6534,0,0,1-1.7744-1.667c0-1.4033,1.247-2.1709,3.49-2.1592V374.22a1.1967,1.1967,0,0,0-1.3193-1.3438,2.8955,2.8955,0,0,0-1.5117.4317l-.2393-.6953a3.6018,3.6018,0,0,1,1.9062-.5157c1.7754,0,2.2071,1.211,2.2071,2.374v2.1709a8.2434,8.2434,0,0,0,.0957,1.3916Zm-.1563-2.9619c-1.1513-.0244-2.458.18-2.458,1.3067a.9339.9339,0,0,0,.9952,1.0078,1.4438,1.4438,0,0,0,1.4033-.9717,1.0925,1.0925,0,0,0,.0595-.3359Z"/><path d="M476.8037,374.04c0-.6836-.0127-1.27-.0488-1.81h.9238l.0361,1.14h.0479a1.7407,1.7407,0,0,1,1.6074-1.2715,1.1176,1.1176,0,0,1,.3.0362v.9951a1.5651,1.5651,0,0,0-.36-.0362,1.4811,1.4811,0,0,0-1.4151,1.3555,3.028,3.028,0,0,0-.0478.4912v3.0947h-1.043Z"/><path d="M481.4111,372.229l1.2705,3.43c.1319.3838.2764.84.3721,1.1875h.0244c.1074-.3476.2276-.791.3711-1.2109l1.1514-3.4062h1.1162l-1.584,4.1377c-.7549,1.9912-1.27,3.0107-1.99,3.6337a2.8515,2.8515,0,0,1-1.2959.6836l-.2637-.8877a2.8021,2.8021,0,0,0,.9238-.5156,3.2,3.2,0,0,0,.8877-1.1748.7665.7665,0,0,0,.084-.2519.923.923,0,0,0-.0723-.2764L480.26,372.229Z"/><path d="M489.2236,373.8c0-.6-.0127-1.0918-.0488-1.5713h.9356l.06.9589h.0234a2.1352,2.1352,0,0,1,1.919-1.0908c.8037,0,2.0508.4795,2.0508,2.4707v3.4658h-1.0547v-3.3457c0-.9355-.3477-1.7158-1.3438-1.7158a1.5,1.5,0,0,0-1.415,1.08,1.5161,1.5161,0,0,0-.0723.4912v3.49h-1.0547Z"/><path d="M501.1367,375.0835a2.8371,2.8371,0,0,1-2.8906,3.082,2.76,2.76,0,0,1-2.7822-2.9863,2.834,2.834,0,0,1,2.8779-3.0821A2.7491,2.7491,0,0,1,501.1367,375.0835Zm-4.6055.0595c0,1.2715.7315,2.2315,1.7627,2.2315,1.0079,0,1.7627-.9483,1.7627-2.2549,0-.9834-.4912-2.2315-1.7382-2.2315S496.5312,374.04,496.5312,375.143Z"/><path d="M507.4844,369.518v7.0166c0,.5157.0117,1.1035.0478,1.499h-.9472l-.0479-1.0078h-.0244a2.1449,2.1449,0,0,1-1.9785,1.14c-1.4033,0-2.4824-1.1875-2.4824-2.95-.0127-1.9307,1.1875-3.1182,2.6025-3.1182a1.94,1.94,0,0,1,1.751.8877h.0234V369.518Zm-1.0557,5.0733a1.8532,1.8532,0,0,0-.0478-.4434,1.5517,1.5517,0,0,0-1.5235-1.2236c-1.0908,0-1.7383.96-1.7383,2.2431,0,1.1748.5752,2.1465,1.7149,2.1465a1.5857,1.5857,0,0,0,1.5469-1.2588,1.8329,1.8329,0,0,0,.0478-.456Z"/><path d="M509.8262,375.3227a1.86,1.86,0,0,0,1.9912,2.0156,3.8184,3.8184,0,0,0,1.6074-.3l.18.7549a4.7,4.7,0,0,1-1.9307.36,2.696,2.696,0,0,1-2.8545-2.9268c0-1.751,1.0313-3.13,2.7227-3.13a2.4593,2.4593,0,0,1,2.3984,2.7344,4.0165,4.0165,0,0,1-.0361.4912Zm3.0947-.7549a1.5037,1.5037,0,0,0-1.4629-1.7158,1.75,1.75,0,0,0-1.6191,1.7158Z"/><path d="M529.5918,376.7622a3.6955,3.6955,0,0,0,1.8711.5283c1.0674,0,1.6914-.5645,1.6914-1.38,0-.7559-.4316-1.1875-1.5234-1.6064-1.3194-.4678-2.1348-1.1514-2.1348-2.2911a2.3271,2.3271,0,0,1,2.6143-2.1953,3.6729,3.6729,0,0,1,1.7871.3965l-.2881.8516a3.2083,3.2083,0,0,0-1.5352-.3838c-1.1035,0-1.5234.6592-1.5234,1.2109,0,.7559.4922,1.127,1.6074,1.56,1.3672.5273,2.0625,1.1865,2.0625,2.374,0,1.2481-.9228,2.3272-2.83,2.3272a4.1834,4.1834,0,0,1-2.0625-.5157Z"/><path d="M536.2754,375.3227a1.86,1.86,0,0,0,1.99,2.0156,3.8146,3.8146,0,0,0,1.6074-.3l.18.7549a4.6923,4.6923,0,0,1-1.9306.36,2.696,2.696,0,0,1-2.8545-2.9268c0-1.751,1.0312-3.13,2.7226-3.13a2.4593,2.4593,0,0,1,2.3985,2.7344,4.0557,4.0557,0,0,1-.0352.4912Zm3.0937-.7549a1.5029,1.5029,0,0,0-1.4629-1.7158,1.75,1.75,0,0,0-1.6191,1.7158Z"/><path d="M545.8369,377.8178a3.8907,3.8907,0,0,1-1.667.336,2.7582,2.7582,0,0,1-2.8906-2.9629,2.9493,2.9493,0,0,1,3.1182-3.0821,3.5377,3.5377,0,0,1,1.4638.3l-.24.8155a2.452,2.452,0,0,0-1.2236-.2754,2.1882,2.1882,0,0,0-.0362,4.3652,2.9977,2.9977,0,0,0,1.2959-.2881Z"/><path d="M552.2568,375.0835a2.8371,2.8371,0,0,1-2.8906,3.082,2.76,2.76,0,0,1-2.7822-2.9863,2.8346,2.8346,0,0,1,2.8779-3.0821A2.7491,2.7491,0,0,1,552.2568,375.0835Zm-4.6054.0595c0,1.2715.7314,2.2315,1.7627,2.2315,1.0078,0,1.7627-.9483,1.7627-2.2549,0-.9834-.4913-2.2315-1.7383-2.2315S547.6514,374.04,547.6514,375.143Z"/><path d="M553.5918,373.8c0-.6-.0127-1.0918-.0488-1.5713h.9355l.0606.9589h.0234a2.1351,2.1351,0,0,1,1.9189-1.0908c.8038,0,2.0508.4795,2.0508,2.4707v3.4658h-1.0547v-3.3457c0-.9355-.3486-1.7158-1.3437-1.7158a1.5,1.5,0,0,0-1.415,1.08,1.5161,1.5161,0,0,0-.0723.4912v3.49h-1.0547Z"/><path d="M565.2646,369.518v7.0166c0,.5157.0118,1.1035.0479,1.499h-.9473l-.0478-1.0078h-.0244a2.145,2.145,0,0,1-1.9785,1.14c-1.4034,0-2.4825-1.1875-2.4825-2.95-.0127-1.9307,1.1875-3.1182,2.6026-3.1182a1.94,1.94,0,0,1,1.7509.8877h.0235V369.518Zm-1.0556,5.0733a1.8483,1.8483,0,0,0-.0479-.4434,1.5512,1.5512,0,0,0-1.5224-1.2236c-1.0918,0-1.7393.96-1.7393,2.2431,0,1.1748.5752,2.1465,1.7149,2.1465a1.5856,1.5856,0,0,0,1.5468-1.2588,1.8281,1.8281,0,0,0,.0479-.456Z"/><path d="M570.2334,378.0336l-.084-.7314h-.0361a2.1615,2.1615,0,0,1-1.7754.8633,1.6534,1.6534,0,0,1-1.7744-1.667c0-1.4033,1.247-2.1709,3.49-2.1592V374.22a1.1967,1.1967,0,0,0-1.3193-1.3438,2.8955,2.8955,0,0,0-1.5117.4317l-.2393-.6953a3.6018,3.6018,0,0,1,1.9062-.5157c1.7754,0,2.2071,1.211,2.2071,2.374v2.1709a8.2434,8.2434,0,0,0,.0957,1.3916Zm-.1563-2.9619c-1.1513-.0244-2.458.18-2.458,1.3067a.9339.9339,0,0,0,.9952,1.0078,1.4438,1.4438,0,0,0,1.4033-.9717,1.0925,1.0925,0,0,0,.0595-.3359Z"/><path d="M572.8037,374.04c0-.6836-.0127-1.27-.0488-1.81h.9238l.0361,1.14h.0479a1.7407,1.7407,0,0,1,1.6074-1.2715,1.1176,1.1176,0,0,1,.3.0362v.9951a1.5651,1.5651,0,0,0-.36-.0362,1.4811,1.4811,0,0,0-1.4151,1.3555,3.028,3.028,0,0,0-.0478.4912v3.0947h-1.043Z"/><path d="M577.4111,372.229l1.27,3.43c.1319.3838.2764.84.3721,1.1875h.0244c.1074-.3476.2276-.791.3711-1.2109l1.1514-3.4062h1.1162l-1.584,4.1377c-.7549,1.9912-1.27,3.0107-1.99,3.6337a2.8515,2.8515,0,0,1-1.2959.6836l-.2637-.8877a2.8021,2.8021,0,0,0,.9238-.5156,3.2,3.2,0,0,0,.8877-1.1748.7665.7665,0,0,0,.084-.2519.923.923,0,0,0-.0723-.2764L576.26,372.229Z"/><path d="M585.2236,373.8c0-.6-.0127-1.0918-.0488-1.5713h.9356l.06.9589h.0234a2.1352,2.1352,0,0,1,1.919-1.0908c.8037,0,2.0508.4795,2.0508,2.4707v3.4658h-1.0547v-3.3457c0-.9355-.3477-1.7158-1.3438-1.7158a1.5,1.5,0,0,0-1.415,1.08,1.5161,1.5161,0,0,0-.0723.4912v3.49h-1.0547Z"/><path d="M597.1367,375.0835a2.8371,2.8371,0,0,1-2.8906,3.082,2.76,2.76,0,0,1-2.7822-2.9863,2.834,2.834,0,0,1,2.8779-3.0821A2.7491,2.7491,0,0,1,597.1367,375.0835Zm-4.6055.0595c0,1.2715.7315,2.2315,1.7627,2.2315,1.0079,0,1.7627-.9483,1.7627-2.2549,0-.9834-.4912-2.2315-1.7382-2.2315S592.5312,374.04,592.5312,375.143Z"/><path d="M603.4844,369.518v7.0166c0,.5157.0117,1.1035.0478,1.499h-.9472l-.0479-1.0078h-.0244a2.1449,2.1449,0,0,1-1.9785,1.14c-1.4033,0-2.4824-1.1875-2.4824-2.95-.0127-1.9307,1.1875-3.1182,2.6025-3.1182a1.94,1.94,0,0,1,1.751.8877h.0234V369.518Zm-1.0557,5.0733a1.8532,1.8532,0,0,0-.0478-.4434,1.5517,1.5517,0,0,0-1.5235-1.2236c-1.0908,0-1.7383.96-1.7383,2.2431,0,1.1748.5752,2.1465,1.7149,2.1465a1.5857,1.5857,0,0,0,1.5469-1.2588,1.8329,1.8329,0,0,0,.0478-.456Z"/><path d="M605.8262,375.3227a1.86,1.86,0,0,0,1.9912,2.0156,3.8184,3.8184,0,0,0,1.6074-.3l.18.7549a4.7,4.7,0,0,1-1.9307.36,2.696,2.696,0,0,1-2.8545-2.9268c0-1.751,1.0313-3.13,2.7227-3.13a2.4593,2.4593,0,0,1,2.3984,2.7344,4.0165,4.0165,0,0,1-.0361.4912Zm3.0947-.7549a1.5037,1.5037,0,0,0-1.4629-1.7158,1.75,1.75,0,0,0-1.6191,1.7158Z"/></g><g id="Layer_4" data-name="Layer 4"><g id="key-3" data-name="key"><path class="cls-5" d="M574.49,240.5847a6.7989,6.7989,0,1,1-3.4946-3.038"/><circle cx="566.9847" cy="245.4427" r="1.4553"/><polyline class="cls-6" points="570.996 237.547 580.596 227.946 584.19 227.946 584.19 231.044 578.154 237.08 575.999 237.09 575.999 239.076 574.49 240.585"/></g><g id="key-4" data-name="key"><path class="cls-10" d="M572.2264,238.7324a6.7992,6.7992,0,1,1-3.4947-3.0379"/><circle cx="564.7209" cy="243.5905" r="1.4553"/><polyline class="cls-4" points="568.732 235.694 578.332 226.094 581.926 226.094 581.926 229.192 575.89 235.228 573.735 235.238 573.735 237.223 572.226 238.732"/></g><path d="M553.6953,265.0317l-1.1875-4.876h.6221l.5234,2.3477.4053,1.8232h.0137l.4541-1.8232.6152-2.3477h.67l.5938,2.3477.4541,1.8154h.0215l.4189-1.8154.5518-2.3477h.6005l-1.25,4.876h-.6494l-.6357-2.4307-.4473-1.7881h-.0136l-.462,1.7881-.6494,2.4307Z"/><path d="M559.1162,265.0317v-3.6045h.5586v.6641h.0352a1.0829,1.0829,0,0,1,.35-.461,1.0665,1.0665,0,0,1,.6914-.2031h.2168v.5586h-.3291a1.2594,1.2594,0,0,0-.709.1719.5029.5029,0,0,0-.2549.4287v2.4453Z"/><path d="M564.2705,265.0317a.5468.5468,0,0,1-.45-.168.829.829,0,0,1-.1709-.4189h-.0351a.9309.9309,0,0,1-.3916.5029,1.209,1.209,0,0,1-.6495.168,1.2611,1.2611,0,0,1-.8906-.294,1.0294,1.0294,0,0,1-.3174-.7959.9092.9092,0,0,1,.3731-.7822,1.9873,1.9873,0,0,1,1.1631-.2725h.7129v-.3564a.7812.7812,0,0,0-.21-.5869.8943.8943,0,0,0-.6426-.2022.9671.9671,0,0,0-.5478.1465,1.2093,1.2093,0,0,0-.3672.3916l-.335-.3144a1.2728,1.2728,0,0,1,.4678-.5,1.742,1.742,0,0,1,1.83.1152,1.1257,1.1257,0,0,1,.3633.8916v1.9795h.4121v.4961Zm-1.6064-.3916a1.4069,1.4069,0,0,0,.3847-.0488.935.935,0,0,0,.3-.14.68.68,0,0,0,.1953-.209.4974.4974,0,0,0,.07-.2588V263.39h-.74a1.3558,1.3558,0,0,0-.7021.14.4526.4526,0,0,0-.22.4053v.1465a.4882.4882,0,0,0,.1915.4121A.8379.8379,0,0,0,562.6641,264.64Z"/><path d="M565.3818,261.4272h.5586v.58h.0284a1.0136,1.0136,0,0,1,.4082-.501,1.2267,1.2267,0,0,1,.6464-.1631,1.3759,1.3759,0,0,1,.6075.1328,1.3336,1.3336,0,0,1,.4648.377,1.7337,1.7337,0,0,1,.293.5937,3.069,3.069,0,0,1,0,1.5655,1.7337,1.7337,0,0,1-.293.5937,1.3225,1.3225,0,0,1-.4648.377,1.3759,1.3759,0,0,1-.6075.1328,1.0912,1.0912,0,0,1-1.0546-.6641H565.94v1.9776h-.5586ZM566.87,264.62a.9631.9631,0,0,0,.7471-.2979,1.1168,1.1168,0,0,0,.2724-.7832V262.92a1.1146,1.1146,0,0,0-.2724-.7823.9606.9606,0,0,0-.7471-.2988,1.22,1.22,0,0,0-.36.0527,1.0134,1.0134,0,0,0-.2969.1436.6941.6941,0,0,0-.1992.2217.555.555,0,0,0-.0733.2773v1.3477a.65.65,0,0,0,.0733.3125.6872.6872,0,0,0,.1992.2314.9041.9041,0,0,0,.2969.1446A1.3217,1.3217,0,0,0,566.87,264.62Z"/><path d="M569.4326,261.4272h.5586v.58h.0283a1.0146,1.0146,0,0,1,.4082-.501,1.2273,1.2273,0,0,1,.6465-.1631,1.3752,1.3752,0,0,1,.6074.1328,1.333,1.333,0,0,1,.4649.377,1.7337,1.7337,0,0,1,.293.5937,3.069,3.069,0,0,1,0,1.5655,1.7337,1.7337,0,0,1-.293.5937,1.322,1.322,0,0,1-.4649.377,1.3752,1.3752,0,0,1-.6074.1328,1.0915,1.0915,0,0,1-1.0547-.6641h-.0283v1.9776h-.5586Zm1.4883,3.1924a.9631.9631,0,0,0,.7471-.2979,1.1168,1.1168,0,0,0,.2724-.7832V262.92a1.1146,1.1146,0,0,0-.2724-.7823.9606.9606,0,0,0-.7471-.2988,1.2207,1.2207,0,0,0-.36.0527,1.014,1.014,0,0,0-.2968.1436.6941.6941,0,0,0-.1992.2217.555.555,0,0,0-.0733.2773v1.3477a.65.65,0,0,0,.0733.3125.6872.6872,0,0,0,.1992.2314.9046.9046,0,0,0,.2968.1446A1.3229,1.3229,0,0,0,570.9209,264.62Z"/><path d="M574.84,265.1157a1.6227,1.6227,0,0,1-.6669-.1328,1.4528,1.4528,0,0,1-.5108-.3809,1.7563,1.7563,0,0,1-.3281-.5937,2.6773,2.6773,0,0,1,0-1.5538,1.7469,1.7469,0,0,1,.3281-.5976,1.4528,1.4528,0,0,1,.5108-.3809,1.6227,1.6227,0,0,1,.6669-.1328,1.5238,1.5238,0,0,1,.6495.1328,1.4488,1.4488,0,0,1,.4892.3653,1.6289,1.6289,0,0,1,.3106.5537,2.1776,2.1776,0,0,1,.1084.7031v.2637h-2.5918v.1679a1.2373,1.2373,0,0,0,.0732.43,1.0151,1.0151,0,0,0,.21.3457.9539.9539,0,0,0,.3349.2305,1.1554,1.1554,0,0,0,.45.084,1.0949,1.0949,0,0,0,.5977-.1611,1.0487,1.0487,0,0,0,.3945-.461l.3984.2891a1.39,1.39,0,0,1-.5449.6006A1.6424,1.6424,0,0,1,574.84,265.1157Zm0-3.3037a1.075,1.075,0,0,0-.42.0791.9586.9586,0,0,0-.3242.2256,1.057,1.057,0,0,0-.2129.3437,1.1792,1.1792,0,0,0-.0771.4346v.0478h1.9912v-.0761a1.0935,1.0935,0,0,0-.2627-.7666A.8913.8913,0,0,0,574.84,261.812Z"/><path d="M579.624,264.4516h-.0273a1.1,1.1,0,0,1-1.0547.6641,1.38,1.38,0,0,1-.6084-.1328,1.32,1.32,0,0,1-.4639-.377,1.735,1.735,0,0,1-.2939-.5937,3.0955,3.0955,0,0,1,0-1.5655,1.735,1.735,0,0,1,.2939-.5937,1.3315,1.3315,0,0,1,.4639-.377,1.38,1.38,0,0,1,.6084-.1328,1.2234,1.2234,0,0,1,.6455.1631,1.0163,1.0163,0,0,1,.4092.501h.0273v-2.1445h.56v5.1689h-.56Zm-.9287.168a1.31,1.31,0,0,0,.3594-.0488.8955.8955,0,0,0,.2969-.1446.6883.6883,0,0,0,.1992-.2314.6507.6507,0,0,0,.0732-.3125v-1.3477a.5559.5559,0,0,0-.0732-.2773.6952.6952,0,0,0-.1992-.2217,1.0025,1.0025,0,0,0-.2969-.1436,1.2092,1.2092,0,0,0-.3594-.0527.9606.9606,0,0,0-.7471.2988,1.1146,1.1146,0,0,0-.2724.7823v.6181a1.1168,1.1168,0,0,0,.2724.7832A.9631.9631,0,0,0,578.6953,264.62Z"/><path d="M583.0742,260.1557h1.6348a2.1305,2.1305,0,0,1,.8242.1543,1.6632,1.6632,0,0,1,.6318.457,2.0968,2.0968,0,0,1,.4024.7618,4.1314,4.1314,0,0,1,0,2.13,2.0806,2.0806,0,0,1-.4024.7618,1.6551,1.6551,0,0,1-.6318.458,2.13,2.13,0,0,1-.8242.1533h-1.6348Zm1.6348,4.3594a1.4667,1.4667,0,0,0,.5517-.1016,1.1826,1.1826,0,0,0,.4336-.2968,1.3667,1.3667,0,0,0,.2823-.4786,1.9171,1.9171,0,0,0,.1015-.6464v-.7959a1.9177,1.9177,0,0,0-.1015-.6465,1.3744,1.3744,0,0,0-.2823-.4785,1.1938,1.1938,0,0,0-.4336-.2969,1.4665,1.4665,0,0,0-.5517-.1006h-1.0479v3.8418Z"/><path d="M587.7617,265.0317v-4.876h2.9756v.5176h-2.3887v1.6338h2.2491v.5176h-2.2491v1.69h2.3887v.5166Z"/><path d="M593.1123,262.6362l-.6914.7676v1.6279h-.5869v-4.876h.5869v2.5918h.0215l.6982-.8457,1.4737-1.7461h.72l-1.8164,2.0889,1.9424,2.7871h-.7266Z"/><g id="lock"><g id="lock-2" data-name="lock"><rect class="cls-11" x="579.0673" y="245.711" width="4.0747" height="2.3284"/><path class="cls-5" d="M581.1046,252.6962v-1.63m-2.3284-3.8011v-2.9513a1.7868,1.7868,0,0,1,.0233-.3085,2.327,2.327,0,0,1,4.6336.3085v2.9513m0,0c-.0932-.0524-.1921-.1048-.2911-.1514a4.598,4.598,0,0,0-2.0374-.4715,4.8247,4.8247,0,0,0-1.0128.1106,4.65,4.65,0,0,0-1.0245.3609c-.099.0466-.198.099-.2911.1514a4.6569,4.6569,0,1,0,4.6569,0Z"/><circle cx="581.1046" cy="251.0653" r="0.6985"/></g></g><path class="cls-12" d="M562.32,236.5079c-1.8453-2.8931-2.538-5.2739-1.5891-6.2227,1.2864-1.2865,5.1923.4366,9.4475,3.9583q1.0827.8905,2.1829,1.9326c.2853.2678.5705.5472.8557.8324l.3667.3667c.6986.716,1.3564,1.4378,1.9617,2.1538a31.2711,31.2711,0,0,1,3.254,4.4764"/><path class="cls-12" d="M576.8087,249.5063a16.3959,16.3959,0,0,1-2.8931-1.4727"/><circle class="cls-13" cx="42.5524" cy="98.1441" r="6"/><path class="cls-13" d="M53.0524,114.1441v3h-21v-3a9.0265,9.0265,0,0,1,9-9h3A9.0265,9.0265,0,0,1,53.0524,114.1441Z"/></g><g id="Layer_1" data-name="Layer 1"><line class="cls-14" x1="71" y1="104.0942" x2="333.259" y2="104.0942"/><polygon class="cls-15" points="332.092 108.083 339 104.094 332.092 100.105 332.092 108.083"/><line class="cls-14" x1="477" y1="184.0942" x2="477" y2="207.3532"/><polygon class="cls-15" points="473.011 206.186 477 213.094 480.989 206.186 473.011 206.186"/><line class="cls-14" x1="45" y1="303.0942" x2="333.259" y2="303.0942"/><polygon class="cls-15" points="332.092 307.083 339 303.094 332.092 299.105 332.092 307.083"/><line class="cls-14" x1="45" y1="138.0942" x2="45" y2="303.0942"/><path class="cls-5" d="M374.0715,324.057c-10.5613,0-19.1235,3.1176-19.1235,6.9637s8.5622,6.965,19.1235,6.965,19.1247-3.1176,19.1247-6.965S384.6341,324.057,374.0715,324.057Zm0,10.8785c-8.6812,0-15.7176-2.0189-15.7176-4.51s7.0364-4.51,15.7176-4.51,15.7189,2.0189,15.7189,4.51S382.7527,334.9355,374.0715,334.9355Z"/><path class="cls-5" d="M382.6786,356.8982a50.5659,50.5659,0,0,1-8.6071.712c-8.736,0-16.1605-2.0388-18.8907-4.8814a3.5035,3.5035,0,0,0-1.1232,2.4077c0,4.0259,8.9608,7.2889,20.0139,7.2889a46.1491,46.1491,0,0,0,12.25-1.5264A12.6675,12.6675,0,0,1,382.6786,356.8982Z"/><path class="cls-5" d="M380.9876,350.6069a12.59,12.59,0,0,1,.1428-1.7968,51.9185,51.9185,0,0,1-7.0589.4726c-8.736,0-16.1605-2.0394-18.8907-4.8813a3.5029,3.5029,0,0,0-1.1232,2.4069c0,4.0259,8.9608,7.29,20.0139,7.29a51.9335,51.9335,0,0,0,7.2876-.5A12.5957,12.5957,0,0,1,380.9876,350.6069Z"/><path class="cls-5" d="M393.6067,337.9883c.1435,0,.2823.0165.4238.0212a3.77,3.77,0,0,0-1.0669-1.9356c-2.7309,2.8419-10.1554,4.8813-18.8921,4.8813s-16.1605-2.0394-18.8907-4.8813a3.503,3.503,0,0,0-1.1232,2.407c0,4.0265,8.9608,7.2895,20.0139,7.2895a51.1066,51.1066,0,0,0,8.1781-.6366A12.6078,12.6078,0,0,1,393.6067,337.9883Z"/><path class="cls-5" d="M395.2323,363.05A11.7671,11.7671,0,1,1,407,351.2824,11.78,11.78,0,0,1,395.2323,363.05Zm0-21.5033a9.7363,9.7363,0,1,0,9.7369,9.7362A9.7472,9.7472,0,0,0,395.2323,341.5462Z"/><path class="cls-5" d="M399.4327,353.4719a.8964.8964,0,1,0,0-1.7928h-.4158v-.281h.4158a.8967.8967,0,0,0,0-1.7934h-8.4722a.8967.8967,0,0,0,0,1.7934h.4158v.281h-.4158a.8964.8964,0,1,0,0,1.7928h.4158v.2816h-.4158a.8968.8968,0,0,0,0,1.7935h.4158v.2809h-.4158a.8968.8968,0,0,0,0,1.7936h8.4722a.8968.8968,0,0,0,0-1.7936h-.4158v-.2809h.4158a.8968.8968,0,0,0,0-1.7935h-.4158v-.2816Z"/><path class="cls-5" d="M392.1445,349.255v-2.5088a2.5374,2.5374,0,0,1,2.5345-2.5345h1.295a2.5384,2.5384,0,0,1,2.5352,2.5345v2.5088h.9434v-2.5088a3.482,3.482,0,0,0-3.4786-3.4785h-1.295a3.4823,3.4823,0,0,0-3.4785,3.4785v2.5088Z"/><path class="cls-5" d="M474.0715,324.057c-10.5613,0-19.1235,3.1176-19.1235,6.9637s8.5622,6.965,19.1235,6.965,19.1247-3.1176,19.1247-6.965S484.6341,324.057,474.0715,324.057Zm0,10.8785c-8.6812,0-15.7176-2.0189-15.7176-4.51s7.0364-4.51,15.7176-4.51,15.7189,2.0189,15.7189,4.51S482.7527,334.9355,474.0715,334.9355Z"/><path class="cls-5" d="M482.6786,356.8982a50.5659,50.5659,0,0,1-8.6071.712c-8.736,0-16.1605-2.0388-18.8907-4.8814a3.5035,3.5035,0,0,0-1.1232,2.4077c0,4.0259,8.9608,7.2889,20.0139,7.2889a46.1491,46.1491,0,0,0,12.25-1.5264A12.6675,12.6675,0,0,1,482.6786,356.8982Z"/><path class="cls-5" d="M480.9876,350.6069a12.59,12.59,0,0,1,.1428-1.7968,51.9185,51.9185,0,0,1-7.0589.4726c-8.736,0-16.1605-2.0394-18.8907-4.8813a3.5029,3.5029,0,0,0-1.1232,2.4069c0,4.0259,8.9608,7.29,20.0139,7.29a51.9335,51.9335,0,0,0,7.2876-.5A12.5957,12.5957,0,0,1,480.9876,350.6069Z"/><path class="cls-5" d="M493.6067,337.9883c.1435,0,.2823.0165.4238.0212a3.77,3.77,0,0,0-1.0669-1.9356c-2.7309,2.8419-10.1554,4.8813-18.8921,4.8813s-16.1605-2.0394-18.8907-4.8813a3.503,3.503,0,0,0-1.1232,2.407c0,4.0265,8.9608,7.2895,20.0139,7.2895a51.1066,51.1066,0,0,0,8.1781-.6366A12.6078,12.6078,0,0,1,493.6067,337.9883Z"/><path class="cls-5" d="M495.2323,363.05A11.7671,11.7671,0,1,1,507,351.2824,11.78,11.78,0,0,1,495.2323,363.05Zm0-21.5033a9.7363,9.7363,0,1,0,9.7369,9.7362A9.7472,9.7472,0,0,0,495.2323,341.5462Z"/><path class="cls-5" d="M499.4327,353.4719a.8964.8964,0,1,0,0-1.7928h-.4158v-.281h.4158a.8967.8967,0,0,0,0-1.7934h-8.4722a.8967.8967,0,0,0,0,1.7934h.4158v.281h-.4158a.8964.8964,0,1,0,0,1.7928h.4158v.2816h-.4158a.8968.8968,0,0,0,0,1.7935h.4158v.2809h-.4158a.8968.8968,0,0,0,0,1.7936h8.4722a.8968.8968,0,0,0,0-1.7936h-.4158v-.2809h.4158a.8968.8968,0,0,0,0-1.7935h-.4158v-.2816Z"/><path class="cls-5" d="M492.1445,349.255v-2.5088a2.5374,2.5374,0,0,1,2.5345-2.5345h1.295a2.5384,2.5384,0,0,1,2.5352,2.5345v2.5088h.9434v-2.5088a3.482,3.482,0,0,0-3.4786-3.4785h-1.295a3.4823,3.4823,0,0,0-3.4785,3.4785v2.5088Z"/><path class="cls-5" d="M571.0715,324.057c-10.5613,0-19.1235,3.1176-19.1235,6.9637s8.5622,6.965,19.1235,6.965,19.1247-3.1176,19.1247-6.965S581.6341,324.057,571.0715,324.057Zm0,10.8785c-8.6812,0-15.7176-2.0189-15.7176-4.51s7.0364-4.51,15.7176-4.51,15.7189,2.0189,15.7189,4.51S579.7527,334.9355,571.0715,334.9355Z"/><path class="cls-5" d="M579.6786,356.8982a50.5659,50.5659,0,0,1-8.6071.712c-8.736,0-16.1605-2.0388-18.8907-4.8814a3.5035,3.5035,0,0,0-1.1232,2.4077c0,4.0259,8.9608,7.2889,20.0139,7.2889a46.1491,46.1491,0,0,0,12.25-1.5264A12.6675,12.6675,0,0,1,579.6786,356.8982Z"/><path class="cls-5" d="M577.9876,350.6069a12.59,12.59,0,0,1,.1428-1.7968,51.9185,51.9185,0,0,1-7.0589.4726c-8.736,0-16.1605-2.0394-18.8907-4.8813a3.5029,3.5029,0,0,0-1.1232,2.4069c0,4.0259,8.9608,7.29,20.0139,7.29a51.9335,51.9335,0,0,0,7.2876-.5A12.5957,12.5957,0,0,1,577.9876,350.6069Z"/><path class="cls-5" d="M590.6067,337.9883c.1435,0,.2823.0165.4238.0212a3.77,3.77,0,0,0-1.0669-1.9356c-2.7309,2.8419-10.1554,4.8813-18.8921,4.8813s-16.1605-2.0394-18.8907-4.8813a3.503,3.503,0,0,0-1.1232,2.407c0,4.0265,8.9608,7.2895,20.0139,7.2895a51.1066,51.1066,0,0,0,8.1781-.6366A12.6078,12.6078,0,0,1,590.6067,337.9883Z"/><path class="cls-5" d="M592.2323,363.05A11.7671,11.7671,0,1,1,604,351.2824,11.78,11.78,0,0,1,592.2323,363.05Zm0-21.5033a9.7363,9.7363,0,1,0,9.7369,9.7362A9.7472,9.7472,0,0,0,592.2323,341.5462Z"/><path class="cls-5" d="M596.4327,353.4719a.8964.8964,0,1,0,0-1.7928h-.4158v-.281h.4158a.8967.8967,0,0,0,0-1.7934h-8.4722a.8967.8967,0,0,0,0,1.7934h.4158v.281h-.4158a.8964.8964,0,1,0,0,1.7928h.4158v.2816h-.4158a.8968.8968,0,0,0,0,1.7935h.4158v.2809h-.4158a.8968.8968,0,0,0,0,1.7936h8.4722a.8968.8968,0,0,0,0-1.7936h-.4158v-.2809h.4158a.8968.8968,0,0,0,0-1.7935h-.4158v-.2816Z"/><path class="cls-5" d="M589.1445,349.255v-2.5088a2.5374,2.5374,0,0,1,2.5345-2.5345h1.295a2.5384,2.5384,0,0,1,2.5352,2.5345v2.5088h.9434v-2.5088a3.482,3.482,0,0,0-3.4786-3.4785h-1.295a3.4823,3.4823,0,0,0-3.4785,3.4785v2.5088Z"/></g></svg>