<svg xmlns="http://www.w3.org/2000/svg" width="750" height="250" viewBox="0 0 750 250"><defs><style>.cls-1{fill:#fff;}.cls-11,.cls-2,.cls-3,.cls-4,.cls-9{fill:none;}.cls-2,.cls-3,.cls-4{stroke:#9fa5ad;}.cls-2,.cls-3,.cls-4,.cls-5,.cls-9{stroke-miterlimit:10;}.cls-3{stroke-dasharray:2.0051 2.0051;}.cls-4{stroke-dasharray:1.977 1.977;}.cls-5{fill:#f4f4f4;stroke-dasharray:2;}.cls-11,.cls-12,.cls-13,.cls-14,.cls-5,.cls-6,.cls-7,.cls-8{stroke:#000;}.cls-6{fill:#00bab6;}.cls-11,.cls-13,.cls-6,.cls-7,.cls-8{stroke-linecap:round;}.cls-11,.cls-12,.cls-13,.cls-14,.cls-6,.cls-7,.cls-8{stroke-linejoin:round;}.cls-12,.cls-15,.cls-7{fill:#87eded;}.cls-8{fill:#20d5d2;}.cls-9{stroke:#50565b;stroke-width:2px;}.cls-10{fill:#50565b;}.cls-13,.cls-14{fill:#b3e6ff;}</style></defs><title>wrapping-keys</title><g id="Layer_1" data-name="Layer 1"><rect class="cls-1" x="37" y="34.5942" width="597.5" height="174"/><polyline class="cls-2" points="634.5 207.594 634.5 208.594 633.5 208.594"/><line class="cls-3" x1="631.4949" y1="208.5942" x2="39.0025" y2="208.5942"/><polyline class="cls-2" points="38 208.594 37 208.594 37 207.594"/><line class="cls-4" x1="37" y1="205.6172" x2="37" y2="36.5827"/><polyline class="cls-2" points="37 35.594 37 34.594 38 34.594"/><line class="cls-3" x1="40.0051" y1="34.5942" x2="632.4975" y2="34.5942"/><polyline class="cls-2" points="633.5 34.594 634.5 34.594 634.5 35.594"/><line class="cls-4" x1="634.5" y1="37.5712" x2="634.5" y2="206.6057"/><rect class="cls-5" x="57.2723" y="68.5942" width="359.567" height="120"/><rect class="cls-5" x="576.5" y="68.5942" width="112" height="120"/><g id="gear"><path id="gear-2" data-name="gear" class="cls-6" d="M513.4187,123.1638l-.784,1.8747,1.8306,1.8307-2.7886,2.788-1.8254-1.8254-1.88.7714v2.5893H504.028v-2.5813l-1.8747-.784-1.8306,1.8306-2.788-2.788,1.8253-1.8253-.7713-1.88H496v-3.9433h2.5813l.784-1.8747-1.8306-1.8307,2.788-2.788,1.8253,1.8254,1.88-.7714v-2.5893h3.9433v2.5813l1.8747.784,1.8307-1.8306,2.7886,2.788-1.8253,1.8253.7713,1.88H516v3.9433ZM506,116.5258a4.6667,4.6667,0,1,0,4.6667,4.6667A4.6668,4.6668,0,0,0,506,116.5258Z"/></g><g id="gear-3" data-name="gear"><path id="gear-4" data-name="gear" class="cls-7" d="M502.4187,105.1638l-.784,1.8747,1.8306,1.8307-2.7886,2.788-1.8254-1.8254-1.88.7714v2.5893H493.028v-2.5813l-1.8747-.784-1.8306,1.8306-2.788-2.788,1.8253-1.8253-.7713-1.88H485v-3.9433h2.5813l.784-1.8747-1.8306-1.8307,2.788-2.788,1.8253,1.8254,1.88-.7714V93.1925h3.9433v2.5813l1.8747.784,1.8307-1.8306,2.7886,2.788L501.64,99.3405l.7713,1.88H505v3.9433ZM495,98.5258a4.6667,4.6667,0,1,0,4.6667,4.6667A4.6668,4.6668,0,0,0,495,98.5258Z"/></g><g id="gear-5" data-name="gear"><path id="gear-6" data-name="gear" class="cls-8" d="M524.4187,105.1638l-.784,1.8747,1.8306,1.8307-2.7886,2.788-1.8254-1.8254-1.88.7714v2.5893H515.028v-2.5813l-1.8747-.784-1.8306,1.8306-2.788-2.788,1.8253-1.8253-.7713-1.88H507v-3.9433h2.5813l.784-1.8747-1.8306-1.8307,2.788-2.788,1.8253,1.8254,1.88-.7714V93.1925h3.9433v2.5813l1.8747.784,1.8307-1.8306,2.7886,2.788L523.64,99.3405l.7713,1.88H527v3.9433ZM517,98.5258a4.6667,4.6667,0,1,0,4.6667,4.6667A4.6668,4.6668,0,0,0,517,98.5258Z"/></g><line class="cls-9" x1="421" y1="129.0942" x2="469.259" y2="129.0942"/><polygon class="cls-10" points="468.092 133.083 475 129.094 468.092 125.105 468.092 133.083"/><line class="cls-9" x1="537" y1="129.0942" x2="585.259" y2="129.0942"/><polygon class="cls-10" points="584.092 133.083 591 129.094 584.092 125.105 584.092 133.083"/><g id="add"><line class="cls-11" x1="230.5" y1="105.5942" x2="240.5" y2="105.5942"/><line class="cls-11" x1="235.5" y1="100.5942" x2="235.5" y2="110.5942"/></g></g><g id="key"><g id="key-2" data-name="key"><path class="cls-7" d="M143.04,109.13a11.68,11.68,0,1,1-.5547-7.9353"/><circle cx="128.022" cy="105.9145" r="2.5"/><polyline class="cls-12" points="142.486 101.195 165.809 101.195 170.175 105.561 166.412 109.323 151.748 109.323 149.119 106.718 146.707 109.13 143.04 109.13"/></g><g id="key-3" data-name="key"><path class="cls-7" d="M634.6371,117.7877a11.68,11.68,0,1,1-6.0035-5.2189"/><circle cx="621.7434" cy="126.1333" r="2.5"/><polyline class="cls-12" points="628.634 112.569 645.126 96.076 651.3 96.076 651.3 101.398 640.93 111.767 637.229 111.784 637.229 115.195 634.637 117.788"/></g><g id="key-4" data-name="key"><path class="cls-13" d="M317.54,109.13a11.68,11.68,0,1,1-.5547-7.9353"/><circle cx="302.522" cy="105.9145" r="2.5"/><polyline class="cls-14" points="316.986 101.195 340.309 101.195 344.675 105.561 340.912 109.323 326.248 109.323 323.619 106.718 321.207 109.13 317.54 109.13"/></g><g id="key-5" data-name="key"><path class="cls-13" d="M630.748,114.6057a11.68,11.68,0,1,1-6.0034-5.2189"/><circle cx="617.8543" cy="122.9514" r="2.5"/><polyline class="cls-14" points="624.745 109.387 641.237 92.894 647.411 92.894 647.411 98.216 637.041 108.585 633.34 108.602 633.34 112.013 630.748 114.606"/></g></g><g id="text"><path d="M61.3164,51.6015,60.2,52.9213v2.4722h-1.584v-8.376H60.2v4.128h.06l1.1879-1.5718,2.0762-2.5562h1.8237L62.4321,50.51l3.1563,4.8838H63.7041Z"/><path d="M68.8882,55.5376a3.1293,3.1293,0,0,1-1.2417-.2339,2.57,2.57,0,0,1-.9243-.66,2.9526,2.9526,0,0,1-.5821-1.0322,4.6487,4.6487,0,0,1-.0058-2.7056,2.938,2.938,0,0,1,.57-1.0263,2.5264,2.5264,0,0,1,.9121-.66,3.0453,3.0453,0,0,1,1.2241-.2344,2.9751,2.9751,0,0,1,1.272.2525,2.457,2.457,0,0,1,.8882.6835,2.9619,2.9619,0,0,1,.522,1.002,4.1638,4.1638,0,0,1,.1738,1.2183v.5039H67.5322V52.8a1.531,1.531,0,0,0,.3843,1.09,1.4856,1.4856,0,0,0,1.14.4111,1.6978,1.6978,0,0,0,.9418-.2383,2.6769,2.6769,0,0,0,.6543-.6079l.8282.9268a2.5791,2.5791,0,0,1-1.05.8486A3.6566,3.6566,0,0,1,68.8882,55.5376Zm-.0239-5.4a1.231,1.231,0,0,0-.9722.4077,1.5379,1.5379,0,0,0-.36,1.0561v.0962H70.1v-.1084a1.6435,1.6435,0,0,0-.3179-1.05A1.1006,1.1006,0,0,0,68.8643,50.1377Z"/><path d="M76.82,49.1294h1.44l-2.52,7.38a3.1679,3.1679,0,0,1-.27.5821,1.45,1.45,0,0,1-.354.4018,1.3359,1.3359,0,0,1-.4917.228,2.8021,2.8021,0,0,1-.6724.0718h-.9238V56.5576h1.1279l.2881-.8745L72.2,49.1294h1.5239l1.0923,3.3051.4077,1.5806h.0723l.4321-1.5806Z"/><path d="M82.1,55.3935V49.1294h1.5356v1.0439h.06a2.0347,2.0347,0,0,1,.5762-.84,1.6167,1.6167,0,0,1,1.104-.3482,1.9676,1.9676,0,0,1,1.1157.312,1.845,1.845,0,0,1,.6963.9483h.0239a1.7625,1.7625,0,0,1,.666-.8941,2.0607,2.0607,0,0,1,1.2539-.3662,1.7,1.7,0,0,1,1.4219.6362,2.8827,2.8827,0,0,1,.4981,1.8121v3.96H89.5161V51.5893q0-1.3432-1.0083-1.3437a1.454,1.454,0,0,0-.438.0659,1.1731,1.1731,0,0,0-.372.1919.9306.9306,0,0,0-.2579.312.9442.9442,0,0,0-.0961.438v4.14H85.8081V51.5893q0-1.3432-1.0083-1.3437a1.41,1.41,0,0,0-.4258.0659,1.1679,1.1679,0,0,0-.372.1919.9975.9975,0,0,0-.2642.312.8983.8983,0,0,0-.1021.438v4.14Z"/><path d="M97.3643,55.3935a1.0765,1.0765,0,0,1-.7979-.2939,1.3488,1.3488,0,0,1-.3662-.7862h-.0723a1.4694,1.4694,0,0,1-.6357.918,2.1682,2.1682,0,0,1-1.188.3062,2.0291,2.0291,0,0,1-1.4761-.5025,1.7832,1.7832,0,0,1-.5161-1.34,1.6226,1.6226,0,0,1,.6963-1.4414,3.5061,3.5061,0,0,1,1.98-.4722h1.0679v-.4561A1.1335,1.1335,0,0,0,95.78,50.51a1.1837,1.1837,0,0,0-.8882-.2881,1.4728,1.4728,0,0,0-.87.2339,2.3,2.3,0,0,0-.5576.5581l-.9122-.8208a2.6541,2.6541,0,0,1,.9239-.8755A3.0411,3.0411,0,0,1,95,48.9853a2.8642,2.8642,0,0,1,1.9321.5747,2.0736,2.0736,0,0,1,.66,1.6524v2.9453h.624v1.2358Zm-2.544-.9722a1.6152,1.6152,0,0,0,.876-.226.74.74,0,0,0,.36-.6675v-.8223h-.9839q-1.2,0-1.2.7627v.2027a.6613.6613,0,0,0,.2461.5659A1.1527,1.1527,0,0,0,94.82,54.4213Z"/><path d="M99.4639,55.3935V49.1294H101v1.0439h.06a2.0042,2.0042,0,0,1,.6059-.8457,1.75,1.75,0,0,1,1.146-.3423,1.8066,1.8066,0,0,1,1.4883.6362,2.8114,2.8114,0,0,1,.5161,1.8121v3.96H103.28V51.5893a1.7345,1.7345,0,0,0-.24-1.0078.9071.9071,0,0,0-.792-.3359,1.6115,1.6115,0,0,0-.462.0659,1.2977,1.2977,0,0,0-.396.1919.9968.9968,0,0,0-.2817.312.8541.8541,0,0,0-.1084.438v4.14Z"/><path d="M111.1279,55.3935A1.0764,1.0764,0,0,1,110.33,55.1a1.3488,1.3488,0,0,1-.3662-.7862h-.0723a1.4694,1.4694,0,0,1-.6357.918,2.1684,2.1684,0,0,1-1.188.3062,2.0288,2.0288,0,0,1-1.4761-.5025,1.7832,1.7832,0,0,1-.5161-1.34,1.6226,1.6226,0,0,1,.6963-1.4414,3.5059,3.5059,0,0,1,1.98-.4722H109.82v-.4561a1.1335,1.1335,0,0,0-.2759-.8159,1.1833,1.1833,0,0,0-.8881-.2881,1.4733,1.4733,0,0,0-.87.2339,2.3037,2.3037,0,0,0-.5576.5581l-.9121-.8208a2.6546,2.6546,0,0,1,.9238-.8755,3.0413,3.0413,0,0,1,1.524-.332,2.8642,2.8642,0,0,1,1.9321.5747,2.0739,2.0739,0,0,1,.66,1.6524v2.9453h.624v1.2358Zm-2.5439-.9722a1.6157,1.6157,0,0,0,.876-.226.74.74,0,0,0,.36-.6675v-.8223h-.9839q-1.2,0-1.2.7627v.2027a.6616.6616,0,0,0,.2461.5659A1.1533,1.1533,0,0,0,108.584,54.4213Z"/><path d="M118.88,55.9213a2.0647,2.0647,0,0,1-.1738.87,1.4794,1.4794,0,0,1-.57.63,3.0938,3.0938,0,0,1-1.02.3843,8.8809,8.8809,0,0,1-2.8677.03,3.2159,3.2159,0,0,1-.9062-.2881,1.2033,1.2033,0,0,1-.51-.4619,1.2413,1.2413,0,0,1-.1562-.624,1.111,1.111,0,0,1,.2939-.8218,1.445,1.445,0,0,1,.8223-.3779v-.1323a1.0182,1.0182,0,0,1-.5942-.3785,1.0857,1.0857,0,0,1-.21-.667.91.91,0,0,1,.0962-.4262.9956.9956,0,0,1,.2578-.3189,1.5936,1.5936,0,0,1,.3662-.2221,2.1824,2.1824,0,0,1,.4316-.1382V52.93a1.8769,1.8769,0,0,1-.8579-.7314A2.0711,2.0711,0,0,1,113,51.1079a1.9521,1.9521,0,0,1,.66-1.5406,2.8375,2.8375,0,0,1,1.9321-.582,4.5134,4.5134,0,0,1,.57.0361,2.5526,2.5526,0,0,1,.5225.12v-.2041a.7955.7955,0,0,1,.8877-.9122h.9721v1.1763h-1.332v.168a1.8162,1.8162,0,0,1,.7319.72,2.1107,2.1107,0,0,1,.24,1.02,1.9324,1.9324,0,0,1-.6543,1.5244,2.8551,2.8551,0,0,1-1.938.5757,3.7873,3.7873,0,0,1-.96-.1079,1.026,1.026,0,0,0-.312.2222.4754.4754,0,0,0-.1318.3418q0,.468.8159.4682h1.68a2.448,2.448,0,0,1,1.6738.4737A1.6855,1.6855,0,0,1,118.88,55.9213Zm-1.44.18a.5384.5384,0,0,0-.24-.4678,1.5032,1.5032,0,0,0-.8276-.1684h-2.1363a.7658.7658,0,0,0-.3242.6484.646.646,0,0,0,.3.564,1.895,1.895,0,0,0,1.02.2036H116a2.353,2.353,0,0,0,1.0977-.1919A.63.63,0,0,0,117.44,56.1015Zm-1.8481-3.9482q1.128,0,1.1279-.9541v-.2031q0-.9544-1.1279-.9546t-1.1279.9546v.2031Q114.4639,52.1535,115.5918,52.1533Z"/><path d="M122.2275,55.5376a3.13,3.13,0,0,1-1.2417-.2339,2.5718,2.5718,0,0,1-.9243-.66,2.9524,2.9524,0,0,1-.582-1.0322,4.65,4.65,0,0,1-.0059-2.7056,2.9382,2.9382,0,0,1,.57-1.0263,2.5264,2.5264,0,0,1,.9121-.66,3.0447,3.0447,0,0,1,1.2241-.2344,2.9751,2.9751,0,0,1,1.272.2525,2.4575,2.4575,0,0,1,.8881.6835,2.9584,2.9584,0,0,1,.522,1.002,4.1638,4.1638,0,0,1,.1738,1.2183v.5039h-4.164V52.8a1.5306,1.5306,0,0,0,.3843,1.09,1.4854,1.4854,0,0,0,1.14.4111,1.6979,1.6979,0,0,0,.9419-.2383,2.6787,2.6787,0,0,0,.6543-.6079l.8281.9268a2.5778,2.5778,0,0,1-1.05.8486A3.6563,3.6563,0,0,1,122.2275,55.5376Zm-.0239-5.4a1.2311,1.2311,0,0,0-.9722.4077,1.5384,1.5384,0,0,0-.36,1.0561v.0962H123.44v-.1084a1.6435,1.6435,0,0,0-.3179-1.05A1.1008,1.1008,0,0,0,122.2036,50.1377Z"/><path d="M126.3921,55.3935V49.1294h1.5356v1.0439h.06a2.0347,2.0347,0,0,1,.5762-.84,1.6167,1.6167,0,0,1,1.104-.3482,1.9676,1.9676,0,0,1,1.1157.312,1.845,1.845,0,0,1,.6963.9483h.0239a1.7625,1.7625,0,0,1,.666-.8941,2.0607,2.0607,0,0,1,1.2539-.3662,1.7,1.7,0,0,1,1.4219.6362,2.8827,2.8827,0,0,1,.4981,1.8121v3.96h-1.5357V51.5893q0-1.3432-1.0083-1.3437a1.4536,1.4536,0,0,0-.438.0659,1.1737,1.1737,0,0,0-.3721.1919.9315.9315,0,0,0-.2578.312.9442.9442,0,0,0-.0962.438v4.14H130.1V51.5893q0-1.3432-1.0083-1.3437a1.41,1.41,0,0,0-.4258.0659,1.1694,1.1694,0,0,0-.3721.1919.9985.9985,0,0,0-.2641.312.8983.8983,0,0,0-.1021.438v4.14Z"/><path d="M139.58,55.5376a3.1293,3.1293,0,0,1-1.2417-.2339,2.57,2.57,0,0,1-.9243-.66,2.9526,2.9526,0,0,1-.5821-1.0322,4.6487,4.6487,0,0,1-.0058-2.7056,2.938,2.938,0,0,1,.57-1.0263,2.5281,2.5281,0,0,1,.9121-.66,3.0453,3.0453,0,0,1,1.2241-.2344,2.9751,2.9751,0,0,1,1.272.2525,2.457,2.457,0,0,1,.8882.6835,2.96,2.96,0,0,1,.522,1.002,4.1638,4.1638,0,0,1,.1738,1.2183v.5039h-4.1641V52.8a1.531,1.531,0,0,0,.3843,1.09,1.4858,1.4858,0,0,0,1.14.4111,1.6983,1.6983,0,0,0,.9419-.2383,2.6787,2.6787,0,0,0,.6543-.6079l.8281.9268a2.5791,2.5791,0,0,1-1.05.8486A3.6566,3.6566,0,0,1,139.58,55.5376Zm-.0239-5.4a1.231,1.231,0,0,0-.9722.4077,1.5384,1.5384,0,0,0-.36,1.0561v.0962h2.5679v-.1084a1.6435,1.6435,0,0,0-.3179-1.05A1.1006,1.1006,0,0,0,139.5557,50.1377Z"/><path d="M143.7437,55.3935V49.1294h1.5356v1.0439h.06a2.0042,2.0042,0,0,1,.6059-.8457,1.75,1.75,0,0,1,1.146-.3423,1.8066,1.8066,0,0,1,1.4883.6362,2.812,2.812,0,0,1,.5161,1.8121v3.96H147.56V51.5893a1.7336,1.7336,0,0,0-.24-1.0078.9068.9068,0,0,0-.792-.3359,1.6114,1.6114,0,0,0-.4619.0659,1.2977,1.2977,0,0,0-.396.1919.9968.9968,0,0,0-.2817.312.8541.8541,0,0,0-.1084.438v4.14Z"/><path d="M152.7559,55.3935A1.6354,1.6354,0,0,1,151.55,54.98a1.5909,1.5909,0,0,1-.4141-1.1792V50.3657h-.9243V49.1294h.48a.5737.5737,0,0,0,.4741-.1617.7851.7851,0,0,0,.126-.4863V47.4135h1.38v1.7159h1.2842v1.2363h-1.2842v3.792H153.86v1.2358Z"/><path d="M160.1714,55.5376a3.3565,3.3565,0,0,1-1.5117-.3062,3.4807,3.4807,0,0,1-1.08-.8457l.936-.9121a2.8368,2.8368,0,0,0,.7617.624,1.947,1.947,0,0,0,.9541.228,1.3077,1.3077,0,0,0,.7979-.1919.6331.6331,0,0,0,.2461-.5283.57.57,0,0,0-.1738-.438,1.11,1.11,0,0,0-.5943-.2221l-.624-.084A2.969,2.969,0,0,1,158.33,52.28a1.6211,1.6211,0,0,1-.5342-1.3144,1.9519,1.9519,0,0,1,.168-.8218,1.7446,1.7446,0,0,1,.48-.624,2.2057,2.2057,0,0,1,.75-.396,3.2524,3.2524,0,0,1,.978-.1382,4.4556,4.4556,0,0,1,.81.0664,2.9459,2.9459,0,0,1,.6421.1919,2.4881,2.4881,0,0,1,.5279.312,5,5,0,0,1,.4682.4141l-.9.9a2.3767,2.3767,0,0,0-.66-.48,1.8552,1.8552,0,0,0-.84-.1919,1.1555,1.1555,0,0,0-.7255.18.5732.5732,0,0,0-.2222.4683.5937.5937,0,0,0,.186.4736,1.2871,1.2871,0,0,0,.63.2344l.6362.084q2.0274.2877,2.0279,1.8476a1.8612,1.8612,0,0,1-.1861.834,1.9017,1.9017,0,0,1-.5219.6484,2.4769,2.4769,0,0,1-.81.42A3.5231,3.5231,0,0,1,160.1714,55.5376Z"/><path d="M166.6392,55.5376a3.129,3.129,0,0,1-1.2417-.2339,2.5713,2.5713,0,0,1-.9244-.66,2.9524,2.9524,0,0,1-.582-1.0322,4.6487,4.6487,0,0,1-.0058-2.7056,2.9364,2.9364,0,0,1,.57-1.0263,2.5264,2.5264,0,0,1,.9121-.66,3.0453,3.0453,0,0,1,1.2241-.2344,2.9751,2.9751,0,0,1,1.272.2525,2.4587,2.4587,0,0,1,.8882.6835,2.96,2.96,0,0,1,.5219,1.002,4.16,4.16,0,0,1,.1739,1.2183v.5039h-4.1641V52.8a1.5306,1.5306,0,0,0,.3843,1.09,1.4854,1.4854,0,0,0,1.14.4111,1.6979,1.6979,0,0,0,.9419-.2383,2.6769,2.6769,0,0,0,.6543-.6079l.8281.9268a2.5781,2.5781,0,0,1-1.05.8486A3.6569,3.6569,0,0,1,166.6392,55.5376Zm-.024-5.4a1.2307,1.2307,0,0,0-.9721.4077,1.5379,1.5379,0,0,0-.36,1.0561v.0962h2.5679v-.1084a1.6435,1.6435,0,0,0-.3179-1.05A1.1008,1.1008,0,0,0,166.6152,50.1377Z"/><path d="M170.8032,55.3935V49.1294h1.5357v1.2963h.06a2.0023,2.0023,0,0,1,.1861-.4863,1.4932,1.4932,0,0,1,.33-.4141,1.5786,1.5786,0,0,1,.4859-.2875,1.8169,1.8169,0,0,1,.6543-.1084h.3359v1.4521h-.48a2.4116,2.4116,0,0,0-1.1762.228.7925.7925,0,0,0-.396.7442v3.84Z"/><path d="M176.959,55.3935l-2.0879-6.2641h1.5117l.8765,2.7.6118,2.232h.084l.6118-2.232.852-2.7h1.4639l-2.1,6.2641Z"/><path d="M182.67,48.2177a.932.932,0,0,1-.69-.2163.7594.7594,0,0,1-.21-.5517v-.24a.76.76,0,0,1,.21-.5517,1.1991,1.1991,0,0,1,1.374,0,.7477.7477,0,0,1,.2163.5517v.24a.7469.7469,0,0,1-.2163.5517A.9354.9354,0,0,1,182.67,48.2177Zm-.7676.9117h1.5357v6.2641h-1.5357Z"/><path d="M187.6865,55.5376a3.1541,3.1541,0,0,1-1.2358-.2281,2.3835,2.3835,0,0,1-.9063-.66,2.9684,2.9684,0,0,1-.5576-1.0381,4.485,4.485,0,0,1-.1924-1.3618,4.4285,4.4285,0,0,1,.1924-1.356,2.9153,2.9153,0,0,1,.5576-1.0259,2.4192,2.4192,0,0,1,.9063-.6543,3.1559,3.1559,0,0,1,1.2358-.228,2.7247,2.7247,0,0,1,1.5659.42,2.356,2.356,0,0,1,.8941,1.1636l-1.26.5644a1.31,1.31,0,0,0-.4018-.6542,1.17,1.17,0,0,0-.7984-.2579,1.15,1.15,0,0,0-.9658.4078,1.6906,1.6906,0,0,0-.3179,1.0683v1.14a1.6616,1.6616,0,0,0,.3179,1.062,1.1566,1.1566,0,0,0,.9658.4023,1.197,1.197,0,0,0,.8521-.2822,1.9317,1.9317,0,0,0,.4682-.7022l1.1758.564a2.4583,2.4583,0,0,1-.9477,1.2422A2.78,2.78,0,0,1,187.6865,55.5376Z"/><path d="M193.8428,55.5376a3.129,3.129,0,0,1-1.2417-.2339,2.57,2.57,0,0,1-.9243-.66,2.9526,2.9526,0,0,1-.5821-1.0322,4.6487,4.6487,0,0,1-.0058-2.7056,2.9364,2.9364,0,0,1,.57-1.0263,2.5264,2.5264,0,0,1,.9121-.66,3.0453,3.0453,0,0,1,1.2241-.2344,2.9751,2.9751,0,0,1,1.272.2525,2.457,2.457,0,0,1,.8882.6835,2.9619,2.9619,0,0,1,.522,1.002,4.1638,4.1638,0,0,1,.1738,1.2183v.5039h-4.1641V52.8a1.5306,1.5306,0,0,0,.3843,1.09,1.4855,1.4855,0,0,0,1.14.4111,1.6979,1.6979,0,0,0,.9419-.2383,2.6769,2.6769,0,0,0,.6543-.6079l.8282.9268a2.5791,2.5791,0,0,1-1.05.8486A3.6566,3.6566,0,0,1,193.8428,55.5376Zm-.024-5.4a1.2307,1.2307,0,0,0-.9721.4077,1.5379,1.5379,0,0,0-.36,1.0561v.0962h2.5679v-.1084a1.6435,1.6435,0,0,0-.3179-1.05A1.1007,1.1007,0,0,0,193.8188,50.1377Z"/><path d="M200.5508,51.6494a8.399,8.399,0,0,1,.1621-1.668,8.2507,8.2507,0,0,1,.4438-1.4936,6.7652,6.7652,0,0,1,.6661-1.2544,4.9441,4.9441,0,0,1,.84-.96h1.4521a6.4111,6.4111,0,0,0-.8818,1.0083,6.6568,6.6568,0,0,0-.666,1.1816,6.9162,6.9162,0,0,0-.4263,1.3262,6.7522,6.7522,0,0,0-.15,1.4282v.8877a6.8981,6.8981,0,0,0,.15,1.4463,6.6718,6.6718,0,0,0,.4322,1.332,7.0138,7.0138,0,0,0,.6718,1.1817,5.8431,5.8431,0,0,0,.87.9839h-1.4521a4.5746,4.5746,0,0,1-.8281-.9356,6.9049,6.9049,0,0,1-.6719-1.2661,8.2312,8.2312,0,0,1-.45-1.5122A8.5488,8.5488,0,0,1,200.5508,51.6494Z"/><path d="M207.6782,51.6015l-1.1162,1.32v2.4722h-1.584v-8.376h1.584v4.128h.06l1.188-1.5718,2.0761-2.5562H211.71L208.7939,50.51l3.1563,4.8838h-1.8843Z"/><path d="M215.2505,55.5376a3.1293,3.1293,0,0,1-1.2417-.2339,2.57,2.57,0,0,1-.9243-.66,2.9526,2.9526,0,0,1-.5821-1.0322,4.6487,4.6487,0,0,1-.0058-2.7056,2.938,2.938,0,0,1,.57-1.0263,2.5281,2.5281,0,0,1,.9121-.66,3.0453,3.0453,0,0,1,1.2241-.2344,2.9751,2.9751,0,0,1,1.272.2525,2.457,2.457,0,0,1,.8882.6835,2.96,2.96,0,0,1,.522,1.002,4.1638,4.1638,0,0,1,.1738,1.2183v.5039h-4.1641V52.8a1.531,1.531,0,0,0,.3843,1.09,1.4858,1.4858,0,0,0,1.14.4111,1.6983,1.6983,0,0,0,.9419-.2383,2.6765,2.6765,0,0,0,.6542-.6079l.8282.9268a2.5791,2.5791,0,0,1-1.05.8486A3.6566,3.6566,0,0,1,215.2505,55.5376Zm-.0239-5.4a1.231,1.231,0,0,0-.9722.4077,1.5379,1.5379,0,0,0-.36,1.0561v.0962h2.5679v-.1084a1.6435,1.6435,0,0,0-.3179-1.05A1.1006,1.1006,0,0,0,215.2266,50.1377Z"/><path d="M223.1826,49.1294h1.44l-2.52,7.38a3.1679,3.1679,0,0,1-.27.5821,1.45,1.45,0,0,1-.354.4018,1.3359,1.3359,0,0,1-.4917.228,2.8018,2.8018,0,0,1-.6723.0718h-.9239V56.5576h1.128l.288-.8745-2.2441-6.5537h1.5239l1.0923,3.3051.4077,1.5806h.0723l.4321-1.5806Z"/><path d="M228.5581,55.3935v-8.376h3.7681a2.7562,2.7562,0,0,1,1.0381.1861,2.2029,2.2029,0,0,1,.7861.5278,2.2676,2.2676,0,0,1,.4917.8223,3.42,3.42,0,0,1,0,2.1176,2.2727,2.2727,0,0,1-.4917.8165,2.2094,2.2094,0,0,1-.7861.5278,2.7582,2.7582,0,0,1-1.0381.186h-2.1841v3.1919Zm1.584-4.56h2.04a1.015,1.015,0,0,0,.72-.2461.9121.9121,0,0,0,.2637-.7017v-.5522a.8934.8934,0,0,0-.2637-.6958,1.03,1.03,0,0,0-.72-.24h-2.04Z"/><path d="M236.0342,55.3935V49.1294H237.57v1.2963h.06a1.9979,1.9979,0,0,1,.186-.4863,1.4954,1.4954,0,0,1,.33-.4141,1.5769,1.5769,0,0,1,.4858-.2875,1.8172,1.8172,0,0,1,.6543-.1084h.336v1.4521h-.48a2.4123,2.4123,0,0,0-1.1763.228.7925.7925,0,0,0-.396.7442v3.84Z"/><path d="M243.1743,55.5376a3.0445,3.0445,0,0,1-1.206-.2281,2.4967,2.4967,0,0,1-.9121-.66,3.02,3.02,0,0,1-.5821-1.0381A4.2472,4.2472,0,0,1,240.27,52.25a4.1939,4.1939,0,0,1,.2041-1.356,2.9677,2.9677,0,0,1,.5821-1.0259,2.536,2.536,0,0,1,.9121-.6543,3.0463,3.0463,0,0,1,1.206-.228,3.0909,3.0909,0,0,1,1.2119.228,2.5254,2.5254,0,0,1,.918.6543,2.9659,2.9659,0,0,1,.582,1.0259,4.2048,4.2048,0,0,1,.2041,1.356,4.2583,4.2583,0,0,1-.2041,1.3618,3.0185,3.0185,0,0,1-.582,1.0381,2.4865,2.4865,0,0,1-.918.66A3.0891,3.0891,0,0,1,243.1743,55.5376Zm0-1.2359a1.2506,1.2506,0,0,0,.96-.3721,1.5444,1.5444,0,0,0,.3481-1.0922V51.6733a1.5246,1.5246,0,0,0-.3481-1.08,1.2509,1.2509,0,0,0-.96-.3721,1.235,1.235,0,0,0-.9482.3721,1.524,1.524,0,0,0-.3477,1.08v1.1641a1.5439,1.5439,0,0,0,.3477,1.0922A1.2346,1.2346,0,0,0,243.1743,54.3017Z"/><path d="M249.354,55.3935a1.6355,1.6355,0,0,1-1.2061-.4131,1.5913,1.5913,0,0,1-.414-1.1792V50.3657H246.81V49.1294h.48a.5737.5737,0,0,0,.4741-.1617.7851.7851,0,0,0,.1259-.4863V47.4135h1.38v1.7159h1.2842v1.2363H249.27v3.792h1.1885v1.2358Z"/><path d="M254.37,55.5376a3.1293,3.1293,0,0,1-1.2417-.2339,2.5718,2.5718,0,0,1-.9243-.66,2.9508,2.9508,0,0,1-.582-1.0322,4.65,4.65,0,0,1-.0059-2.7056,2.938,2.938,0,0,1,.57-1.0263,2.5281,2.5281,0,0,1,.9121-.66,3.0455,3.0455,0,0,1,1.2242-.2344,2.9743,2.9743,0,0,1,1.2719.2525,2.457,2.457,0,0,1,.8882.6835,2.9584,2.9584,0,0,1,.522,1.002,4.1638,4.1638,0,0,1,.1738,1.2183v.5039h-4.164V52.8a1.5309,1.5309,0,0,0,.3842,1.09,1.4858,1.4858,0,0,0,1.14.4111,1.6981,1.6981,0,0,0,.9419-.2383,2.6787,2.6787,0,0,0,.6543-.6079l.8281.9268a2.5778,2.5778,0,0,1-1.05.8486A3.6563,3.6563,0,0,1,254.37,55.5376Zm-.0239-5.4a1.2311,1.2311,0,0,0-.9722.4077,1.5384,1.5384,0,0,0-.36,1.0561v.0962h2.5678v-.1084a1.6434,1.6434,0,0,0-.3178-1.05A1.1009,1.1009,0,0,0,254.3462,50.1377Z"/><path d="M261.0059,55.5376A3.1546,3.1546,0,0,1,259.77,55.31a2.3832,2.3832,0,0,1-.9062-.66,2.9668,2.9668,0,0,1-.5576-1.0381,4.4819,4.4819,0,0,1-.1924-1.3618,4.4255,4.4255,0,0,1,.1924-1.356,2.9137,2.9137,0,0,1,.5576-1.0259,2.4188,2.4188,0,0,1,.9062-.6543,3.1564,3.1564,0,0,1,1.2359-.228,2.7249,2.7249,0,0,1,1.5659.42,2.3564,2.3564,0,0,1,.894,1.1636l-1.26.5644a1.31,1.31,0,0,0-.4019-.6542,1.1694,1.1694,0,0,0-.7983-.2579,1.15,1.15,0,0,0-.9659.4078,1.6906,1.6906,0,0,0-.3178,1.0683v1.14a1.6616,1.6616,0,0,0,.3178,1.062,1.1568,1.1568,0,0,0,.9659.4023,1.1969,1.1969,0,0,0,.852-.2822,1.9319,1.9319,0,0,0,.4683-.7022l1.1758.564a2.459,2.459,0,0,1-.9478,1.2422A2.78,2.78,0,0,1,261.0059,55.5376Z"/><path d="M266.646,55.3935A1.6355,1.6355,0,0,1,265.44,54.98a1.5913,1.5913,0,0,1-.414-1.1792V50.3657h-.9243V49.1294h.48a.5738.5738,0,0,0,.4742-.1617.7858.7858,0,0,0,.1259-.4863V47.4135h1.38v1.7159h1.2842v1.2363h-1.2842v3.792H267.75v1.2358Z"/><path d="M274.4937,55.5376a3.045,3.045,0,0,1-1.2061-.2281,2.4967,2.4967,0,0,1-.9121-.66,3.0185,3.0185,0,0,1-.582-1.0381,4.2444,4.2444,0,0,1-.2041-1.3618,4.1912,4.1912,0,0,1,.2041-1.356,2.9659,2.9659,0,0,1,.582-1.0259,2.536,2.536,0,0,1,.9121-.6543,3.0468,3.0468,0,0,1,1.2061-.228,3.0916,3.0916,0,0,1,1.2119.228,2.525,2.525,0,0,1,.9179.6543,2.9677,2.9677,0,0,1,.5821,1.0259,4.2075,4.2075,0,0,1,.2041,1.356,4.2611,4.2611,0,0,1-.2041,1.3618,3.02,3.02,0,0,1-.5821,1.0381,2.4862,2.4862,0,0,1-.9179.66A3.09,3.09,0,0,1,274.4937,55.5376Zm0-1.2359a1.25,1.25,0,0,0,.96-.3721,1.5444,1.5444,0,0,0,.3482-1.0922V51.6733a1.5246,1.5246,0,0,0-.3482-1.08,1.2506,1.2506,0,0,0-.96-.3721,1.2352,1.2352,0,0,0-.9483.3721,1.5245,1.5245,0,0,0-.3476,1.08v1.1641a1.5443,1.5443,0,0,0,.3476,1.0922A1.2349,1.2349,0,0,0,274.4937,54.3017Z"/><path d="M278.7656,55.3935V49.1294h1.5357v1.2963h.06a2.0023,2.0023,0,0,1,.1861-.4863,1.4932,1.4932,0,0,1,.33-.4141,1.5786,1.5786,0,0,1,.4859-.2875,1.8169,1.8169,0,0,1,.6543-.1084h.3359v1.4521h-.48a2.4116,2.4116,0,0,0-1.1762.228.7925.7925,0,0,0-.396.7442v3.84Z"/><path d="M291.4854,51.8535h-3.4922v3.54h-1.584v-8.376h1.584V50.45h3.4922V47.0175h1.5839v8.376h-1.5839Z"/><path d="M298.7812,49.1294h1.44l-2.52,7.38a3.1812,3.1812,0,0,1-.27.5821,1.4491,1.4491,0,0,1-.3541.4018,1.3359,1.3359,0,0,1-.4917.228,2.8012,2.8012,0,0,1-.6723.0718h-.9238V56.5576h1.1279l.2881-.8745-2.2442-6.5537h1.524l1.0922,3.3051.4078,1.5806h.0722l.4322-1.5806Z"/><path d="M301.229,49.1294h1.5356v1.0322h.0484a1.5731,1.5731,0,0,1,.6357-.8579,1.8979,1.8979,0,0,1,1.0923-.3184,2.1405,2.1405,0,0,1,1.83.8462,3.99,3.99,0,0,1,.63,2.418,4.0411,4.0411,0,0,1-.63,2.436,2.1337,2.1337,0,0,1-1.83.8521,1.8427,1.8427,0,0,1-1.0864-.3243,1.674,1.674,0,0,1-.6416-.8637h-.0484v3.4438H301.229Zm2.82,5.1362a1.2726,1.2726,0,0,0,.9722-.396,1.4988,1.4988,0,0,0,.3716-1.0679v-1.08a1.5207,1.5207,0,0,0-.3716-1.0742,1.2633,1.2633,0,0,0-.9722-.4018,1.4811,1.4811,0,0,0-.9179.2758.8723.8723,0,0,0-.3663.732v1.9922a.8748.8748,0,0,0,.3663.7558A1.5267,1.5267,0,0,0,304.0488,54.2656Z"/><path d="M310.9609,55.5376a3.13,3.13,0,0,1-1.2417-.2339,2.5718,2.5718,0,0,1-.9243-.66,2.9524,2.9524,0,0,1-.582-1.0322,4.65,4.65,0,0,1-.0059-2.7056,2.9382,2.9382,0,0,1,.57-1.0263,2.5264,2.5264,0,0,1,.9121-.66,3.0447,3.0447,0,0,1,1.2241-.2344,2.9751,2.9751,0,0,1,1.272.2525,2.4575,2.4575,0,0,1,.8881.6835,2.9584,2.9584,0,0,1,.522,1.002,4.1638,4.1638,0,0,1,.1738,1.2183v.5039h-4.164V52.8a1.5306,1.5306,0,0,0,.3843,1.09,1.4854,1.4854,0,0,0,1.14.4111,1.6979,1.6979,0,0,0,.9419-.2383,2.6787,2.6787,0,0,0,.6543-.6079l.8281.9268a2.5778,2.5778,0,0,1-1.05.8486A3.6563,3.6563,0,0,1,310.9609,55.5376Zm-.0239-5.4a1.2311,1.2311,0,0,0-.9722.4077,1.5384,1.5384,0,0,0-.36,1.0561v.0962h2.5679v-.1084a1.6435,1.6435,0,0,0-.3179-1.05A1.1008,1.1008,0,0,0,310.937,50.1377Z"/><path d="M315.125,55.3935V49.1294h1.5356v1.2963h.06a2.002,2.002,0,0,1,.186-.4863,1.4954,1.4954,0,0,1,.33-.4141,1.5786,1.5786,0,0,1,.4859-.2875,1.8165,1.8165,0,0,1,.6543-.1084h.3359v1.4521h-.48a2.4123,2.4123,0,0,0-1.1763.228.7927.7927,0,0,0-.396.7442v3.84Z"/><path d="M322.7686,55.3935v-8.376h3.768a2.7559,2.7559,0,0,1,1.0381.1861,2.2029,2.2029,0,0,1,.7861.5278,2.2662,2.2662,0,0,1,.4917.8223,3.42,3.42,0,0,1,0,2.1176,2.2713,2.2713,0,0,1-.4917.8165,2.2094,2.2094,0,0,1-.7861.5278,2.7578,2.7578,0,0,1-1.0381.186h-2.1841v3.1919Zm1.5839-4.56h2.04a1.0151,1.0151,0,0,0,.72-.2461.9121.9121,0,0,0,.2637-.7017v-.5522a.8934.8934,0,0,0-.2637-.6958,1.03,1.03,0,0,0-.72-.24h-2.04Z"/><path d="M330.2446,55.3935V49.1294H331.78v1.2963h.06a2.0023,2.0023,0,0,1,.1861-.4863,1.495,1.495,0,0,1,.33-.4141,1.5786,1.5786,0,0,1,.4859-.2875,1.8169,1.8169,0,0,1,.6543-.1084h.3359v1.4521h-.48a2.4116,2.4116,0,0,0-1.1762.228.7925.7925,0,0,0-.396.7442v3.84Z"/><path d="M337.3848,55.5376a3.045,3.045,0,0,1-1.2061-.2281,2.4984,2.4984,0,0,1-.9121-.66,3.0185,3.0185,0,0,1-.582-1.0381,4.2444,4.2444,0,0,1-.2041-1.3618,4.1912,4.1912,0,0,1,.2041-1.356,2.9659,2.9659,0,0,1,.582-1.0259,2.5378,2.5378,0,0,1,.9121-.6543,3.0468,3.0468,0,0,1,1.2061-.228,3.0916,3.0916,0,0,1,1.2119.228,2.525,2.525,0,0,1,.9179.6543,2.9677,2.9677,0,0,1,.5821,1.0259,4.2075,4.2075,0,0,1,.2041,1.356,4.2611,4.2611,0,0,1-.2041,1.3618,3.02,3.02,0,0,1-.5821,1.0381,2.4862,2.4862,0,0,1-.9179.66A3.09,3.09,0,0,1,337.3848,55.5376Zm0-1.2359a1.25,1.25,0,0,0,.96-.3721,1.544,1.544,0,0,0,.3482-1.0922V51.6733a1.5241,1.5241,0,0,0-.3482-1.08,1.2506,1.2506,0,0,0-.96-.3721,1.2354,1.2354,0,0,0-.9483.3721,1.5245,1.5245,0,0,0-.3476,1.08v1.1641a1.5443,1.5443,0,0,0,.3476,1.0922A1.235,1.235,0,0,0,337.3848,54.3017Z"/><path d="M343.5649,55.3935a1.6353,1.6353,0,0,1-1.206-.4131,1.5909,1.5909,0,0,1-.4141-1.1792V50.3657h-.9243V49.1294h.48a.5737.5737,0,0,0,.4741-.1617.7851.7851,0,0,0,.126-.4863V47.4135h1.38v1.7159h1.2841v1.2363h-1.2841v3.792h1.1884v1.2358Z"/><path d="M348.5806,55.5376a3.129,3.129,0,0,1-1.2417-.2339,2.57,2.57,0,0,1-.9243-.66,2.9526,2.9526,0,0,1-.5821-1.0322,4.6487,4.6487,0,0,1-.0058-2.7056,2.9364,2.9364,0,0,1,.57-1.0263,2.5264,2.5264,0,0,1,.9121-.66,3.0453,3.0453,0,0,1,1.2241-.2344,2.9751,2.9751,0,0,1,1.272.2525,2.4579,2.4579,0,0,1,.8882.6835,2.96,2.96,0,0,1,.5219,1.002,4.16,4.16,0,0,1,.1739,1.2183v.5039h-4.1641V52.8a1.5306,1.5306,0,0,0,.3843,1.09,1.4854,1.4854,0,0,0,1.14.4111,1.6979,1.6979,0,0,0,.9419-.2383,2.6769,2.6769,0,0,0,.6543-.6079l.8282.9268a2.5791,2.5791,0,0,1-1.05.8486A3.6566,3.6566,0,0,1,348.5806,55.5376Zm-.024-5.4a1.2307,1.2307,0,0,0-.9721.4077,1.5379,1.5379,0,0,0-.36,1.0561v.0962h2.5679v-.1084a1.6435,1.6435,0,0,0-.3179-1.05A1.1008,1.1008,0,0,0,348.5566,50.1377Z"/><path d="M355.2163,55.5376a3.1538,3.1538,0,0,1-1.2358-.2281,2.3835,2.3835,0,0,1-.9063-.66,2.9684,2.9684,0,0,1-.5576-1.0381,4.485,4.485,0,0,1-.1924-1.3618,4.4285,4.4285,0,0,1,.1924-1.356,2.9153,2.9153,0,0,1,.5576-1.0259,2.4192,2.4192,0,0,1,.9063-.6543,3.1556,3.1556,0,0,1,1.2358-.228,2.7249,2.7249,0,0,1,1.5659.42,2.3565,2.3565,0,0,1,.8941,1.1636l-1.26.5644a1.31,1.31,0,0,0-.4019-.6542,1.1692,1.1692,0,0,0-.7983-.2579,1.15,1.15,0,0,0-.9658.4078,1.6906,1.6906,0,0,0-.3179,1.0683v1.14a1.6616,1.6616,0,0,0,.3179,1.062,1.1566,1.1566,0,0,0,.9658.4023,1.197,1.197,0,0,0,.8521-.2822,1.9317,1.9317,0,0,0,.4682-.7022l1.1758.564a2.4579,2.4579,0,0,1-.9478,1.2422A2.78,2.78,0,0,1,355.2163,55.5376Z"/><path d="M360.8564,55.3935a1.6353,1.6353,0,0,1-1.206-.4131,1.5909,1.5909,0,0,1-.4141-1.1792V50.3657h-.9243V49.1294h.48a.5737.5737,0,0,0,.4741-.1617.7851.7851,0,0,0,.126-.4863V47.4135h1.38v1.7159h1.2842v1.2363H360.772v3.792H361.96v1.2358Z"/><path d="M369.5679,55.5376a3.94,3.94,0,0,1-1.4937-.27,2.9934,2.9934,0,0,1-1.14-.81,3.6671,3.6671,0,0,1-.7261-1.3379,6.1684,6.1684,0,0,1-.2519-1.854,6.4071,6.4071,0,0,1,.2519-1.8779,3.8374,3.8374,0,0,1,.7261-1.38,3.0831,3.0831,0,0,1,1.14-.8457,3.7282,3.7282,0,0,1,1.4937-.2881,3.39,3.39,0,0,1,1.872.48,3.2977,3.2977,0,0,1,1.188,1.4521l-1.3559.72a1.9065,1.9065,0,0,0-.5879-.9057,1.6844,1.6844,0,0,0-1.1162-.3423,1.7732,1.7732,0,0,0-1.41.6,2.4781,2.4781,0,0,0-.522,1.68v1.32a2.4269,2.4269,0,0,0,.522,1.6743,1.8,1.8,0,0,0,1.41.582,1.72,1.72,0,0,0,1.1582-.3842,2.213,2.213,0,0,0,.6538-.9478l1.2842.7559a3.69,3.69,0,0,1-1.212,1.458A3.2381,3.2381,0,0,1,369.5679,55.5376Z"/><path d="M373.9243,55.3935V49.1294H375.46v1.2963h.06a2.0023,2.0023,0,0,1,.1861-.4863,1.4932,1.4932,0,0,1,.33-.4141,1.5819,1.5819,0,0,1,.4854-.2875,1.8188,1.8188,0,0,1,.6543-.1084h.3359v1.4521h-.48a2.41,2.41,0,0,0-1.1762.228.7925.7925,0,0,0-.396.7442v3.84Z"/><path d="M382.5762,49.1294h1.4394l-2.5195,7.38a3.1416,3.1416,0,0,1-.2705.5821,1.4518,1.4518,0,0,1-.3545.4018,1.326,1.326,0,0,1-.4912.228,2.8064,2.8064,0,0,1-.6729.0718h-.9238V56.5576h1.1289l.2871-.8745-2.2441-6.5537H379.48l1.0928,3.3051.4072,1.5806h.0723l.4326-1.5806Z"/><path d="M385.0234,49.1294H386.56v1.0322h.0478a1.5748,1.5748,0,0,1,.6367-.8579,1.8954,1.8954,0,0,1,1.0918-.3184,2.1414,2.1414,0,0,1,1.83.8462,3.9939,3.9939,0,0,1,.63,2.418,4.0447,4.0447,0,0,1-.63,2.436,2.1346,2.1346,0,0,1-1.83.8521,1.84,1.84,0,0,1-1.0859-.3243,1.6731,1.6731,0,0,1-.6426-.8637H386.56v3.4438h-1.5362Zm2.82,5.1362a1.2705,1.2705,0,0,0,.9716-.396,1.4968,1.4968,0,0,0,.3721-1.0679v-1.08a1.5187,1.5187,0,0,0-.3721-1.0742,1.2613,1.2613,0,0,0-.9716-.4018,1.4812,1.4812,0,0,0-.918.2758.8723.8723,0,0,0-.3662.732v1.9922a.8747.8747,0,0,0,.3662.7558A1.5268,1.5268,0,0,0,387.8438,54.2656Z"/><path d="M394.1074,55.3935a1.6375,1.6375,0,0,1-1.206-.4131,1.595,1.595,0,0,1-.4141-1.1792V50.3657h-.9238V49.1294h.48a.5733.5733,0,0,0,.4737-.1617.7851.7851,0,0,0,.126-.4863V47.4135h1.38v1.7159h1.2842v1.2363h-1.2842v3.792h1.1885v1.2358Z"/><path d="M399.0752,55.5376a3.0436,3.0436,0,0,1-1.2061-.2281,2.4942,2.4942,0,0,1-.9121-.66,3.012,3.012,0,0,1-.582-1.0381,4.2611,4.2611,0,0,1-.2041-1.3618,4.2075,4.2075,0,0,1,.2041-1.356,2.96,2.96,0,0,1,.582-1.0259,2.5335,2.5335,0,0,1,.9121-.6543,3.0454,3.0454,0,0,1,1.2061-.228,3.0913,3.0913,0,0,1,1.2119.228,2.5212,2.5212,0,0,1,.918.6543,2.96,2.96,0,0,1,.582,1.0259,4.2048,4.2048,0,0,1,.2041,1.356,4.2583,4.2583,0,0,1-.2041,1.3618,3.012,3.012,0,0,1-.582,1.0381,2.4825,2.4825,0,0,1-.918.66A3.09,3.09,0,0,1,399.0752,55.5376Zm0-1.2359a1.2506,1.2506,0,0,0,.96-.3721,1.5466,1.5466,0,0,0,.3476-1.0922V51.6733a1.5268,1.5268,0,0,0-.3476-1.08,1.2509,1.2509,0,0,0-.96-.3721,1.2357,1.2357,0,0,0-.9482.3721,1.5217,1.5217,0,0,0-.3477,1.08v1.1641a1.5416,1.5416,0,0,0,.3477,1.0922A1.2354,1.2354,0,0,0,399.0752,54.3017Z"/><path d="M408.8789,55.5376a3.9774,3.9774,0,0,1-1.83-.3848,4.2482,4.2482,0,0,1-1.29-1.01l1.0683-1.0337a3.0517,3.0517,0,0,0,.9659.7622,2.6429,2.6429,0,0,0,1.1816.2622,1.6693,1.6693,0,0,0,1.1045-.3159,1.0586,1.0586,0,0,0,.3721-.851.9653.9653,0,0,0-.24-.6792,1.6132,1.6132,0,0,0-.9-.3809l-.7919-.1191q-2.5078-.3963-2.5079-2.439a2.42,2.42,0,0,1,.21-1.021,2.1832,2.1832,0,0,1,.6064-.7813,2.8043,2.8043,0,0,1,.9541-.4985,4.2421,4.2421,0,0,1,1.2657-.1743,4.0725,4.0725,0,0,1,1.6562.313,3.2537,3.2537,0,0,1,1.2119.9253l-1.08,1.0224a2.4829,2.4829,0,0,0-.7559-.6186,2.3441,2.3441,0,0,0-1.1162-.2383,1.7021,1.7021,0,0,0-1.0254.2559.9738.9738,0,0,0-.0664,1.4218,1.947,1.947,0,0,0,.8877.333l.78.1441a3.58,3.58,0,0,1,1.8779.811,2.15,2.15,0,0,1,.6064,1.6275,2.7243,2.7243,0,0,1-.21,1.0874,2.3644,2.3644,0,0,1-.6123.8408,2.7962,2.7962,0,0,1-.9844.5464A4.2548,4.2548,0,0,1,408.8789,55.5376Z"/><path d="M416.043,55.5376a3.1332,3.1332,0,0,1-1.2422-.2339,2.5682,2.5682,0,0,1-.9238-.66,2.9447,2.9447,0,0,1-.5821-1.0322,4.6487,4.6487,0,0,1-.0058-2.7056,2.9373,2.9373,0,0,1,.57-1.0263,2.5136,2.5136,0,0,1,.9121-.66,3.0412,3.0412,0,0,1,1.2236-.2344,2.97,2.97,0,0,1,1.2715.2525,2.4546,2.4546,0,0,1,.8887.6835,2.97,2.97,0,0,1,.5215,1.002,4.1471,4.1471,0,0,1,.1738,1.2183v.5039h-4.1631V52.8a1.5285,1.5285,0,0,0,.3838,1.09,1.4854,1.4854,0,0,0,1.14.4111,1.7008,1.7008,0,0,0,.9424-.2383,2.664,2.664,0,0,0,.6533-.6079l.8282.9268a2.571,2.571,0,0,1-1.05.8486A3.6582,3.6582,0,0,1,416.043,55.5376Zm-.0235-5.4a1.2318,1.2318,0,0,0-.9726.4077,1.5352,1.5352,0,0,0-.3594,1.0561v.0962h2.5674v-.1084a1.6492,1.6492,0,0,0-.3174-1.05A1.1027,1.1027,0,0,0,416.02,50.1377Z"/><path d="M420.207,55.3935V49.1294h1.5362v1.2963h.06a2.0008,2.0008,0,0,1,.1856-.4863,1.5024,1.5024,0,0,1,.33-.4141,1.5753,1.5753,0,0,1,.4864-.2875,1.8093,1.8093,0,0,1,.6533-.1084h.3359v1.4521h-.4795a2.4074,2.4074,0,0,0-1.1758.228.7912.7912,0,0,0-.3964.7442v3.84Z"/><path d="M426.3633,55.3935l-2.0889-6.2641h1.5127l.876,2.7.6113,2.232h.084l.6123-2.232.8525-2.7h1.4639l-2.1006,6.2641Z"/><path d="M432.0752,48.2177a.9318.9318,0,0,1-.69-.2163.7594.7594,0,0,1-.21-.5517v-.24a.76.76,0,0,1,.21-.5517,1.1991,1.1991,0,0,1,1.374,0,.7454.7454,0,0,1,.2158.5517v.24a.7446.7446,0,0,1-.2158.5517A.9341.9341,0,0,1,432.0752,48.2177Zm-.7686.9117h1.5362v6.2641h-1.5362Z"/><path d="M437.0908,55.5376a3.1549,3.1549,0,0,1-1.2363-.2281,2.38,2.38,0,0,1-.9063-.66,2.97,2.97,0,0,1-.5576-1.0381,4.5006,4.5006,0,0,1-.1924-1.3618,4.4438,4.4438,0,0,1,.1924-1.356,2.9169,2.9169,0,0,1,.5576-1.0259,2.4152,2.4152,0,0,1,.9063-.6543,3.1567,3.1567,0,0,1,1.2363-.228,2.723,2.723,0,0,1,1.5654.42,2.36,2.36,0,0,1,.8946,1.1636l-1.2608.5644a1.3054,1.3054,0,0,0-.4013-.6542,1.1681,1.1681,0,0,0-.7979-.2579,1.1507,1.1507,0,0,0-.9668.4078,1.69,1.69,0,0,0-.3174,1.0683v1.14a1.6615,1.6615,0,0,0,.3174,1.062,1.1574,1.1574,0,0,0,.9668.4023,1.1973,1.1973,0,0,0,.8516-.2822,1.92,1.92,0,0,0,.4678-.7022l1.1767.564a2.4645,2.4645,0,0,1-.9482,1.2422A2.7805,2.7805,0,0,1,437.0908,55.5376Z"/><path d="M443.2471,55.5376a3.1332,3.1332,0,0,1-1.2422-.2339,2.5682,2.5682,0,0,1-.9238-.66,2.9447,2.9447,0,0,1-.5821-1.0322,4.6487,4.6487,0,0,1-.0058-2.7056,2.9373,2.9373,0,0,1,.57-1.0263,2.5136,2.5136,0,0,1,.9121-.66,3.0412,3.0412,0,0,1,1.2236-.2344,2.97,2.97,0,0,1,1.2715.2525,2.4546,2.4546,0,0,1,.8887.6835,2.97,2.97,0,0,1,.5215,1.002,4.1471,4.1471,0,0,1,.1738,1.2183v.5039h-4.1631V52.8a1.5285,1.5285,0,0,0,.3838,1.09,1.4854,1.4854,0,0,0,1.14.4111,1.7008,1.7008,0,0,0,.9424-.2383,2.664,2.664,0,0,0,.6533-.6079l.8282.9268a2.571,2.571,0,0,1-1.05.8486A3.6582,3.6582,0,0,1,443.2471,55.5376Zm-.0235-5.4a1.2318,1.2318,0,0,0-.9726.4077,1.5352,1.5352,0,0,0-.3594,1.0561v.0962h2.5674v-.1084a1.6492,1.6492,0,0,0-.3174-1.05A1.1027,1.1027,0,0,0,443.2236,50.1377Z"/><path d="M449.4629,55.5376a3.361,3.361,0,0,1-1.5127-.3062,3.4865,3.4865,0,0,1-1.08-.8457l.9365-.9121a2.82,2.82,0,0,0,.7618.624,1.9465,1.9465,0,0,0,.9541.228,1.3066,1.3066,0,0,0,.7978-.1919.6331.6331,0,0,0,.2461-.5283.5683.5683,0,0,0-.1738-.438,1.1116,1.1116,0,0,0-.5938-.2221l-.624-.084A2.9713,2.9713,0,0,1,447.62,52.28a1.6236,1.6236,0,0,1-.5332-1.3144,1.9442,1.9442,0,0,1,.168-.8218,1.7376,1.7376,0,0,1,.4795-.624,2.2057,2.2057,0,0,1,.75-.396,3.2535,3.2535,0,0,1,.9785-.1382,4.46,4.46,0,0,1,.81.0664,2.9264,2.9264,0,0,1,.6416.1919,2.4811,2.4811,0,0,1,.5283.312,4.8846,4.8846,0,0,1,.4678.4141l-.8995.9a2.3867,2.3867,0,0,0-.66-.48,1.8528,1.8528,0,0,0-.84-.1919,1.16,1.16,0,0,0-.7265.18.5756.5756,0,0,0-.2217.4683.5934.5934,0,0,0,.1855.4736,1.2878,1.2878,0,0,0,.6309.2344l.6357.084q2.0274.2877,2.0274,1.8476a1.8609,1.8609,0,0,1-.1856.834,1.8914,1.8914,0,0,1-.5224.6484,2.4632,2.4632,0,0,1-.81.42A3.5244,3.5244,0,0,1,449.4629,55.5376Z"/><path d="M455.9551,51.6494a8.625,8.625,0,0,1-.1621,1.686,8.2316,8.2316,0,0,1-.45,1.5122,6.9355,6.9355,0,0,1-.6719,1.2661,4.5628,4.5628,0,0,1-.8281.9356h-1.4522a5.8387,5.8387,0,0,0,.87-.9839,6.98,6.98,0,0,0,.6719-1.1817,6.6134,6.6134,0,0,0,.4317-1.332,6.8716,6.8716,0,0,0,.15-1.4463v-.8877a6.7263,6.7263,0,0,0-.15-1.4282,6.8942,6.8942,0,0,0-.4258-1.3262,6.6882,6.6882,0,0,0-.666-1.1816,6.4065,6.4065,0,0,0-.8819-1.0083h1.4522a4.9609,4.9609,0,0,1,.84.96,6.7649,6.7649,0,0,1,.666,1.2544,8.3237,8.3237,0,0,1,.4444,1.4936A8.4741,8.4741,0,0,1,455.9551,51.6494Z"/><path d="M499.8945,148.7861l-.84-2.4722h-3.3838l-.8408,2.4722h-1.02l2.9278-8.376h1.2842l2.9287,8.376Zm-2.5078-7.44h-.0605l-1.416,4.08h2.8925Z"/><path d="M502.3428,148.7861V140.41h5.1123v.8882h-4.1045v2.8076h3.8642v.8882h-3.8642v2.9038h4.1045v.8882Z"/><path d="M511.69,148.93a3.6059,3.6059,0,0,1-1.7392-.39,3.6859,3.6859,0,0,1-1.2246-1.0737l.7441-.6241a3.2575,3.2575,0,0,0,.9844.8941,2.5372,2.5372,0,0,0,1.2715.3057,1.9737,1.9737,0,0,0,1.374-.4317,1.4857,1.4857,0,0,0,.4736-1.1523,1.1774,1.1774,0,0,0-.3594-.9239,2.7177,2.7177,0,0,0-1.1875-.5161l-.6845-.1557a3.9729,3.9729,0,0,1-1.7588-.7984,1.9022,1.9022,0,0,1-.6055-1.5058,2.2831,2.2831,0,0,1,.2041-.9839,1.9688,1.9688,0,0,1,.5694-.72,2.5849,2.5849,0,0,1,.8769-.438,3.977,3.977,0,0,1,1.1211-.15,3.5263,3.5263,0,0,1,1.627.3481,3.13,3.13,0,0,1,1.1455,1.02l-.7559.5518a2.6114,2.6114,0,0,0-.84-.7559,2.4746,2.4746,0,0,0-1.2237-.2758,2.0846,2.0846,0,0,0-1.2666.3418,1.1949,1.1949,0,0,0-.4619,1.0258,1.08,1.08,0,0,0,.3906.9063,3.0126,3.0126,0,0,0,1.1817.4858l.6836.1563a3.5544,3.5544,0,0,1,1.7881.84,2.0515,2.0515,0,0,1,.5517,1.5,2.6569,2.6569,0,0,1-.1973,1.044,2.1485,2.1485,0,0,1-.57.792,2.6531,2.6531,0,0,1-.9062.5039A3.7587,3.7587,0,0,1,511.69,148.93Z"/><path d="M485.5186,163.186a.9434.9434,0,0,1-.7745-.2881,1.4162,1.4162,0,0,1-.2929-.72h-.0606a1.6029,1.6029,0,0,1-.6718.8638,2.09,2.09,0,0,1-1.1163.288,2.172,2.172,0,0,1-1.53-.5039,1.7728,1.7728,0,0,1-.5459-1.3681,1.5619,1.5619,0,0,1,.6416-1.3438,3.4133,3.4133,0,0,1,1.998-.4682h1.2246v-.6119a1.3421,1.3421,0,0,0-.3594-1.0083,1.5391,1.5391,0,0,0-1.1044-.3476,1.6639,1.6639,0,0,0-.9424.2519,2.0777,2.0777,0,0,0-.63.6719l-.5762-.54a2.1978,2.1978,0,0,1,.8037-.8579,2.5345,2.5345,0,0,1,1.3926-.354,2.56,2.56,0,0,1,1.752.5507,1.9375,1.9375,0,0,1,.624,1.5328v3.4h.708v.8521Zm-2.7608-.6719a2.4313,2.4313,0,0,0,.66-.084,1.6085,1.6085,0,0,0,.5166-.24,1.1931,1.1931,0,0,0,.3359-.36.8576.8576,0,0,0,.12-.4438v-1.02h-1.2715a2.3272,2.3272,0,0,0-1.207.24.7747.7747,0,0,0-.3769.6963v.252a.8373.8373,0,0,0,.33.708A1.4342,1.4342,0,0,0,482.7578,162.5141Z"/><path d="M488.4463,163.186a.9818.9818,0,0,1-.7627-.2822,1.0161,1.0161,0,0,1-.2578-.7139v-7.8838h.9609v8.0278h.9121v.8521Z"/><path d="M495.91,163.8764a1.52,1.52,0,0,1-.75,1.4053,4.4769,4.4769,0,0,1-2.25.4482,4.1263,4.1263,0,0,1-2.0879-.3955,1.2537,1.2537,0,0,1-.6358-1.1264,1.1033,1.1033,0,0,1,.2637-.7852,1.5548,1.5548,0,0,1,.72-.4136v-.1318a.89.89,0,0,1-.5508-.86.8668.8668,0,0,1,.2989-.7109,1.9735,1.9735,0,0,1,.7685-.3642v-.0479a2.0016,2.0016,0,0,1-.8584-.7583,2.1314,2.1314,0,0,1-.3056-1.1436,2.1957,2.1957,0,0,1,.1679-.8662,1.96,1.96,0,0,1,.4737-.68,2.1674,2.1674,0,0,1,.7324-.439,2.9944,2.9944,0,0,1,2.13.083v-.1079a1.0145,1.0145,0,0,1,.1679-.6016.6284.6284,0,0,1,.5518-.2383h.9238v.8521h-1.1758v.397a2.0117,2.0117,0,0,1,.5225.6919,2.1455,2.1455,0,0,1,.1865.9087,2.1972,2.1972,0,0,1-.1689.8667,1.9528,1.9528,0,0,1-.4737.68,2.1481,2.1481,0,0,1-.7382.439,2.7962,2.7962,0,0,1-.96.1567,3.0661,3.0661,0,0,1-.6006-.06,1.9939,1.9939,0,0,0-.5635.2456.5087.5087,0,0,0-.2519.45.3652.3652,0,0,0,.2646.372,2.0331,2.0331,0,0,0,.6836.0958h1.32a2.596,2.596,0,0,1,1.6739.4365A1.4838,1.4838,0,0,1,495.91,163.8764Zm-.9.0655a.7176.7176,0,0,0-.2813-.5938,1.6691,1.6691,0,0,0-1.0019-.2222h-2.0645a.8772.8772,0,0,0-.5762.84.9218.9218,0,0,0,.3067.6963,1.4956,1.4956,0,0,0,1.0371.2881h.8887a2.5509,2.5509,0,0,0,1.248-.252A.8169.8169,0,0,0,495.01,163.9419Zm-2.1475-3.5757a1.4868,1.4868,0,0,0,.9717-.2954,1.108,1.108,0,0,0,.36-.91v-.3374a1.1076,1.1076,0,0,0-.36-.91,1.7459,1.7459,0,0,0-1.9434,0,1.1076,1.1076,0,0,0-.36.91v.3374a1.108,1.108,0,0,0,.36.91A1.4889,1.4889,0,0,0,492.8623,160.3662Z"/><path d="M499.2949,163.33a2.7933,2.7933,0,0,1-1.1406-.228,2.46,2.46,0,0,1-.8818-.6538,3.0578,3.0578,0,0,1-.5694-1.02,4.4486,4.4486,0,0,1,0-2.67,3.0486,3.0486,0,0,1,.5694-1.0259,2.46,2.46,0,0,1,.8818-.6538,2.7933,2.7933,0,0,1,1.1406-.228,2.7513,2.7513,0,0,1,1.1338.228,2.53,2.53,0,0,1,.8818.6538,3.0271,3.0271,0,0,1,.5762,1.0259,4.49,4.49,0,0,1,0,2.67,3.0363,3.0363,0,0,1-.5762,1.02,2.53,2.53,0,0,1-.8818.6538A2.7513,2.7513,0,0,1,499.2949,163.33Zm0-.852a1.7452,1.7452,0,0,0,1.2715-.48,1.9613,1.9613,0,0,0,.4922-1.4639v-.8881a1.9613,1.9613,0,0,0-.4922-1.4639,1.9253,1.9253,0,0,0-2.5439,0,1.9607,1.9607,0,0,0-.4913,1.4639v.8881a1.9607,1.9607,0,0,0,.4913,1.4639A1.7459,1.7459,0,0,0,499.2949,162.478Z"/><path d="M503.6738,163.186v-6.1919h.961v1.14h.06a1.87,1.87,0,0,1,.6006-.7924,1.84,1.84,0,0,1,1.1875-.3477h.3721v.96h-.5635a2.1684,2.1684,0,0,0-1.2187.2939.8666.8666,0,0,0-.4375.7378v4.2Z"/><path d="M508.5586,155.542a.5891.5891,0,0,1-.4512-.15.5534.5534,0,0,1-.1367-.39v-.1558a.5537.5537,0,0,1,.1367-.39.751.751,0,0,1,.9,0,.5549.5549,0,0,1,.1387.39v.1558a.5546.5546,0,0,1-.1387.39A.5856.5856,0,0,1,508.5586,155.542Zm-.4805,1.4521h.96v6.1919h-.96Z"/><path d="M512.4463,163.186a.9831.9831,0,0,1-.7627-.2813,1.0471,1.0471,0,0,1-.2578-.7363v-4.3223h-1.02v-.852h.5762a.5654.5654,0,0,0,.4258-.126.6534.6534,0,0,0,.1133-.438v-1.1523h.8652v1.7163h1.3555v.852h-1.3555v4.4878h1.26v.8521Z"/><path d="M515.29,154.3061h.96v3.6846h.0479a2.0141,2.0141,0,0,1,.6416-.8316,1.8152,1.8152,0,0,1,1.11-.309,1.9457,1.9457,0,0,1,1.5186.6181,2.5194,2.5194,0,0,1,.5576,1.7456v3.9722h-.96v-3.812q0-1.6722-1.4043-1.6719a2.138,2.138,0,0,0-.5576.0723,1.5852,1.5852,0,0,0-.4853.2163,1.0651,1.0651,0,0,0-.3428.3667,1.0445,1.0445,0,0,0-.126.5234v4.3052h-.96Z"/><path d="M522.1055,163.186v-6.1919h.9609v.9966h.0469a3.28,3.28,0,0,1,.2461-.4458,1.5093,1.5093,0,0,1,.7988-.606,1.9615,1.9615,0,0,1,.623-.0888,2.2559,2.2559,0,0,1,1.129.2915,1.7586,1.7586,0,0,1,.7675.9575h.0244a1.901,1.901,0,0,1,.63-.8745,1.9359,1.9359,0,0,1,1.2539-.3745,1.8562,1.8562,0,0,1,1.4825.6181,2.5923,2.5923,0,0,1,.5332,1.7456v3.9722h-.959v-3.812a2.0319,2.0319,0,0,0-.3242-1.251,1.2217,1.2217,0,0,0-1.0323-.4209,2.004,2.004,0,0,0-.5459.0723,1.4939,1.4939,0,0,0-.4629.2163,1.0482,1.0482,0,0,0-.3232.3667,1.0854,1.0854,0,0,0-.12.5234v4.3052h-.96v-3.812a2.0319,2.0319,0,0,0-.3242-1.251,1.19,1.19,0,0,0-1.0078-.4209,2.0677,2.0677,0,0,0-.5518.0723,1.4839,1.4839,0,0,0-.4687.2163,1.1179,1.1179,0,0,0-.33.3667,1.0442,1.0442,0,0,0-.125.5234v4.3052Z"/><path d="M598.9141,159.7861l-2.0391-8.376h1.0684l.8994,4.0318.6963,3.1323h.0234l.78-3.1323,1.0556-4.0318h1.1524l1.0195,4.0318.78,3.12h.0361l.7207-3.12.9473-4.0318h1.0322l-2.1474,8.376h-1.1172l-1.0918-4.1758-.7676-3.0723H601.94l-.793,3.0723-1.1153,4.1758Z"/><path d="M608.2266,159.7861v-6.1919h.96v1.14h.06a1.8769,1.8769,0,0,1,.6006-.7924,1.8448,1.8448,0,0,1,1.1885-.3477h.371v.96h-.5634a2.1652,2.1652,0,0,0-1.2178.2939.8656.8656,0,0,0-.4385.7378v4.2Z"/><path d="M617.082,159.7861a.9423.9423,0,0,1-.7734-.2881,1.4259,1.4259,0,0,1-.294-.72h-.0595a1.6066,1.6066,0,0,1-.6719.8637,2.0926,2.0926,0,0,1-1.1172.2881,2.1682,2.1682,0,0,1-1.5293-.5039,1.77,1.77,0,0,1-.5469-1.3681,1.5629,1.5629,0,0,1,.6426-1.3438,3.4139,3.4139,0,0,1,1.9981-.4682h1.2246v-.6119a1.3426,1.3426,0,0,0-.36-1.0083,1.5377,1.5377,0,0,0-1.1045-.3476,1.661,1.661,0,0,0-.9414.2519,2.08,2.08,0,0,0-.6308.6719l-.5762-.54a2.1927,2.1927,0,0,1,.8047-.8579,2.532,2.532,0,0,1,1.3926-.354,2.56,2.56,0,0,1,1.7519.5507,1.9369,1.9369,0,0,1,.6231,1.5327v3.4h.7089v.8521Zm-2.76-.6719a2.4357,2.4357,0,0,0,.66-.084,1.6109,1.6109,0,0,0,.5156-.24,1.18,1.18,0,0,0,.336-.36.8585.8585,0,0,0,.1211-.4438v-1.02h-1.2725a2.3253,2.3253,0,0,0-1.206.24.7755.7755,0,0,0-.378.6963v.252a.84.84,0,0,0,.33.708A1.4371,1.4371,0,0,0,614.3223,159.1142Z"/><path d="M618.99,153.5942h.961v.9966h.0468a1.74,1.74,0,0,1,.7032-.8613,2.1045,2.1045,0,0,1,1.1093-.2793,2.3494,2.3494,0,0,1,1.044.228,2.2686,2.2686,0,0,1,.7978.6479,2.9469,2.9469,0,0,1,.5039,1.02,5.2806,5.2806,0,0,1,0,2.688,2.943,2.943,0,0,1-.5039,1.02,2.2643,2.2643,0,0,1-.7978.6479,2.3494,2.3494,0,0,1-1.044.228,1.8766,1.8766,0,0,1-1.8125-1.1406h-.0468v3.3965h-.961Zm2.5567,5.4839a1.6506,1.6506,0,0,0,1.2832-.5122,1.9156,1.9156,0,0,0,.4687-1.3452V156.16a1.9135,1.9135,0,0,0-.4687-1.3447,1.6492,1.6492,0,0,0-1.2832-.5127,2.0986,2.0986,0,0,0-.6182.09,1.7214,1.7214,0,0,0-.51.2471,1.2048,1.2048,0,0,0-.3427.38.9533.9533,0,0,0-.125.4766v2.3154a1.1191,1.1191,0,0,0,.125.5371,1.2143,1.2143,0,0,0,.3427.3979,1.5388,1.5388,0,0,0,.51.2471A2.23,2.23,0,0,0,621.5469,159.0781Z"/><path d="M625.9512,153.5942h.959v.9966h.0488a1.7406,1.7406,0,0,1,.7012-.8613,2.1106,2.1106,0,0,1,1.11-.2793,2.3556,2.3556,0,0,1,1.044.228,2.2719,2.2719,0,0,1,.7988.6479,3.0187,3.0187,0,0,1,.5039,1.02,5.2835,5.2835,0,0,1,0,2.688,3.0146,3.0146,0,0,1-.5039,1.02,2.2676,2.2676,0,0,1-.7988.6479,2.3556,2.3556,0,0,1-1.044.228,1.8734,1.8734,0,0,1-1.8115-1.1406H626.91v3.3965h-.959Zm2.5556,5.4839a1.6541,1.6541,0,0,0,1.2842-.5122,1.92,1.92,0,0,0,.4678-1.3452V156.16a1.9176,1.9176,0,0,0-.4678-1.3447,1.6528,1.6528,0,0,0-1.2842-.5127,2.0979,2.0979,0,0,0-.6181.09,1.7214,1.7214,0,0,0-.51.2471,1.19,1.19,0,0,0-.3418.38.9553.9553,0,0,0-.1269.4766v2.3154a1.12,1.12,0,0,0,.1269.5371,1.2,1.2,0,0,0,.3418.3979,1.5388,1.5388,0,0,0,.51.2471A2.23,2.23,0,0,0,628.5068,159.0781Z"/><path d="M635.2383,159.93a2.7823,2.7823,0,0,1-1.1465-.228,2.4633,2.4633,0,0,1-.875-.6538,3.0007,3.0007,0,0,1-.5645-1.02,4.5964,4.5964,0,0,1,0-2.67,2.9925,2.9925,0,0,1,.5645-1.0259,2.4633,2.4633,0,0,1,.875-.6538,2.7823,2.7823,0,0,1,1.1465-.228,2.63,2.63,0,0,1,1.1152.227,2.4822,2.4822,0,0,1,.8408.6279,2.8237,2.8237,0,0,1,.5342.9507,3.7767,3.7767,0,0,1,.1856,1.208v.4541h-4.4522v.2881a2.1192,2.1192,0,0,0,.126.7383,1.7475,1.7475,0,0,0,.36.5937,1.6424,1.6424,0,0,0,.5752.396,1.98,1.98,0,0,0,.7754.1441,1.8838,1.8838,0,0,0,1.0254-.2759,1.813,1.813,0,0,0,.6778-.792l.6835.4951a2.3823,2.3823,0,0,1-.9355,1.0323A2.82,2.82,0,0,1,635.2383,159.93Zm0-5.6762a1.83,1.83,0,0,0-.7207.1377,1.6306,1.6306,0,0,0-.5576.3872,1.828,1.828,0,0,0-.3662.59,2.0448,2.0448,0,0,0-.1319.7456v.0835h3.4209v-.1313a1.88,1.88,0,0,0-.4512-1.3179A1.5321,1.5321,0,0,0,635.2383,154.2539Z"/><path d="M643.458,158.79H643.41a1.891,1.891,0,0,1-1.8125,1.1406,2.3481,2.3481,0,0,1-1.043-.228,2.2676,2.2676,0,0,1-.7988-.6479,2.9588,2.9588,0,0,1-.5039-1.02,5.2806,5.2806,0,0,1,0-2.688,2.9628,2.9628,0,0,1,.5039-1.02,2.2719,2.2719,0,0,1,.7988-.6479,2.3481,2.3481,0,0,1,1.043-.228,2.1081,2.1081,0,0,1,1.11.2793,1.7433,1.7433,0,0,1,.7022.8613h.0478v-3.6846h.96v8.88h-.96Zm-1.5967.2886a2.2427,2.2427,0,0,0,.6192-.0845,1.5566,1.5566,0,0,0,.51-.2471,1.21,1.21,0,0,0,.3418-.3979,1.12,1.12,0,0,0,.126-.5371v-2.3154a.9543.9543,0,0,0-.126-.4766,1.2006,1.2006,0,0,0-.3418-.38,1.7439,1.7439,0,0,0-.51-.2471,2.11,2.11,0,0,0-.6192-.09,1.6521,1.6521,0,0,0-1.2832.5127,1.9135,1.9135,0,0,0-.4687,1.3447v1.0611a1.9156,1.9156,0,0,0,.4687,1.3452A1.6535,1.6535,0,0,0,641.8613,159.0781Z"/><path d="M649.3867,151.41h2.8067a3.6526,3.6526,0,0,1,1.416.2642,2.85,2.85,0,0,1,1.0859.7856,3.5654,3.5654,0,0,1,.6914,1.3081,7.1177,7.1177,0,0,1,0,3.66,3.5654,3.5654,0,0,1-.6914,1.3081,2.85,2.85,0,0,1-1.0859.7856,3.6526,3.6526,0,0,1-1.416.2642h-2.8067Zm2.8067,7.4878a2.5185,2.5185,0,0,0,.9492-.1738,2.0616,2.0616,0,0,0,.7441-.51,2.3741,2.3741,0,0,0,.4854-.8223,3.2751,3.2751,0,0,0,.1738-1.11V154.914a3.2751,3.2751,0,0,0-.1738-1.11,2.3741,2.3741,0,0,0-.4854-.8223,2.0679,2.0679,0,0,0-.7441-.51,2.5283,2.5283,0,0,0-.9492-.1738h-1.7989v6.6Z"/><path d="M657.4375,159.7861V151.41H662.55v.8882h-4.1045v2.8076H662.31v.8882h-3.8643v2.9038H662.55v.8882Z"/><path d="M666.63,155.67l-1.1885,1.32v2.7959h-1.0078V151.41h1.0078v4.4522h.0371l1.1992-1.4522,2.5323-3h1.2353l-3.1191,3.5879,3.3359,4.7881h-1.248Z"/><path d="M71.124,144.1782H70.1162v-8.376h3.3359a2.3416,2.3416,0,0,1,1.7217.6118,2.3745,2.3745,0,0,1,.6182,1.7642,2.5432,2.5432,0,0,1-.4258,1.518,2.0427,2.0427,0,0,1-1.2544.7862l1.92,3.6958h-1.14l-1.812-3.6H71.124Zm2.3281-4.4639a1.3,1.3,0,0,0,.93-.312,1.1623,1.1623,0,0,0,.33-.8882v-.624a1.1619,1.1619,0,0,0-.33-.8877,1.3,1.3,0,0,0-.93-.312H71.124v3.0239Z"/><path d="M79.86,144.3222a2.789,2.789,0,0,1-1.14-.228,2.46,2.46,0,0,1-.8823-.6538,3.0761,3.0761,0,0,1-.57-1.02,4.4694,4.4694,0,0,1,0-2.67,3.0666,3.0666,0,0,1,.57-1.0259,2.4588,2.4588,0,0,1,.8823-.6538,2.7891,2.7891,0,0,1,1.14-.2281,2.7515,2.7515,0,0,1,1.1342.2281,2.5311,2.5311,0,0,1,.8819.6538,3.02,3.02,0,0,1,.5761,1.0259,4.4778,4.4778,0,0,1,0,2.67,3.0293,3.0293,0,0,1-.5761,1.02,2.5323,2.5323,0,0,1-.8819.6538A2.7515,2.7515,0,0,1,79.86,144.3222Zm0-.852a1.7455,1.7455,0,0,0,1.2719-.48,1.9609,1.9609,0,0,0,.4922-1.4639v-.8882a1.9608,1.9608,0,0,0-.4922-1.4638,1.9253,1.9253,0,0,0-2.5439,0,1.9611,1.9611,0,0,0-.4917,1.4638v.8882a1.9612,1.9612,0,0,0,.4917,1.4639A1.7456,1.7456,0,0,0,79.86,143.47Z"/><path d="M86.58,144.3222a2.7894,2.7894,0,0,1-1.14-.228,2.46,2.46,0,0,1-.8823-.6538,3.0761,3.0761,0,0,1-.57-1.02,4.4694,4.4694,0,0,1,0-2.67,3.0666,3.0666,0,0,1,.57-1.0259,2.4588,2.4588,0,0,1,.8823-.6538,2.7894,2.7894,0,0,1,1.14-.2281,2.7523,2.7523,0,0,1,1.1343.2281,2.5316,2.5316,0,0,1,.8818.6538,3.0221,3.0221,0,0,1,.5762,1.0259,4.48,4.48,0,0,1,0,2.67,3.0312,3.0312,0,0,1-.5762,1.02,2.5329,2.5329,0,0,1-.8818.6538A2.7523,2.7523,0,0,1,86.58,144.3222Zm0-.852a1.7459,1.7459,0,0,0,1.272-.48,1.9613,1.9613,0,0,0,.4921-1.4639v-.8882a1.9612,1.9612,0,0,0-.4921-1.4638,1.9254,1.9254,0,0,0-2.544,0,1.9611,1.9611,0,0,0-.4917,1.4638v.8882a1.9612,1.9612,0,0,0,.4917,1.4639A1.7457,1.7457,0,0,0,86.58,143.47Z"/><path d="M92.3281,144.1782a.9827.9827,0,0,1-.7622-.2813,1.0471,1.0471,0,0,1-.2578-.7363v-4.3223h-1.02v-.852h.5757a.5649.5649,0,0,0,.4262-.126.6559.6559,0,0,0,.1138-.438V136.27h.8643v1.7163H93.624v.852H92.2681v4.4878h1.26v.8521Z"/><path d="M98.0039,135.2983h.96v5.6279h.0478L99.96,139.87l1.7519-1.8838h1.1641l-2.292,2.4477,2.52,3.7442H101.94l-2.0522-3.1558-.9238.9478v2.208h-.96Z"/><path d="M106.4521,144.3222a2.7778,2.7778,0,0,1-1.1459-.228,2.4663,2.4663,0,0,1-.876-.6538,2.9964,2.9964,0,0,1-.564-1.02,4.5964,4.5964,0,0,1,0-2.67,2.9883,2.9883,0,0,1,.564-1.0259,2.4651,2.4651,0,0,1,.876-.6538,2.7778,2.7778,0,0,1,1.1459-.2281,2.6346,2.6346,0,0,1,1.1158.2271,2.479,2.479,0,0,1,.84.6279,2.7991,2.7991,0,0,1,.5337.9507,3.7517,3.7517,0,0,1,.186,1.208v.4541h-4.4521v.2881a2.11,2.11,0,0,0,.1264.7383,1.7466,1.7466,0,0,0,.36.5937,1.6444,1.6444,0,0,0,.5757.396,1.9759,1.9759,0,0,0,.7744.1441,1.8834,1.8834,0,0,0,1.0259-.2759,1.8121,1.8121,0,0,0,.6777-.792l.6841.4951a2.3858,2.3858,0,0,1-.936,1.0322A2.8209,2.8209,0,0,1,106.4521,144.3222Zm0-5.6762a1.8264,1.8264,0,0,0-.72.1376,1.6266,1.6266,0,0,0-.5581.3873,1.8206,1.8206,0,0,0-.3657.59,2.0344,2.0344,0,0,0-.1323.7456v.0835h3.42v-.1314a1.8843,1.8843,0,0,0-.45-1.3178A1.5354,1.5354,0,0,0,106.4521,138.646Z"/><path d="M114.4678,137.9863h.9482l-2.772,7.6318a3.3733,3.3733,0,0,1-.2163.4619.8971.8971,0,0,1-.2636.294,1.0548,1.0548,0,0,1-.39.1562,2.9074,2.9074,0,0,1-.57.0479h-.4917v-.8521h.9717l.4683-1.3178-2.316-6.4219h.96l1.4878,4.2036.2881,1.0063h.06l.336-1.0063Z"/><path d="M119.4717,144.1782v-6.1919h.96v.9966h.0479a3.2907,3.2907,0,0,1,.2461-.4458,1.5375,1.5375,0,0,1,.3359-.3623,1.5581,1.5581,0,0,1,.4619-.2437,1.968,1.968,0,0,1,.6241-.0889,2.2563,2.2563,0,0,1,1.1284.2915,1.76,1.76,0,0,1,.7676.9576h.0244a1.9,1.9,0,0,1,.63-.8745,1.9342,1.9342,0,0,1,1.2539-.3746,1.8545,1.8545,0,0,1,1.4819.6182,2.5892,2.5892,0,0,1,.5342,1.7456v3.9722h-.96v-3.812a2.0283,2.0283,0,0,0-.3242-1.251,1.2193,1.2193,0,0,0-1.0317-.4209,2.0093,2.0093,0,0,0-.5464.0723,1.481,1.481,0,0,0-.4619.2163,1.0488,1.0488,0,0,0-.3238.3667,1.0854,1.0854,0,0,0-.12.5234v4.3052h-.96v-3.812a2.0283,2.0283,0,0,0-.3242-1.251,1.19,1.19,0,0,0-1.0078-.4209,2.0756,2.0756,0,0,0-.5522.0723,1.4678,1.4678,0,0,0-.4678.2163,1.1135,1.1135,0,0,0-.33.3667,1.0445,1.0445,0,0,0-.126.5234v4.3052Z"/><path d="M134.4473,144.1782a.9423.9423,0,0,1-.774-.2881,1.4214,1.4214,0,0,1-.2939-.72h-.06a1.6022,1.6022,0,0,1-.6718.8637,2.0894,2.0894,0,0,1-1.1163.2881,2.17,2.17,0,0,1-1.53-.5039,1.77,1.77,0,0,1-.5464-1.3681,1.5611,1.5611,0,0,1,.6421-1.3438,3.4132,3.4132,0,0,1,1.998-.4683h1.2241v-.6118a1.3406,1.3406,0,0,0-.36-1.0083,1.5374,1.5374,0,0,0-1.104-.3476,1.6628,1.6628,0,0,0-.9424.2519,2.0777,2.0777,0,0,0-.63.6719l-.5762-.54a2.19,2.19,0,0,1,.8042-.858,2.5336,2.5336,0,0,1,1.3921-.354,2.56,2.56,0,0,1,1.752.5508,1.9374,1.9374,0,0,1,.624,1.5327v3.4h.708v.8521Zm-2.76-.6719a2.4365,2.4365,0,0,0,.66-.084,1.62,1.62,0,0,0,.5161-.24,1.1868,1.1868,0,0,0,.3359-.36.8576.8576,0,0,0,.12-.4438v-1.02h-1.2719a2.3245,2.3245,0,0,0-1.2061.24.7756.7756,0,0,0-.3779.6963v.2519a.8386.8386,0,0,0,.33.7081A1.4368,1.4368,0,0,0,131.687,143.5063Z"/><path d="M136.3555,144.1782v-6.1919h.96v.9966h.0479a2.0151,2.0151,0,0,1,.6421-.8316,1.8129,1.8129,0,0,1,1.11-.3091,1.9426,1.9426,0,0,1,1.5181.6182,2.5146,2.5146,0,0,1,.5581,1.7456v3.9722h-.96v-3.812q0-1.6722-1.4038-1.6719a2.1368,2.1368,0,0,0-.5581.0723,1.6054,1.6054,0,0,0-.4858.2163,1.0684,1.0684,0,0,0-.3423.3667,1.0445,1.0445,0,0,0-.126.5234v4.3052Z"/><path d="M147.6714,144.1782a.942.942,0,0,1-.7739-.2881,1.4215,1.4215,0,0,1-.294-.72h-.06a1.6028,1.6028,0,0,1-.6719.8637,2.089,2.089,0,0,1-1.1162.2881,2.17,2.17,0,0,1-1.53-.5039,1.77,1.77,0,0,1-.5464-1.3681,1.5613,1.5613,0,0,1,.6421-1.3438,3.4132,3.4132,0,0,1,1.998-.4683h1.2242v-.6118a1.3407,1.3407,0,0,0-.36-1.0083,1.5372,1.5372,0,0,0-1.104-.3476,1.663,1.663,0,0,0-.9424.2519,2.0788,2.0788,0,0,0-.63.6719l-.5761-.54a2.1885,2.1885,0,0,1,.8042-.858,2.533,2.533,0,0,1,1.392-.354,2.56,2.56,0,0,1,1.752.5508,1.9374,1.9374,0,0,1,.624,1.5327v3.4h.708v.8521Zm-2.76-.6719a2.436,2.436,0,0,0,.66-.084,1.6188,1.6188,0,0,0,.5161-.24,1.1856,1.1856,0,0,0,.3359-.36.8577.8577,0,0,0,.12-.4438v-1.02h-1.272a2.3245,2.3245,0,0,0-1.2061.24.7756.7756,0,0,0-.3779.6963v.2519a.8389.8389,0,0,0,.33.7081A1.437,1.437,0,0,0,144.9111,143.5063Z"/><path d="M154.7993,144.8686a1.5211,1.5211,0,0,1-.75,1.4053,4.48,4.48,0,0,1-2.25.4482,4.1289,4.1289,0,0,1-2.0884-.3955,1.254,1.254,0,0,1-.6357-1.1264,1.1033,1.1033,0,0,1,.2637-.7852,1.5509,1.5509,0,0,1,.72-.4136V143.87a.89.89,0,0,1-.5518-.86.8644.8644,0,0,1,.3-.7109,1.9663,1.9663,0,0,1,.7681-.3643v-.0478a1.9968,1.9968,0,0,1-.8579-.7583,2.1229,2.1229,0,0,1-.3062-1.1436,2.1958,2.1958,0,0,1,.168-.8662,1.944,1.944,0,0,1,.4741-.68,2.1582,2.1582,0,0,1,.732-.4389,2.9927,2.9927,0,0,1,2.13.083v-.1079a1.0181,1.0181,0,0,1,.168-.6016.6282.6282,0,0,1,.5523-.2383h.9238v.8521h-1.1758v.397a2.03,2.03,0,0,1,.522.6919,2.1529,2.1529,0,0,1,.186.9086,2.1963,2.1963,0,0,1-.1684.8667,1.9471,1.9471,0,0,1-.4737.68,2.1485,2.1485,0,0,1-.7383.439,2.7973,2.7973,0,0,1-.96.1567,3.0535,3.0535,0,0,1-.6-.06,1.9846,1.9846,0,0,0-.564.2456.5085.5085,0,0,0-.2519.45.3654.3654,0,0,0,.2641.372,2.0361,2.0361,0,0,0,.6841.0957h1.32a2.5944,2.5944,0,0,1,1.6739.4366A1.4829,1.4829,0,0,1,154.7993,144.8686Zm-.9.0654a.7164.7164,0,0,0-.2817-.5937,1.6714,1.6714,0,0,0-1.002-.2222h-2.0639a.8765.8765,0,0,0-.5762.84.9214.9214,0,0,0,.3061.6963,1.4979,1.4979,0,0,0,1.0376.288h.8882a2.5512,2.5512,0,0,0,1.2481-.2519A.8173.8173,0,0,0,153.8989,144.934Zm-2.1479-3.5756a1.4875,1.4875,0,0,0,.9721-.2955,1.1088,1.1088,0,0,0,.36-.91v-.3374a1.1086,1.1086,0,0,0-.36-.91,1.7465,1.7465,0,0,0-1.9438,0,1.1076,1.1076,0,0,0-.36.91v.3374a1.1078,1.1078,0,0,0,.36.91A1.4863,1.4863,0,0,0,151.751,141.3584Z"/><path d="M158.1714,144.3222a2.7783,2.7783,0,0,1-1.146-.228,2.468,2.468,0,0,1-.876-.6538,3,3,0,0,1-.564-1.02,4.5964,4.5964,0,0,1,0-2.67,2.9916,2.9916,0,0,1,.564-1.0259,2.4668,2.4668,0,0,1,.876-.6538,2.7783,2.7783,0,0,1,1.146-.2281,2.6341,2.6341,0,0,1,1.1157.2271,2.479,2.479,0,0,1,.84.6279,2.7974,2.7974,0,0,1,.5337.9507,3.749,3.749,0,0,1,.1861,1.208v.4541H156.395v.2881a2.1079,2.1079,0,0,0,.1265.7383,1.7464,1.7464,0,0,0,.36.5937,1.6444,1.6444,0,0,0,.5757.396,1.9766,1.9766,0,0,0,.7744.1441,1.8834,1.8834,0,0,0,1.0259-.2759,1.813,1.813,0,0,0,.6778-.792l.684.4951a2.3858,2.3858,0,0,1-.936,1.0322A2.82,2.82,0,0,1,158.1714,144.3222Zm0-5.6762a1.826,1.826,0,0,0-.72.1376,1.6256,1.6256,0,0,0-.5581.3873,1.8192,1.8192,0,0,0-.3658.59,2.0365,2.0365,0,0,0-.1323.7456v.0835h3.42v-.1314a1.8843,1.8843,0,0,0-.45-1.3178A1.5354,1.5354,0,0,0,158.1714,138.646Z"/><path d="M166.3911,143.1816h-.0478a1.89,1.89,0,0,1-1.8121,1.1406,2.3524,2.3524,0,0,1-1.0439-.228,2.2662,2.2662,0,0,1-.7983-.648,2.9663,2.9663,0,0,1-.5039-1.02,5.2806,5.2806,0,0,1,0-2.688,2.9716,2.9716,0,0,1,.5039-1.02,2.27,2.27,0,0,1,.7983-.6479,2.3524,2.3524,0,0,1,1.0439-.2281,2.1086,2.1086,0,0,1,1.11.2793,1.7414,1.7414,0,0,1,.7022.8614h.0478v-3.6846h.96v8.88h-.96Zm-1.5962.2886a2.2329,2.2329,0,0,0,.6182-.0845,1.5515,1.5515,0,0,0,.51-.2471,1.2093,1.2093,0,0,0,.3418-.3979,1.12,1.12,0,0,0,.126-.5371v-2.3155a.9542.9542,0,0,0-.126-.4765,1.1984,1.1984,0,0,0-.3418-.38,1.7347,1.7347,0,0,0-.51-.2471,2.101,2.101,0,0,0-.6182-.09,1.6511,1.6511,0,0,0-1.2837.5127,1.9153,1.9153,0,0,0-.4682,1.3447v1.0611a1.9176,1.9176,0,0,0,.4682,1.3452A1.6525,1.6525,0,0,0,164.7949,143.47Z"/><path d="M172.7031,136.5341a.5873.5873,0,0,1-.45-.15.5542.5542,0,0,1-.1377-.39v-.1558a.5543.5543,0,0,1,.1377-.39.751.751,0,0,1,.9,0,.5543.5543,0,0,1,.1377.39v.1558a.5542.5542,0,0,1-.1377.39A.5873.5873,0,0,1,172.7031,136.5341Zm-.48,1.4522h.96v6.1919h-.96Z"/><path d="M175.2231,144.1782v-6.1919h.96v.9966h.0479a2.0157,2.0157,0,0,1,.642-.8316,1.8132,1.8132,0,0,1,1.11-.3091,1.9427,1.9427,0,0,1,1.5181.6182,2.515,2.515,0,0,1,.5581,1.7456v3.9722h-.96v-3.812q0-1.6722-1.4038-1.6719a2.1362,2.1362,0,0,0-.5581.0723,1.6043,1.6043,0,0,0-.4858.2163,1.0684,1.0684,0,0,0-.3423.3667,1.0445,1.0445,0,0,0-.126.5234v4.3052Z"/><path d="M186.2393,144.1782a.9824.9824,0,0,1-.7622-.2813,1.0472,1.0472,0,0,1-.2579-.7363v-4.3223h-1.02v-.852h.5757a.5653.5653,0,0,0,.4263-.126.656.656,0,0,0,.1137-.438V136.27h.8643v1.7163h1.356v.852h-1.356v4.4878h1.26v.8521Z"/><path d="M189.083,135.2983h.96v3.6846h.0478a2.0159,2.0159,0,0,1,.6421-.8316,1.8132,1.8132,0,0,1,1.11-.3091,1.9424,1.9424,0,0,1,1.518.6182,2.5146,2.5146,0,0,1,.5581,1.7456v3.9722h-.96v-3.812q0-1.6722-1.4038-1.6719a2.1362,2.1362,0,0,0-.5581.0723,1.606,1.606,0,0,0-.4859.2163,1.0693,1.0693,0,0,0-.3423.3667,1.0455,1.0455,0,0,0-.1259.5234v4.3052h-.96Z"/><path d="M198.2271,144.3222a2.7779,2.7779,0,0,1-1.146-.228,2.4663,2.4663,0,0,1-.876-.6538,2.9964,2.9964,0,0,1-.564-1.02,4.5964,4.5964,0,0,1,0-2.67,2.9883,2.9883,0,0,1,.564-1.0259,2.4651,2.4651,0,0,1,.876-.6538,2.7779,2.7779,0,0,1,1.146-.2281,2.6344,2.6344,0,0,1,1.1157.2271,2.479,2.479,0,0,1,.84.6279,2.7991,2.7991,0,0,1,.5337.9507,3.7517,3.7517,0,0,1,.186,1.208v.4541h-4.4521v.2881a2.11,2.11,0,0,0,.1264.7383,1.7466,1.7466,0,0,0,.36.5937,1.6444,1.6444,0,0,0,.5757.396,1.9759,1.9759,0,0,0,.7744.1441,1.8834,1.8834,0,0,0,1.0259-.2759,1.8121,1.8121,0,0,0,.6777-.792l.6841.4951a2.3858,2.3858,0,0,1-.936,1.0322A2.8208,2.8208,0,0,1,198.2271,144.3222Zm0-5.6762a1.8265,1.8265,0,0,0-.72.1376,1.6266,1.6266,0,0,0-.5581.3873,1.8206,1.8206,0,0,0-.3657.59,2.0344,2.0344,0,0,0-.1323.7456v.0835h3.42v-.1314a1.8843,1.8843,0,0,0-.45-1.3178A1.5354,1.5354,0,0,0,198.2271,138.646Z"/><path d="M205.3188,135.2983h.96v5.6279h.0479l.9482-1.0561,1.752-1.8838h1.1645l-2.2925,2.4477,2.52,3.7442h-1.164l-2.0523-3.1558-.9238.9478v2.208h-.96Z"/><path d="M213.7666,144.3222a2.7775,2.7775,0,0,1-1.1455-.228,2.476,2.476,0,0,1-.876-.6538,2.9988,2.9988,0,0,1-.5644-1.02,4.6165,4.6165,0,0,1,0-2.67,2.9907,2.9907,0,0,1,.5644-1.0259,2.4748,2.4748,0,0,1,.876-.6538,2.7776,2.7776,0,0,1,1.1455-.2281,2.6348,2.6348,0,0,1,1.1162.2271,2.4688,2.4688,0,0,1,.84.6279,2.7916,2.7916,0,0,1,.5341.9507,3.7489,3.7489,0,0,1,.1866,1.208v.4541h-4.4522v.2881a2.1192,2.1192,0,0,0,.126.7383,1.76,1.76,0,0,0,.3594.5937,1.6543,1.6543,0,0,0,.5761.396,1.978,1.978,0,0,0,.7744.1441,1.8814,1.8814,0,0,0,1.0254-.2759,1.8141,1.8141,0,0,0,.6787-.792l.6836.4951a2.3876,2.3876,0,0,1-.9355,1.0322A2.8251,2.8251,0,0,1,213.7666,144.3222Zm0-5.6762a1.8235,1.8235,0,0,0-.72.1376,1.6142,1.6142,0,0,0-.5576.3873,1.8119,1.8119,0,0,0-.3663.59,2.0469,2.0469,0,0,0-.1318.7456v.0835h3.42v-.1314a1.8843,1.8843,0,0,0-.45-1.3178A1.5357,1.5357,0,0,0,213.7666,138.646Z"/><path d="M221.7832,137.9863h.9482l-2.7724,7.6318a3.2841,3.2841,0,0,1-.2158.4619.904.904,0,0,1-.2637.294,1.0541,1.0541,0,0,1-.3906.1562,2.894,2.894,0,0,1-.5694.0479h-.4922v-.8521h.9717l.4678-1.3178-2.3154-6.4219h.96L219.6,142.19l.2881,1.0063h.06l.3359-1.0063Z"/><path d="M70.02,158.5781v-6.1919h.96v.9966h.0478a3.2907,3.2907,0,0,1,.2461-.4458,1.5358,1.5358,0,0,1,.336-.3623,1.5569,1.5569,0,0,1,.4619-.2437,1.9674,1.9674,0,0,1,.624-.0889,2.2561,2.2561,0,0,1,1.1284.2915,1.7593,1.7593,0,0,1,.7676.9576h.0244a1.9,1.9,0,0,1,.63-.8745,1.9344,1.9344,0,0,1,1.2539-.3746,1.8543,1.8543,0,0,1,1.4819.6182,2.5894,2.5894,0,0,1,.5342,1.7456v3.9722h-.96v-3.812a2.0283,2.0283,0,0,0-.3243-1.251,1.2192,1.2192,0,0,0-1.0317-.4209,2.01,2.01,0,0,0-.5464.0723,1.481,1.481,0,0,0-.4619.2163,1.05,1.05,0,0,0-.3237.3667,1.0854,1.0854,0,0,0-.12.5234v4.3052h-.96v-3.812a2.0283,2.0283,0,0,0-.3242-1.251,1.1906,1.1906,0,0,0-1.0078-.4209,2.0768,2.0768,0,0,0-.5523.0723,1.4688,1.4688,0,0,0-.4678.2163,1.1121,1.1121,0,0,0-.33.3667,1.0445,1.0445,0,0,0-.126.5234v4.3052Z"/><path d="M84.9956,158.5781a.942.942,0,0,1-.7739-.2881,1.4215,1.4215,0,0,1-.294-.72h-.06a1.6028,1.6028,0,0,1-.6719.8637,2.089,2.089,0,0,1-1.1162.2881,2.17,2.17,0,0,1-1.53-.5039,1.77,1.77,0,0,1-.5464-1.3681,1.5613,1.5613,0,0,1,.6421-1.3438,3.4136,3.4136,0,0,1,1.9981-.4683h1.2241v-.6118a1.34,1.34,0,0,0-.36-1.0083,1.5372,1.5372,0,0,0-1.104-.3476,1.663,1.663,0,0,0-.9424.2519,2.0788,2.0788,0,0,0-.63.6719l-.5761-.54a2.1885,2.1885,0,0,1,.8042-.858,2.5331,2.5331,0,0,1,1.3921-.354,2.56,2.56,0,0,1,1.7519.5508,1.9374,1.9374,0,0,1,.624,1.5327v3.4h.708v.8521Zm-2.76-.6719a2.4357,2.4357,0,0,0,.66-.084,1.6188,1.6188,0,0,0,.5161-.24,1.186,1.186,0,0,0,.336-.36.8585.8585,0,0,0,.12-.4438v-1.02h-1.272a2.3247,2.3247,0,0,0-1.2061.24.7756.7756,0,0,0-.3779.6963v.2519a.8389.8389,0,0,0,.33.7081A1.4371,1.4371,0,0,0,82.2354,157.9062Z"/><path d="M86.9038,158.5781v-6.1919h.96v.9966h.0478a2.0159,2.0159,0,0,1,.6421-.8316,1.8132,1.8132,0,0,1,1.11-.3091,1.9424,1.9424,0,0,1,1.518.6182,2.5147,2.5147,0,0,1,.5581,1.7456v3.9722h-.96v-3.812q0-1.6722-1.4038-1.6719a2.1362,2.1362,0,0,0-.5581.0723,1.606,1.606,0,0,0-.4859.2163,1.0693,1.0693,0,0,0-.3423.3667,1.0455,1.0455,0,0,0-.1259.5234v4.3052Z"/><path d="M98.22,158.5781a.9422.9422,0,0,1-.7739-.2881,1.4214,1.4214,0,0,1-.2939-.72h-.06a1.6024,1.6024,0,0,1-.6719.8637,2.089,2.089,0,0,1-1.1162.2881,2.17,2.17,0,0,1-1.53-.5039,1.77,1.77,0,0,1-.5464-1.3681,1.5613,1.5613,0,0,1,.6421-1.3438,3.4138,3.4138,0,0,1,1.9981-.4683h1.2241v-.6118a1.34,1.34,0,0,0-.36-1.0083,1.5372,1.5372,0,0,0-1.104-.3476,1.6632,1.6632,0,0,0-.9424.2519,2.0774,2.0774,0,0,0-.63.6719l-.5762-.54a2.1885,2.1885,0,0,1,.8042-.858,2.5334,2.5334,0,0,1,1.3921-.354,2.56,2.56,0,0,1,1.7519.5508,1.9372,1.9372,0,0,1,.6241,1.5327v3.4h.708v.8521Zm-2.76-.6719a2.4357,2.4357,0,0,0,.66-.084,1.6188,1.6188,0,0,0,.5161-.24,1.186,1.186,0,0,0,.336-.36.8576.8576,0,0,0,.12-.4438v-1.02H95.82a2.3241,2.3241,0,0,0-1.206.24.7755.7755,0,0,0-.378.6963v.2519a.8389.8389,0,0,0,.33.7081A1.4371,1.4371,0,0,0,95.46,157.9062Z"/><path d="M105.3477,159.2685a1.5211,1.5211,0,0,1-.75,1.4053,4.48,4.48,0,0,1-2.25.4482,4.1284,4.1284,0,0,1-2.0884-.3955,1.2539,1.2539,0,0,1-.6358-1.1264,1.1033,1.1033,0,0,1,.2637-.7852,1.5514,1.5514,0,0,1,.72-.4136V158.27a.89.89,0,0,1-.5517-.86.8644.8644,0,0,1,.3-.7109,1.9658,1.9658,0,0,1,.768-.3643v-.0478a1.9974,1.9974,0,0,1-.8579-.7583,2.1229,2.1229,0,0,1-.3061-1.1436,2.1957,2.1957,0,0,1,.1679-.8662,1.9456,1.9456,0,0,1,.4742-.68,2.1577,2.1577,0,0,1,.7319-.4389,2.993,2.993,0,0,1,2.13.083v-.1079a1.0181,1.0181,0,0,1,.1679-.6016.6283.6283,0,0,1,.5523-.2383h.9238v.8521h-1.1758v.397a2.0292,2.0292,0,0,1,.522.6919,2.1529,2.1529,0,0,1,.186.9086,2.1963,2.1963,0,0,1-.1684.8667,1.9455,1.9455,0,0,1-.4736.68,2.1485,2.1485,0,0,1-.7383.439,2.7978,2.7978,0,0,1-.96.1567,3.0535,3.0535,0,0,1-.6-.06,1.9828,1.9828,0,0,0-.5639.2456.5086.5086,0,0,0-.252.45.3653.3653,0,0,0,.2642.372,2.0355,2.0355,0,0,0,.684.0957h1.32a2.5943,2.5943,0,0,1,1.6738.4366A1.483,1.483,0,0,1,105.3477,159.2685Zm-.9.0654a.7165.7165,0,0,0-.2818-.5937,1.671,1.671,0,0,0-1.0019-.2222H101.1a.8765.8765,0,0,0-.5762.84.9215.9215,0,0,0,.3062.6963,1.497,1.497,0,0,0,1.0376.288h.8882a2.551,2.551,0,0,0,1.248-.2519A.8174.8174,0,0,0,104.4473,159.3339Zm-2.148-3.5756a1.4879,1.4879,0,0,0,.9722-.2955,1.109,1.109,0,0,0,.36-.91v-.3374a1.1088,1.1088,0,0,0-.36-.91,1.7467,1.7467,0,0,0-1.9439,0,1.1076,1.1076,0,0,0-.36.91v.3374a1.1078,1.1078,0,0,0,.36.91A1.4865,1.4865,0,0,0,102.2993,155.7583Z"/><path d="M108.72,158.7221a2.7786,2.7786,0,0,1-1.146-.228,2.4668,2.4668,0,0,1-.8759-.6538,2.9964,2.9964,0,0,1-.564-1.02,4.5942,4.5942,0,0,1,0-2.67,2.9883,2.9883,0,0,1,.564-1.0259,2.4656,2.4656,0,0,1,.8759-.6538,2.7786,2.7786,0,0,1,1.146-.2281,2.6338,2.6338,0,0,1,1.1157.2271,2.48,2.48,0,0,1,.84.6279,2.8008,2.8008,0,0,1,.5337.9507,3.7517,3.7517,0,0,1,.186,1.208v.4541h-4.4521v.2881a2.11,2.11,0,0,0,.1264.7383,1.745,1.745,0,0,0,.36.5937,1.6426,1.6426,0,0,0,.5757.396,1.9759,1.9759,0,0,0,.7744.1441,1.8834,1.8834,0,0,0,1.0259-.2759,1.8128,1.8128,0,0,0,.6777-.792l.6841.4951a2.3854,2.3854,0,0,1-.9361,1.0322A2.82,2.82,0,0,1,108.72,158.7221Zm0-5.6762a1.8246,1.8246,0,0,0-.72.1377,1.6249,1.6249,0,0,0-.5581.3872,1.82,1.82,0,0,0-.3657.59,2.0344,2.0344,0,0,0-.1323.7456v.0835h3.42v-.1314a1.8845,1.8845,0,0,0-.45-1.3178A1.5356,1.5356,0,0,0,108.72,153.0459Z"/><path d="M112.98,158.5781v-6.1919h.96v.9966h.0478a3.2907,3.2907,0,0,1,.2461-.4458,1.5375,1.5375,0,0,1,.3359-.3623,1.5593,1.5593,0,0,1,.4619-.2437,1.968,1.968,0,0,1,.6241-.0889,2.2561,2.2561,0,0,1,1.1284.2915,1.76,1.76,0,0,1,.7676.9576h.0244a1.9,1.9,0,0,1,.63-.8745,1.9342,1.9342,0,0,1,1.2539-.3746,1.8545,1.8545,0,0,1,1.4819.6182,2.5894,2.5894,0,0,1,.5342,1.7456v3.9722h-.96v-3.812a2.0283,2.0283,0,0,0-.3242-1.251,1.2193,1.2193,0,0,0-1.0317-.4209,2.0093,2.0093,0,0,0-.5464.0723,1.481,1.481,0,0,0-.4619.2163,1.0488,1.0488,0,0,0-.3238.3667,1.0866,1.0866,0,0,0-.12.5234v4.3052h-.96v-3.812a2.0283,2.0283,0,0,0-.3243-1.251,1.19,1.19,0,0,0-1.0078-.4209,2.0761,2.0761,0,0,0-.5522.0723,1.4678,1.4678,0,0,0-.4678.2163,1.1135,1.1135,0,0,0-.33.3667,1.0445,1.0445,0,0,0-.1259.5234v4.3052Z"/><path d="M125.7832,158.7221a2.7786,2.7786,0,0,1-1.146-.228,2.468,2.468,0,0,1-.876-.6538,2.9979,2.9979,0,0,1-.5639-1.02,4.5942,4.5942,0,0,1,0-2.67,2.99,2.99,0,0,1,.5639-1.0259,2.4668,2.4668,0,0,1,.876-.6538,2.7786,2.7786,0,0,1,1.146-.2281,2.6341,2.6341,0,0,1,1.1157.2271,2.4807,2.4807,0,0,1,.84.6279,2.7989,2.7989,0,0,1,.5336.9507,3.749,3.749,0,0,1,.1861,1.208v.4541h-4.4522v.2881a2.1079,2.1079,0,0,0,.1265.7383,1.745,1.745,0,0,0,.36.5937,1.6431,1.6431,0,0,0,.5756.396,1.9767,1.9767,0,0,0,.7745.1441,1.883,1.883,0,0,0,1.0258-.2759,1.813,1.813,0,0,0,.6778-.792l.6841.4951a2.386,2.386,0,0,1-.9361,1.0322A2.82,2.82,0,0,1,125.7832,158.7221Zm0-5.6762a1.8243,1.8243,0,0,0-.72.1377,1.624,1.624,0,0,0-.5581.3872,1.82,1.82,0,0,0-.3657.59,2.0344,2.0344,0,0,0-.1324.7456v.0835h3.42v-.1314a1.8844,1.8844,0,0,0-.45-1.3178A1.5357,1.5357,0,0,0,125.7832,153.0459Z"/><path d="M130.043,158.5781v-6.1919h.96v.9966h.0479a2.0151,2.0151,0,0,1,.6421-.8316,1.8131,1.8131,0,0,1,1.11-.3091,1.9426,1.9426,0,0,1,1.5181.6182,2.5147,2.5147,0,0,1,.5581,1.7456v3.9722h-.96v-3.812q0-1.6722-1.4038-1.6719a2.1368,2.1368,0,0,0-.5581.0723,1.6054,1.6054,0,0,0-.4858.2163,1.0684,1.0684,0,0,0-.3423.3667,1.0445,1.0445,0,0,0-.126.5234v4.3052Z"/><path d="M138.2271,158.5781a.9828.9828,0,0,1-.7623-.2813,1.0476,1.0476,0,0,1-.2578-.7363v-4.3223h-1.02v-.852h.5757a.5653.5653,0,0,0,.4263-.126.6566.6566,0,0,0,.1137-.438V150.67h.8643v1.7163h1.3559v.852H138.167v4.4878h1.26v.8521Z"/><path d="M145.7627,158.7221a2.8921,2.8921,0,0,1-1.4458-.33,3.2775,3.2775,0,0,1-1.002-.8818l.6841-.5522a2.6877,2.6877,0,0,0,.8037.7021,2.0944,2.0944,0,0,0,1.0323.2461,1.5251,1.5251,0,0,0,.9536-.2642.9586.9586,0,0,0,.1084-1.3618,1.43,1.43,0,0,0-.8462-.354l-.4922-.0722a4.1234,4.1234,0,0,1-.792-.1861,2.2048,2.2048,0,0,1-.63-.3359,1.4467,1.4467,0,0,1-.42-.522,1.7013,1.7013,0,0,1-.15-.7441,1.7861,1.7861,0,0,1,.168-.7979,1.6,1.6,0,0,1,.4619-.57,2.0225,2.0225,0,0,1,.7021-.3423,3.2553,3.2553,0,0,1,.876-.1138,2.7318,2.7318,0,0,1,1.2661.2642,2.8334,2.8334,0,0,1,.8936.7319l-.6358.5757a1.9125,1.9125,0,0,0-.6-.5219,1.9349,1.9349,0,0,0-.9961-.2339,1.3751,1.3751,0,0,0-.9057.2578.8706.8706,0,0,0-.3062.7021.7352.7352,0,0,0,.3062.66,2.2835,2.2835,0,0,0,.8818.3l.48.0723a2.5757,2.5757,0,0,1,1.4643.5937,1.5635,1.5635,0,0,1,.4317,1.146,1.7537,1.7537,0,0,1-.6118,1.416A2.5253,2.5253,0,0,1,145.7627,158.7221Z"/><path d="M152.0752,158.7221a2.7783,2.7783,0,0,1-1.146-.228,2.468,2.468,0,0,1-.876-.6538,2.9979,2.9979,0,0,1-.5639-1.02,4.5942,4.5942,0,0,1,0-2.67,2.99,2.99,0,0,1,.5639-1.0259,2.4668,2.4668,0,0,1,.876-.6538,2.7783,2.7783,0,0,1,1.146-.2281,2.6341,2.6341,0,0,1,1.1157.2271,2.48,2.48,0,0,1,.84.6279,2.7974,2.7974,0,0,1,.5337.9507,3.749,3.749,0,0,1,.1861,1.208v.4541h-4.4522v.2881a2.1079,2.1079,0,0,0,.1265.7383,1.745,1.745,0,0,0,.36.5937,1.6431,1.6431,0,0,0,.5756.396,1.9767,1.9767,0,0,0,.7745.1441,1.883,1.883,0,0,0,1.0258-.2759,1.813,1.813,0,0,0,.6778-.792l.684.4951a2.3851,2.3851,0,0,1-.936,1.0322A2.82,2.82,0,0,1,152.0752,158.7221Zm0-5.6762a1.8243,1.8243,0,0,0-.72.1377,1.624,1.624,0,0,0-.5581.3872,1.8183,1.8183,0,0,0-.3657.59,2.0344,2.0344,0,0,0-.1324.7456v.0835h3.42v-.1314a1.8845,1.8845,0,0,0-.45-1.3178A1.5354,1.5354,0,0,0,152.0752,153.0459Z"/><path d="M156.335,158.5781v-6.1919h.96v1.14h.06a1.8724,1.8724,0,0,1,.6-.7925,1.8441,1.8441,0,0,1,1.188-.3476h.372v.96h-.5639a2.1692,2.1692,0,0,0-1.2183.294.8672.8672,0,0,0-.438.7378v4.2Z"/><path d="M162.2266,158.5781l-2.1724-6.1919h.96l1.08,3.0718.6724,2.1123h.06l.6723-2.1123,1.104-3.0718h.9239l-2.1841,6.1919Z"/><path d="M167.2422,150.934a.5873.5873,0,0,1-.45-.15.5542.5542,0,0,1-.1377-.39v-.1558a.5543.5543,0,0,1,.1377-.39.751.751,0,0,1,.9,0,.5543.5543,0,0,1,.1377.39v.1558a.5542.5542,0,0,1-.1377.39A.5873.5873,0,0,1,167.2422,150.934Zm-.48,1.4522h.96v6.1919h-.96Z"/><path d="M172.0664,158.7221a2.8523,2.8523,0,0,1-1.1641-.228,2.3712,2.3712,0,0,1-.87-.648,2.8812,2.8812,0,0,1-.54-1.02,4.9487,4.9487,0,0,1,0-2.688,2.8864,2.8864,0,0,1,.54-1.02,2.3754,2.3754,0,0,1,.87-.6479,2.8524,2.8524,0,0,1,1.1641-.2281,2.4818,2.4818,0,0,1,1.4819.4019,2.4525,2.4525,0,0,1,.834,1.05l-.8042.4077a1.4613,1.4613,0,0,0-.5517-.7441,1.6583,1.6583,0,0,0-.96-.2637,1.9233,1.9233,0,0,0-.7563.1377,1.481,1.481,0,0,0-.54.3843,1.6112,1.6112,0,0,0-.3237.5879,2.471,2.471,0,0,0-.1079.75V156.01a2.0079,2.0079,0,0,0,.438,1.3379,1.5877,1.5877,0,0,0,1.29.522,1.7408,1.7408,0,0,0,1.68-1.08l.6963.4683a2.4626,2.4626,0,0,1-.8941,1.0678A2.6135,2.6135,0,0,1,172.0664,158.7221Z"/><path d="M178.0547,158.7221a2.7783,2.7783,0,0,1-1.146-.228,2.468,2.468,0,0,1-.876-.6538,2.9979,2.9979,0,0,1-.5639-1.02,4.5942,4.5942,0,0,1,0-2.67,2.99,2.99,0,0,1,.5639-1.0259,2.4668,2.4668,0,0,1,.876-.6538,2.7783,2.7783,0,0,1,1.146-.2281,2.6341,2.6341,0,0,1,1.1157.2271,2.48,2.48,0,0,1,.84.6279,2.7974,2.7974,0,0,1,.5337.9507,3.749,3.749,0,0,1,.1861,1.208v.4541h-4.4522v.2881a2.1079,2.1079,0,0,0,.1265.7383,1.7464,1.7464,0,0,0,.36.5937,1.6444,1.6444,0,0,0,.5757.396,1.9766,1.9766,0,0,0,.7744.1441,1.8834,1.8834,0,0,0,1.0259-.2759,1.813,1.813,0,0,0,.6778-.792l.684.4951a2.3858,2.3858,0,0,1-.936,1.0322A2.82,2.82,0,0,1,178.0547,158.7221Zm0-5.6762a1.8243,1.8243,0,0,0-.72.1377,1.624,1.624,0,0,0-.5581.3872,1.82,1.82,0,0,0-.3658.59,2.0365,2.0365,0,0,0-.1323.7456v.0835h3.42v-.1314a1.8845,1.8845,0,0,0-.45-1.3178A1.5354,1.5354,0,0,0,178.0547,153.0459Z"/><path d="M185.6265,150.934a.5873.5873,0,0,1-.45-.15.5542.5542,0,0,1-.1377-.39v-.1558a.5543.5543,0,0,1,.1377-.39.751.751,0,0,1,.9,0,.5543.5543,0,0,1,.1377.39v.1558a.5542.5542,0,0,1-.1377.39A.5873.5873,0,0,1,185.6265,150.934Zm-.48,1.4522h.96v6.1919h-.96Z"/><path d="M188.1465,158.5781v-6.1919h.96v.9966h.0479a2.0159,2.0159,0,0,1,.6421-.8316,1.8131,1.8131,0,0,1,1.11-.3091,1.9426,1.9426,0,0,1,1.5181.6182,2.5147,2.5147,0,0,1,.5581,1.7456v3.9722h-.96v-3.812q0-1.6722-1.4038-1.6719a2.137,2.137,0,0,0-.5582.0723,1.6065,1.6065,0,0,0-.4858.2163,1.0693,1.0693,0,0,0-.3423.3667,1.0445,1.0445,0,0,0-.126.5234v4.3052Z"/><path d="M196.8223,158.7221a2.8921,2.8921,0,0,1-1.4458-.33,3.2775,3.2775,0,0,1-1.002-.8818l.6841-.5522a2.6865,2.6865,0,0,0,.8037.7021,2.094,2.094,0,0,0,1.0322.2461,1.5249,1.5249,0,0,0,.9536-.2642.9586.9586,0,0,0,.1084-1.3618,1.4294,1.4294,0,0,0-.8461-.354l-.4922-.0722a4.1234,4.1234,0,0,1-.792-.1861,2.2035,2.2035,0,0,1-.63-.3359,1.4467,1.4467,0,0,1-.42-.522,1.7013,1.7013,0,0,1-.15-.7441,1.7861,1.7861,0,0,1,.1679-.7979,1.6015,1.6015,0,0,1,.4619-.57,2.0222,2.0222,0,0,1,.7022-.3423,3.2553,3.2553,0,0,1,.876-.1138,2.7318,2.7318,0,0,1,1.2661.2642,2.8331,2.8331,0,0,1,.8935.7319l-.6357.5757a1.9125,1.9125,0,0,0-.6-.5219,1.9352,1.9352,0,0,0-.9961-.2339,1.3754,1.3754,0,0,0-.9058.2578.8705.8705,0,0,0-.3061.7021.7351.7351,0,0,0,.3061.66,2.284,2.284,0,0,0,.8819.3l.48.0723a2.5764,2.5764,0,0,1,1.4643.5937,1.5635,1.5635,0,0,1,.4317,1.146,1.7535,1.7535,0,0,1-.6119,1.416A2.525,2.525,0,0,1,196.8223,158.7221Z"/><path d="M202.0908,158.5781a.9827.9827,0,0,1-.7622-.2813,1.0471,1.0471,0,0,1-.2578-.7363v-4.3223h-1.02v-.852h.5757a.5649.5649,0,0,0,.4262-.126.6559.6559,0,0,0,.1138-.438V150.67h.8643v1.7163h1.3559v.852h-1.3559v4.4878h1.26v.8521Z"/><path d="M209.4346,158.5781a.9423.9423,0,0,1-.774-.2881,1.4214,1.4214,0,0,1-.2939-.72h-.06a1.6022,1.6022,0,0,1-.6718.8637,2.089,2.089,0,0,1-1.1162.2881,2.17,2.17,0,0,1-1.53-.5039,1.77,1.77,0,0,1-.5464-1.3681,1.5611,1.5611,0,0,1,.6421-1.3438,3.4132,3.4132,0,0,1,1.998-.4683h1.2241v-.6118a1.3406,1.3406,0,0,0-.36-1.0083,1.5374,1.5374,0,0,0-1.104-.3476,1.6628,1.6628,0,0,0-.9424.2519,2.0777,2.0777,0,0,0-.63.6719l-.5762-.54a2.19,2.19,0,0,1,.8042-.858,2.5336,2.5336,0,0,1,1.3921-.354,2.56,2.56,0,0,1,1.752.5508,1.9374,1.9374,0,0,1,.624,1.5327v3.4h.708v.8521Zm-2.76-.6719a2.436,2.436,0,0,0,.66-.084,1.62,1.62,0,0,0,.5161-.24,1.1868,1.1868,0,0,0,.3359-.36.8576.8576,0,0,0,.12-.4438v-1.02h-1.2719a2.3245,2.3245,0,0,0-1.2061.24.7756.7756,0,0,0-.3779.6963v.2519a.8386.8386,0,0,0,.33.7081A1.4368,1.4368,0,0,0,206.6743,157.9062Z"/><path d="M211.3428,158.5781v-6.1919h.9609v.9966h.0479a2.0058,2.0058,0,0,1,.6416-.8316,1.8152,1.8152,0,0,1,1.11-.3091,1.9422,1.9422,0,0,1,1.5176.6182,2.5149,2.5149,0,0,1,.5586,1.7456v3.9722h-.96v-3.812q0-1.6722-1.4043-1.6719a2.1456,2.1456,0,0,0-.5586.0723,1.6069,1.6069,0,0,0-.4853.2163,1.0631,1.0631,0,0,0-.3418.3667,1.0445,1.0445,0,0,0-.126.5234v4.3052Z"/><path d="M220.4629,158.7221a2.8507,2.8507,0,0,1-1.1641-.228,2.3712,2.3712,0,0,1-.87-.648,2.8812,2.8812,0,0,1-.54-1.02,4.959,4.959,0,0,1,0-2.688,2.8864,2.8864,0,0,1,.54-1.02,2.3754,2.3754,0,0,1,.87-.6479,2.8507,2.8507,0,0,1,1.1641-.2281,2.4813,2.4813,0,0,1,1.4814.4019,2.4488,2.4488,0,0,1,.834,1.05l-.8037.4077a1.4613,1.4613,0,0,0-.5517-.7441,1.6572,1.6572,0,0,0-.96-.2637,1.92,1.92,0,0,0-.7559.1377,1.4681,1.4681,0,0,0-.54.3843,1.6106,1.6106,0,0,0-.3242.5879,2.4707,2.4707,0,0,0-.1084.75V156.01a2.0108,2.0108,0,0,0,.4385,1.3379,1.5876,1.5876,0,0,0,1.29.522,1.7413,1.7413,0,0,0,1.68-1.08l.6963.4683a2.46,2.46,0,0,1-.8946,1.0678A2.6107,2.6107,0,0,1,220.4629,158.7221Z"/><path d="M226.45,158.7221a2.7775,2.7775,0,0,1-1.1455-.228,2.476,2.476,0,0,1-.876-.6538,2.9988,2.9988,0,0,1-.5644-1.02,4.6165,4.6165,0,0,1,0-2.67,2.9907,2.9907,0,0,1,.5644-1.0259,2.4748,2.4748,0,0,1,.876-.6538,2.7776,2.7776,0,0,1,1.1455-.2281,2.6348,2.6348,0,0,1,1.1162.2271,2.4687,2.4687,0,0,1,.84.6279,2.79,2.79,0,0,1,.5342.9507,3.7489,3.7489,0,0,1,.1866,1.208v.4541h-4.4522v.2881a2.1192,2.1192,0,0,0,.126.7383,1.76,1.76,0,0,0,.3594.5937,1.6543,1.6543,0,0,0,.5761.396,1.978,1.978,0,0,0,.7744.1441,1.8817,1.8817,0,0,0,1.0254-.2759,1.8141,1.8141,0,0,0,.6787-.792l.6836.4951a2.3876,2.3876,0,0,1-.9355,1.0322A2.8251,2.8251,0,0,1,226.45,158.7221Zm0-5.6762a1.8218,1.8218,0,0,0-.72.1377,1.6117,1.6117,0,0,0-.5576.3872,1.813,1.813,0,0,0-.3663.59,2.0469,2.0469,0,0,0-.1318.7456v.0835h3.42v-.1314a1.8845,1.8845,0,0,0-.45-1.3178A1.5357,1.5357,0,0,0,226.45,153.0459Z"/><path d="M253.1162,135.8022h2.8076a3.654,3.654,0,0,1,1.416.2642,2.86,2.86,0,0,1,1.086.7856,3.5715,3.5715,0,0,1,.69,1.3081,7.1034,7.1034,0,0,1,0,3.66,3.5715,3.5715,0,0,1-.69,1.3081,2.8616,2.8616,0,0,1-1.086.7856,3.654,3.654,0,0,1-1.416.2642h-2.8076Zm2.8076,7.4878a2.5116,2.5116,0,0,0,.9483-.1738,2.05,2.05,0,0,0,.7441-.51,2.37,2.37,0,0,0,.4859-.8223,3.2875,3.2875,0,0,0,.1738-1.11v-1.3682a3.2885,3.2885,0,0,0-.1738-1.11,2.3709,2.3709,0,0,0-.4859-.8222,2.0538,2.0538,0,0,0-.7441-.51,2.5214,2.5214,0,0,0-.9483-.1738h-1.8v6.6Z"/><path d="M261.168,144.1782v-8.376H266.28v.8882h-4.104v2.8076H266.04v.8882h-3.8638V143.29h4.104v.8882Z"/><path d="M270.36,140.062l-1.188,1.32v2.7959h-1.0078v-8.376h1.0078v4.4522h.0361l1.2-1.4522,2.5322-3h1.2359l-3.12,3.5879,3.3364,4.7881H273.144Z"/><path d="M278.8438,138.8383h-1.0079v-.852h1.0079v-1.2481a1.5573,1.5573,0,0,1,.3359-1.0439,1.263,1.263,0,0,1,1.02-.396h.936v.852h-1.332v1.836h1.332v.852h-1.332v5.34h-.96Z"/><path d="M282.3955,144.1782v-6.1919h.96v1.14h.06a1.8724,1.8724,0,0,1,.6-.7925,1.8441,1.8441,0,0,1,1.188-.3476h.3721v.96h-.564a2.1686,2.1686,0,0,0-1.2182.294.8672.8672,0,0,0-.438.7378v4.2Z"/><path d="M289.0791,144.3222a2.7886,2.7886,0,0,1-1.14-.228,2.46,2.46,0,0,1-.8824-.6538,3.0761,3.0761,0,0,1-.57-1.02,4.4694,4.4694,0,0,1,0-2.67,3.0666,3.0666,0,0,1,.57-1.0259,2.4592,2.4592,0,0,1,.8824-.6538,2.7886,2.7886,0,0,1,1.14-.2281,2.7523,2.7523,0,0,1,1.1343.2281,2.5307,2.5307,0,0,1,.8818.6538,3.0188,3.0188,0,0,1,.5762,1.0259,4.48,4.48,0,0,1,0,2.67,3.0278,3.0278,0,0,1-.5762,1.02,2.532,2.532,0,0,1-.8818.6538A2.7523,2.7523,0,0,1,289.0791,144.3222Zm0-.852a1.7459,1.7459,0,0,0,1.272-.48,1.9613,1.9613,0,0,0,.4922-1.4639v-.8882a1.9612,1.9612,0,0,0-.4922-1.4638,1.9254,1.9254,0,0,0-2.544,0,1.9611,1.9611,0,0,0-.4917,1.4638v.8882a1.9612,1.9612,0,0,0,.4917,1.4639A1.7459,1.7459,0,0,0,289.0791,143.47Z"/><path d="M293.459,144.1782v-6.1919h.96v.9966h.0479a3.2907,3.2907,0,0,1,.2461-.4458,1.5375,1.5375,0,0,1,.3359-.3623,1.5593,1.5593,0,0,1,.4619-.2437,1.968,1.968,0,0,1,.6241-.0889,2.2563,2.2563,0,0,1,1.1284.2915,1.76,1.76,0,0,1,.7676.9576h.0244a1.9,1.9,0,0,1,.63-.8745,1.9342,1.9342,0,0,1,1.2539-.3746,1.8545,1.8545,0,0,1,1.4819.6182,2.5892,2.5892,0,0,1,.5342,1.7456v3.9722h-.96v-3.812a2.0283,2.0283,0,0,0-.3242-1.251,1.2193,1.2193,0,0,0-1.0317-.4209,2.0093,2.0093,0,0,0-.5464.0723,1.481,1.481,0,0,0-.4619.2163,1.0488,1.0488,0,0,0-.3238.3667,1.0866,1.0866,0,0,0-.12.5234v4.3052h-.96v-3.812a2.0283,2.0283,0,0,0-.3243-1.251,1.19,1.19,0,0,0-1.0078-.4209,2.0756,2.0756,0,0,0-.5522.0723,1.4678,1.4678,0,0,0-.4678.2163,1.1135,1.1135,0,0,0-.33.3667,1.0445,1.0445,0,0,0-.126.5234v4.3052Z"/><path d="M308.1348,144.1782a.9824.9824,0,0,1-.7622-.2813,1.0472,1.0472,0,0,1-.2579-.7363v-4.3223h-1.02v-.852h.5757a.5653.5653,0,0,0,.4263-.126.656.656,0,0,0,.1137-.438V136.27h.8643v1.7163h1.356v.852h-1.356v4.4878h1.26v.8521Z"/><path d="M310.9785,135.2983h.96v3.6846h.0478a2.0159,2.0159,0,0,1,.6421-.8316,1.8132,1.8132,0,0,1,1.11-.3091,1.9424,1.9424,0,0,1,1.518.6182,2.5146,2.5146,0,0,1,.5582,1.7456v3.9722h-.96v-3.812q0-1.6722-1.4038-1.6719a2.1362,2.1362,0,0,0-.5581.0723,1.606,1.606,0,0,0-.4859.2163,1.0681,1.0681,0,0,0-.3422.3667,1.0445,1.0445,0,0,0-.126.5234v4.3052h-.96Z"/><path d="M320.1226,144.3222a2.7779,2.7779,0,0,1-1.146-.228,2.4663,2.4663,0,0,1-.876-.6538,2.9981,2.9981,0,0,1-.564-1.02,4.5964,4.5964,0,0,1,0-2.67,2.99,2.99,0,0,1,.564-1.0259,2.4651,2.4651,0,0,1,.876-.6538,2.7779,2.7779,0,0,1,1.146-.2281,2.6341,2.6341,0,0,1,1.1157.2271,2.479,2.479,0,0,1,.84.6279,2.7991,2.7991,0,0,1,.5337.9507,3.7517,3.7517,0,0,1,.186,1.208v.4541h-4.4521v.2881a2.1079,2.1079,0,0,0,.1265.7383,1.7448,1.7448,0,0,0,.36.5937,1.6444,1.6444,0,0,0,.5757.396,1.9759,1.9759,0,0,0,.7744.1441,1.8834,1.8834,0,0,0,1.0259-.2759,1.8121,1.8121,0,0,0,.6777-.792l.6841.4951a2.3858,2.3858,0,0,1-.936,1.0322A2.8205,2.8205,0,0,1,320.1226,144.3222Zm0-5.6762a1.8269,1.8269,0,0,0-.72.1376,1.6266,1.6266,0,0,0-.5581.3873,1.8206,1.8206,0,0,0-.3657.59,2.0344,2.0344,0,0,0-.1323.7456v.0835h3.42v-.1314a1.8843,1.8843,0,0,0-.45-1.3178A1.5354,1.5354,0,0,0,320.1226,138.646Z"/><path d="M332.5542,140.3862h-4.2358v3.792h-1.0079v-8.376h1.0079v3.6958h4.2358v-3.6958h1.0083v8.376h-1.0083Z"/><path d="M339.5142,137.9863h.9482l-2.772,7.6318a3.3733,3.3733,0,0,1-.2163.4619.8973.8973,0,0,1-.2637.294,1.0536,1.0536,0,0,1-.39.1562,2.9074,2.9074,0,0,1-.57.0479h-.4917v-.8521h.9717l.4682-1.3178-2.3159-6.4219h.96L337.33,142.19l.2881,1.0063h.06l.336-1.0063Z"/><path d="M341.686,137.9863h.96v.9966h.0478a1.7414,1.7414,0,0,1,.7022-.8614,2.1086,2.1086,0,0,1,1.11-.2793,2.3524,2.3524,0,0,1,1.0439.2281,2.27,2.27,0,0,1,.7983.6479,2.9825,2.9825,0,0,1,.504,1.02,5.2835,5.2835,0,0,1,0,2.688,2.9771,2.9771,0,0,1-.504,1.02,2.2662,2.2662,0,0,1-.7983.648,2.3524,2.3524,0,0,1-1.0439.228,1.8752,1.8752,0,0,1-1.8121-1.1406h-.0478v3.3965h-.96Zm2.5562,5.4839a1.6525,1.6525,0,0,0,1.2837-.5122,1.9176,1.9176,0,0,0,.4682-1.3452v-1.0611a1.9153,1.9153,0,0,0-.4682-1.3447,1.6511,1.6511,0,0,0-1.2837-.5127,2.0986,2.0986,0,0,0-.6182.09,1.72,1.72,0,0,0-.51.2471,1.1953,1.1953,0,0,0-.3423.38.9542.9542,0,0,0-.126.4765v2.3155a1.12,1.12,0,0,0,.126.5371,1.2061,1.2061,0,0,0,.3423.3979,1.5393,1.5393,0,0,0,.51.2471A2.23,2.23,0,0,0,344.2422,143.47Z"/><path d="M350.9741,144.3222a2.7786,2.7786,0,0,1-1.146-.228,2.468,2.468,0,0,1-.876-.6538,2.9979,2.9979,0,0,1-.5639-1.02,4.5942,4.5942,0,0,1,0-2.67,2.99,2.99,0,0,1,.5639-1.0259,2.4668,2.4668,0,0,1,.876-.6538,2.7786,2.7786,0,0,1,1.146-.2281,2.6341,2.6341,0,0,1,1.1157.2271,2.4784,2.4784,0,0,1,.84.6279,2.8008,2.8008,0,0,1,.5337.9507,3.7517,3.7517,0,0,1,.186,1.208v.4541h-4.4521v.2881a2.1078,2.1078,0,0,0,.1264.7383,1.745,1.745,0,0,0,.36.5937,1.6426,1.6426,0,0,0,.5757.396,1.9759,1.9759,0,0,0,.7744.1441,1.8834,1.8834,0,0,0,1.0259-.2759,1.8128,1.8128,0,0,0,.6777-.792l.6841.4951a2.3854,2.3854,0,0,1-.9361,1.0322A2.82,2.82,0,0,1,350.9741,144.3222Zm0-5.6762a1.8264,1.8264,0,0,0-.72.1376,1.6266,1.6266,0,0,0-.5581.3873,1.8189,1.8189,0,0,0-.3657.59,2.0344,2.0344,0,0,0-.1323.7456v.0835h3.42v-.1314a1.8843,1.8843,0,0,0-.45-1.3178A1.5356,1.5356,0,0,0,350.9741,138.646Z"/><path d="M355.2339,144.1782v-6.1919h.96v1.14h.06a1.8724,1.8724,0,0,1,.6-.7925,1.8441,1.8441,0,0,1,1.188-.3476h.3721v.96h-.564a2.1692,2.1692,0,0,0-1.2183.294.8672.8672,0,0,0-.438.7378v4.2Z"/><path d="M362.5659,144.1782v-8.376h3.336a2.2694,2.2694,0,0,1,1.7338.6421,2.8531,2.8531,0,0,1,0,3.5161,2.271,2.271,0,0,1-1.7338.6416h-2.3282v3.5762Zm1.0078-4.4639h2.3282a1.2994,1.2994,0,0,0,.93-.312,1.1623,1.1623,0,0,0,.33-.8882v-.624a1.1619,1.1619,0,0,0-.33-.8877,1.2994,1.2994,0,0,0-.93-.312h-2.3282Z"/><path d="M369.6221,144.1782v-6.1919h.96v1.14h.06a1.8724,1.8724,0,0,1,.6-.7925,1.8441,1.8441,0,0,1,1.188-.3476h.372v.96h-.5639a2.1692,2.1692,0,0,0-1.2183.294.8672.8672,0,0,0-.438.7378v4.2Z"/><path d="M376.3057,144.3222a2.789,2.789,0,0,1-1.14-.228,2.46,2.46,0,0,1-.8823-.6538,3.0761,3.0761,0,0,1-.57-1.02,4.4694,4.4694,0,0,1,0-2.67,3.0666,3.0666,0,0,1,.57-1.0259,2.4588,2.4588,0,0,1,.8823-.6538,2.7891,2.7891,0,0,1,1.14-.2281,2.7483,2.7483,0,0,1,1.1338.2281,2.5353,2.5353,0,0,1,.8828.6538,3.0286,3.0286,0,0,1,.5761,1.0259,4.4883,4.4883,0,0,1,0,2.67,3.0378,3.0378,0,0,1-.5761,1.02,2.5365,2.5365,0,0,1-.8828.6538A2.7483,2.7483,0,0,1,376.3057,144.3222Zm0-.852a1.7459,1.7459,0,0,0,1.2724-.48,1.9613,1.9613,0,0,0,.4922-1.4639v-.8882a1.9612,1.9612,0,0,0-.4922-1.4638,1.9259,1.9259,0,0,0-2.5444,0,1.9611,1.9611,0,0,0-.4917,1.4638v.8882a1.9612,1.9612,0,0,0,.4917,1.4639A1.7456,1.7456,0,0,0,376.3057,143.47Z"/><path d="M382.0537,144.1782a.9831.9831,0,0,1-.7627-.2813,1.0471,1.0471,0,0,1-.2578-.7363v-4.3223h-1.02v-.852h.5761a.5652.5652,0,0,0,.4258-.126.6534.6534,0,0,0,.1133-.438V136.27h.8652v1.7163H383.35v.852h-1.3555v4.4878h1.26v.8521Z"/><path d="M387.1777,144.3222a2.7826,2.7826,0,0,1-1.1465-.228,2.4645,2.4645,0,0,1-.875-.6538,2.9988,2.9988,0,0,1-.5644-1.02,4.5964,4.5964,0,0,1,0-2.67,2.9907,2.9907,0,0,1,.5644-1.0259,2.4633,2.4633,0,0,1,.875-.6538,2.7827,2.7827,0,0,1,1.1465-.2281,2.6307,2.6307,0,0,1,1.1153.2271,2.4588,2.4588,0,0,1,.84.6279,2.81,2.81,0,0,1,.5352.9507,3.78,3.78,0,0,1,.1855,1.208v.4541h-4.4521v.2881a2.1215,2.1215,0,0,0,.1259.7383,1.76,1.76,0,0,0,.3594.5937,1.664,1.664,0,0,0,.5762.396,1.9792,1.9792,0,0,0,.7754.1441,1.8864,1.8864,0,0,0,1.0254-.2759,1.8192,1.8192,0,0,0,.6777-.792l.6836.4951a2.3815,2.3815,0,0,1-.9355,1.0322A2.82,2.82,0,0,1,387.1777,144.3222Zm0-5.6762a1.8324,1.8324,0,0,0-.7207.1376,1.6112,1.6112,0,0,0-.5566.3873,1.8141,1.8141,0,0,0-.3672.59,2.0448,2.0448,0,0,0-.1318.7456v.0835h3.4209v-.1314a1.88,1.88,0,0,0-.4512-1.3178A1.5323,1.5323,0,0,0,387.1777,138.646Z"/><path d="M393.7412,144.3222a2.8507,2.8507,0,0,1-1.1641-.228,2.3712,2.3712,0,0,1-.87-.648,2.8812,2.8812,0,0,1-.54-1.02,4.959,4.959,0,0,1,0-2.688,2.8864,2.8864,0,0,1,.54-1.02,2.3754,2.3754,0,0,1,.87-.6479,2.8507,2.8507,0,0,1,1.1641-.2281,2.4818,2.4818,0,0,1,1.4815.4019,2.4493,2.4493,0,0,1,.8339,1.05l-.8037.4077a1.4613,1.4613,0,0,0-.5517-.7441,1.6572,1.6572,0,0,0-.96-.2637,1.919,1.919,0,0,0-.7558.1377,1.4693,1.4693,0,0,0-.54.3843,1.6121,1.6121,0,0,0-.3242.5879,2.4707,2.4707,0,0,0-.1084.75V141.61a2.0108,2.0108,0,0,0,.4385,1.3379,1.5879,1.5879,0,0,0,1.29.522,1.7413,1.7413,0,0,0,1.68-1.08l.6963.4683a2.4608,2.4608,0,0,1-.8945,1.0678A2.6113,2.6113,0,0,1,393.7412,144.3222Z"/><path d="M398.8408,144.1782a.9823.9823,0,0,1-.7617-.2813,1.0471,1.0471,0,0,1-.2578-.7363v-4.3223h-1.0205v-.852h.5762a.5636.5636,0,0,0,.4257-.126.6529.6529,0,0,0,.1143-.438V136.27h.8642v1.7163h1.3555v.852h-1.3555v4.4878h1.26v.8521Z"/><path d="M253.1162,150.2021h2.8076a3.654,3.654,0,0,1,1.416.2642,2.86,2.86,0,0,1,1.086.7856,3.5715,3.5715,0,0,1,.69,1.3081,7.1034,7.1034,0,0,1,0,3.66,3.5715,3.5715,0,0,1-.69,1.3081,2.8616,2.8616,0,0,1-1.086.7856,3.654,3.654,0,0,1-1.416.2642h-2.8076Zm2.8076,7.4878a2.5116,2.5116,0,0,0,.9483-.1738,2.05,2.05,0,0,0,.7441-.51,2.37,2.37,0,0,0,.4859-.8223,3.2875,3.2875,0,0,0,.1738-1.11V153.706a3.2885,3.2885,0,0,0-.1738-1.11,2.3709,2.3709,0,0,0-.4859-.8222,2.0551,2.0551,0,0,0-.7441-.51,2.5214,2.5214,0,0,0-.9483-.1738h-1.8v6.6Z"/><path d="M261.168,150.2021h3.4438a2.23,2.23,0,0,1,1.6382.5879,2.3985,2.3985,0,0,1,.4619,2.3643,1.6553,1.6553,0,0,1-.3359.5336,1.3608,1.3608,0,0,1-.4444.3121,2.0485,2.0485,0,0,1-.4438.1381v.0718a1.7135,1.7135,0,0,1,.51.12,1.6608,1.6608,0,0,1,.5341.3423,1.9427,1.9427,0,0,1,.4258.6,2.0387,2.0387,0,0,1,.1743.8824,2.7825,2.7825,0,0,1-.1621.96,2.3552,2.3552,0,0,1-.45.7681,2.102,2.102,0,0,1-.6836.51,2.0064,2.0064,0,0,1-.8642.1861H261.168Zm1.0078,3.624h2.3159a1.3583,1.3583,0,0,0,.936-.3,1.098,1.098,0,0,0,.336-.8642v-.4082a1.0977,1.0977,0,0,0-.336-.8638,1.3583,1.3583,0,0,0-.936-.3h-2.3159Zm0,3.8638H264.66a1.4841,1.4841,0,0,0,1.02-.33,1.2241,1.2241,0,0,0,.3721-.9663v-.4077a1.2241,1.2241,0,0,0-.3721-.9663,1.4843,1.4843,0,0,0-1.02-.33h-2.4839Z"/><path d="M273.4077,158.5781a.9422.9422,0,0,1-.7739-.2881,1.4215,1.4215,0,0,1-.294-.72h-.06a1.6024,1.6024,0,0,1-.6719.8637,2.089,2.089,0,0,1-1.1162.2881,2.17,2.17,0,0,1-1.53-.5039,1.77,1.77,0,0,1-.5464-1.3681,1.5613,1.5613,0,0,1,.6421-1.3438,3.4138,3.4138,0,0,1,1.9981-.4683H272.28v-.6118a1.34,1.34,0,0,0-.36-1.0083,1.5372,1.5372,0,0,0-1.104-.3476,1.6632,1.6632,0,0,0-.9424.2519,2.0774,2.0774,0,0,0-.63.6719l-.5762-.54a2.1885,2.1885,0,0,1,.8042-.858,2.5334,2.5334,0,0,1,1.3921-.354,2.56,2.56,0,0,1,1.7519.5508,1.9374,1.9374,0,0,1,.624,1.5327v3.4h.7081v.8521Zm-2.76-.6719a2.4357,2.4357,0,0,0,.66-.084,1.6188,1.6188,0,0,0,.5161-.24,1.186,1.186,0,0,0,.336-.36.8585.8585,0,0,0,.12-.4438v-1.02h-1.272a2.3241,2.3241,0,0,0-1.206.24.7755.7755,0,0,0-.378.6963v.2519a.8389.8389,0,0,0,.33.7081A1.4371,1.4371,0,0,0,270.6475,157.9062Z"/><path d="M279.8159,158.5781a.9422.9422,0,0,1-.7739-.2881,1.4215,1.4215,0,0,1-.294-.72h-.06a1.6024,1.6024,0,0,1-.6719.8637,2.089,2.089,0,0,1-1.1162.2881,2.17,2.17,0,0,1-1.53-.5039,1.77,1.77,0,0,1-.5464-1.3681,1.5613,1.5613,0,0,1,.6421-1.3438,3.4138,3.4138,0,0,1,1.9981-.4683h1.2241v-.6118a1.34,1.34,0,0,0-.36-1.0083,1.5372,1.5372,0,0,0-1.104-.3476,1.6632,1.6632,0,0,0-.9424.2519,2.0774,2.0774,0,0,0-.63.6719l-.5762-.54a2.1885,2.1885,0,0,1,.8042-.858,2.5334,2.5334,0,0,1,1.3921-.354,2.56,2.56,0,0,1,1.7519.5508,1.9374,1.9374,0,0,1,.624,1.5327v3.4h.7081v.8521Zm-2.76-.6719a2.4357,2.4357,0,0,0,.66-.084,1.6188,1.6188,0,0,0,.5161-.24,1.186,1.186,0,0,0,.336-.36.8585.8585,0,0,0,.12-.4438v-1.02h-1.272a2.3241,2.3241,0,0,0-1.206.24.7755.7755,0,0,0-.378.6963v.2519a.8389.8389,0,0,0,.33.7081A1.4371,1.4371,0,0,0,277.0557,157.9062Z"/><path d="M284.1719,158.7221a3.61,3.61,0,0,1-1.74-.39,3.6892,3.6892,0,0,1-1.2241-1.0737l.7441-.6241a3.263,3.263,0,0,0,.9839.8941,2.5417,2.5417,0,0,0,1.272.3056,1.9737,1.9737,0,0,0,1.374-.4316,1.4844,1.4844,0,0,0,.4742-1.1523,1.18,1.18,0,0,0-.36-.9239,2.7134,2.7134,0,0,0-1.188-.5161l-.6841-.1557a3.9739,3.9739,0,0,1-1.7583-.7984,1.9009,1.9009,0,0,1-.6059-1.5058,2.2744,2.2744,0,0,1,.2041-.9839,1.968,1.968,0,0,1,.57-.72,2.5794,2.5794,0,0,1,.876-.438,3.9829,3.9829,0,0,1,1.122-.15,3.5232,3.5232,0,0,1,1.626.3481,3.1261,3.1261,0,0,1,1.146,1.02l-.7559.5518a2.6114,2.6114,0,0,0-.84-.7559,2.4735,2.4735,0,0,0-1.2241-.2759,2.0865,2.0865,0,0,0-1.2661.3418,1.194,1.194,0,0,0-.4619,1.0259,1.0809,1.0809,0,0,0,.39.9063,3.0148,3.0148,0,0,0,1.1821.4858l.6836.1563a3.5536,3.5536,0,0,1,1.7881.84,2.0514,2.0514,0,0,1,.5522,1.5,2.65,2.65,0,0,1-.1982,1.044,2.1416,2.1416,0,0,1-.57.7919,2.6484,2.6484,0,0,1-.9063.504A3.76,3.76,0,0,1,284.1719,158.7221Z"/><path d="M293.3877,158.7221a2.8921,2.8921,0,0,1-1.4458-.33,3.2775,3.2775,0,0,1-1.002-.8818l.6841-.5522a2.6877,2.6877,0,0,0,.8037.7021,2.0944,2.0944,0,0,0,1.0323.2461,1.5251,1.5251,0,0,0,.9536-.2642.9586.9586,0,0,0,.1084-1.3618,1.43,1.43,0,0,0-.8462-.354l-.4922-.0722a4.1234,4.1234,0,0,1-.792-.1861,2.2048,2.2048,0,0,1-.63-.3359,1.4467,1.4467,0,0,1-.42-.522,1.7013,1.7013,0,0,1-.15-.7441,1.7861,1.7861,0,0,1,.168-.7979,1.6,1.6,0,0,1,.4619-.57,2.0225,2.0225,0,0,1,.7021-.3423,3.2553,3.2553,0,0,1,.876-.1138,2.7318,2.7318,0,0,1,1.2661.2642,2.8334,2.8334,0,0,1,.8936.7319l-.6358.5757a1.9125,1.9125,0,0,0-.6-.5219,1.9349,1.9349,0,0,0-.9961-.2339,1.3751,1.3751,0,0,0-.9057.2578.8706.8706,0,0,0-.3062.7021.7352.7352,0,0,0,.3062.66,2.2835,2.2835,0,0,0,.8818.3l.48.0723a2.5757,2.5757,0,0,1,1.4643.5937,1.5635,1.5635,0,0,1,.4317,1.146,1.7537,1.7537,0,0,1-.6118,1.416A2.5253,2.5253,0,0,1,293.3877,158.7221Z"/><path d="M299.7,158.7221a2.7786,2.7786,0,0,1-1.146-.228,2.468,2.468,0,0,1-.876-.6538,2.9979,2.9979,0,0,1-.5639-1.02,4.5942,4.5942,0,0,1,0-2.67,2.99,2.99,0,0,1,.5639-1.0259,2.4668,2.4668,0,0,1,.876-.6538,2.7786,2.7786,0,0,1,1.146-.2281,2.6341,2.6341,0,0,1,1.1157.2271,2.4807,2.4807,0,0,1,.84.6279,2.8008,2.8008,0,0,1,.5337.9507,3.7517,3.7517,0,0,1,.186,1.208v.4541h-4.4522v.2881a2.1079,2.1079,0,0,0,.1265.7383,1.745,1.745,0,0,0,.36.5937,1.6426,1.6426,0,0,0,.5757.396,1.9759,1.9759,0,0,0,.7744.1441,1.8828,1.8828,0,0,0,1.0258-.2759,1.813,1.813,0,0,0,.6778-.792l.6841.4951a2.386,2.386,0,0,1-.9361,1.0322A2.82,2.82,0,0,1,299.7,158.7221Zm0-5.6762a1.8243,1.8243,0,0,0-.72.1377,1.624,1.624,0,0,0-.5581.3872,1.82,1.82,0,0,0-.3657.59,2.0344,2.0344,0,0,0-.1324.7456v.0835h3.4205v-.1314a1.8845,1.8845,0,0,0-.45-1.3178A1.5356,1.5356,0,0,0,299.7,153.0459Z"/><path d="M303.96,158.5781v-6.1919h.96v1.14h.06a1.8724,1.8724,0,0,1,.6-.7925,1.8441,1.8441,0,0,1,1.188-.3476h.372v.96h-.5639a2.1692,2.1692,0,0,0-1.2183.294.8672.8672,0,0,0-.438.7378v4.2Z"/><path d="M309.8516,158.5781l-2.1724-6.1919h.96l1.08,3.0718.6724,2.1123h.06l.6723-2.1123,1.104-3.0718h.9239l-2.1841,6.1919Z"/><path d="M314.8672,150.934a.5873.5873,0,0,1-.45-.15.5542.5542,0,0,1-.1377-.39v-.1558a.5543.5543,0,0,1,.1377-.39.751.751,0,0,1,.9,0,.5543.5543,0,0,1,.1377.39v.1558a.5542.5542,0,0,1-.1377.39A.5873.5873,0,0,1,314.8672,150.934Zm-.48,1.4522h.96v6.1919h-.96Z"/><path d="M319.6914,158.7221a2.8523,2.8523,0,0,1-1.1641-.228,2.3712,2.3712,0,0,1-.87-.648,2.8812,2.8812,0,0,1-.54-1.02,4.9487,4.9487,0,0,1,0-2.688,2.8864,2.8864,0,0,1,.54-1.02,2.3754,2.3754,0,0,1,.87-.6479,2.8524,2.8524,0,0,1,1.1641-.2281,2.4818,2.4818,0,0,1,1.4819.4019,2.4525,2.4525,0,0,1,.834,1.05l-.8042.4077a1.4613,1.4613,0,0,0-.5517-.7441,1.6583,1.6583,0,0,0-.96-.2637,1.9233,1.9233,0,0,0-.7563.1377,1.481,1.481,0,0,0-.54.3843,1.6112,1.6112,0,0,0-.3237.5879,2.471,2.471,0,0,0-.1079.75V156.01a2.0079,2.0079,0,0,0,.438,1.3379,1.5877,1.5877,0,0,0,1.29.522,1.7408,1.7408,0,0,0,1.68-1.08l.6963.4683a2.4626,2.4626,0,0,1-.8941,1.0678A2.6135,2.6135,0,0,1,319.6914,158.7221Z"/><path d="M325.6792,158.7221a2.7783,2.7783,0,0,1-1.146-.228,2.468,2.468,0,0,1-.876-.6538,2.9979,2.9979,0,0,1-.5639-1.02,4.5942,4.5942,0,0,1,0-2.67,2.99,2.99,0,0,1,.5639-1.0259,2.4668,2.4668,0,0,1,.876-.6538,2.7783,2.7783,0,0,1,1.146-.2281,2.6341,2.6341,0,0,1,1.1157.2271,2.4817,2.4817,0,0,1,.84.6279,2.7989,2.7989,0,0,1,.5336.9507,3.749,3.749,0,0,1,.1861,1.208v.4541h-4.4522v.2881a2.1079,2.1079,0,0,0,.1265.7383,1.745,1.745,0,0,0,.36.5937,1.6431,1.6431,0,0,0,.5756.396,1.9767,1.9767,0,0,0,.7745.1441,1.883,1.883,0,0,0,1.0258-.2759,1.813,1.813,0,0,0,.6778-.792l.6841.4951a2.386,2.386,0,0,1-.9361,1.0322A2.82,2.82,0,0,1,325.6792,158.7221Zm0-5.6762a1.8243,1.8243,0,0,0-.72.1377,1.624,1.624,0,0,0-.5581.3872,1.8183,1.8183,0,0,0-.3657.59,2.0344,2.0344,0,0,0-.1324.7456v.0835h3.42v-.1314a1.884,1.884,0,0,0-.45-1.3178A1.5354,1.5354,0,0,0,325.6792,153.0459Z"/><path d="M333.251,150.934a.5873.5873,0,0,1-.45-.15.5542.5542,0,0,1-.1377-.39v-.1558a.5543.5543,0,0,1,.1377-.39.751.751,0,0,1,.9,0,.5543.5543,0,0,1,.1377.39v.1558a.5542.5542,0,0,1-.1377.39A.5873.5873,0,0,1,333.251,150.934Zm-.48,1.4522h.96v6.1919h-.96Z"/><path d="M335.771,158.5781v-6.1919h.96v.9966h.0478a2.0159,2.0159,0,0,1,.6421-.8316,1.8132,1.8132,0,0,1,1.11-.3091,1.9424,1.9424,0,0,1,1.518.6182,2.5147,2.5147,0,0,1,.5581,1.7456v3.9722h-.96v-3.812q0-1.6722-1.4038-1.6719a2.1357,2.1357,0,0,0-.5581.0723,1.606,1.606,0,0,0-.4859.2163,1.0693,1.0693,0,0,0-.3423.3667,1.0445,1.0445,0,0,0-.1259.5234v4.3052Z"/><path d="M344.4468,158.7221a2.8921,2.8921,0,0,1-1.4458-.33,3.2775,3.2775,0,0,1-1.002-.8818l.6841-.5522a2.6877,2.6877,0,0,0,.8037.7021,2.0943,2.0943,0,0,0,1.0322.2461,1.5252,1.5252,0,0,0,.9537-.2642.9588.9588,0,0,0,.1084-1.3618,1.43,1.43,0,0,0-.8462-.354l-.4922-.0722a4.1234,4.1234,0,0,1-.792-.1861,2.2035,2.2035,0,0,1-.63-.3359,1.4467,1.4467,0,0,1-.42-.522,1.7013,1.7013,0,0,1-.15-.7441,1.7861,1.7861,0,0,1,.1679-.7979,1.6018,1.6018,0,0,1,.462-.57,2.0217,2.0217,0,0,1,.7021-.3423,3.2553,3.2553,0,0,1,.876-.1138,2.7318,2.7318,0,0,1,1.2661.2642,2.8345,2.8345,0,0,1,.8936.7319l-.6358.5757a1.9125,1.9125,0,0,0-.6-.5219,1.9349,1.9349,0,0,0-.9961-.2339,1.3751,1.3751,0,0,0-.9057.2578.8706.8706,0,0,0-.3062.7021.7352.7352,0,0,0,.3062.66,2.2835,2.2835,0,0,0,.8818.3l.48.0723a2.5761,2.5761,0,0,1,1.4643.5937,1.5635,1.5635,0,0,1,.4317,1.146,1.7537,1.7537,0,0,1-.6118,1.416A2.5253,2.5253,0,0,1,344.4468,158.7221Z"/><path d="M349.7153,158.5781a.9827.9827,0,0,1-.7622-.2813,1.0471,1.0471,0,0,1-.2578-.7363v-4.3223h-1.02v-.852h.5757a.5649.5649,0,0,0,.4262-.126.6559.6559,0,0,0,.1138-.438V150.67h.8643v1.7163h1.3559v.852h-1.3559v4.4878h1.26v.8521Z"/><path d="M357.0591,158.5781a.942.942,0,0,1-.7739-.2881,1.4215,1.4215,0,0,1-.294-.72h-.06a1.6028,1.6028,0,0,1-.6719.8637,2.089,2.089,0,0,1-1.1162.2881,2.17,2.17,0,0,1-1.53-.5039,1.77,1.77,0,0,1-.5464-1.3681,1.5613,1.5613,0,0,1,.6421-1.3438,3.4132,3.4132,0,0,1,1.998-.4683h1.2242v-.6118a1.3407,1.3407,0,0,0-.36-1.0083,1.5372,1.5372,0,0,0-1.104-.3476,1.663,1.663,0,0,0-.9424.2519,2.0777,2.0777,0,0,0-.63.6719l-.5762-.54a2.19,2.19,0,0,1,.8042-.858,2.5336,2.5336,0,0,1,1.3921-.354,2.56,2.56,0,0,1,1.752.5508,1.9374,1.9374,0,0,1,.624,1.5327v3.4h.708v.8521Zm-2.76-.6719a2.436,2.436,0,0,0,.66-.084,1.6188,1.6188,0,0,0,.5161-.24,1.1856,1.1856,0,0,0,.3359-.36.8577.8577,0,0,0,.12-.4438v-1.02h-1.272a2.3245,2.3245,0,0,0-1.2061.24.7756.7756,0,0,0-.3779.6963v.2519a.8389.8389,0,0,0,.33.7081A1.437,1.437,0,0,0,354.2988,157.9062Z"/><path d="M358.9673,158.5781v-6.1919h.96v.9966h.0479a2.0159,2.0159,0,0,1,.6421-.8316,1.8132,1.8132,0,0,1,1.11-.3091,1.9425,1.9425,0,0,1,1.518.6182,2.5147,2.5147,0,0,1,.5581,1.7456v3.9722h-.96v-3.812q0-1.6722-1.4038-1.6719a2.137,2.137,0,0,0-.5582.0723,1.6065,1.6065,0,0,0-.4858.2163,1.0693,1.0693,0,0,0-.3423.3667,1.0445,1.0445,0,0,0-.126.5234v4.3052Z"/><path d="M368.0879,158.7221a2.8523,2.8523,0,0,1-1.1641-.228,2.3712,2.3712,0,0,1-.87-.648,2.8812,2.8812,0,0,1-.54-1.02,4.9462,4.9462,0,0,1,0-2.688,2.8864,2.8864,0,0,1,.54-1.02,2.3754,2.3754,0,0,1,.87-.6479,2.8524,2.8524,0,0,1,1.1641-.2281,2.4818,2.4818,0,0,1,1.4819.4019,2.4525,2.4525,0,0,1,.834,1.05l-.8042.4077a1.4613,1.4613,0,0,0-.5517-.7441,1.6583,1.6583,0,0,0-.96-.2637,1.9242,1.9242,0,0,0-.7564.1377,1.4806,1.4806,0,0,0-.54.3843,1.6112,1.6112,0,0,0-.3237.5879,2.471,2.471,0,0,0-.1079.75V156.01a2.0079,2.0079,0,0,0,.438,1.3379,1.5876,1.5876,0,0,0,1.29.522,1.7408,1.7408,0,0,0,1.68-1.08l.6963.4683a2.4626,2.4626,0,0,1-.8941,1.0678A2.6135,2.6135,0,0,1,368.0879,158.7221Z"/><path d="M374.0752,158.7221a2.7783,2.7783,0,0,1-1.146-.228,2.468,2.468,0,0,1-.876-.6538,2.9979,2.9979,0,0,1-.5639-1.02,4.5942,4.5942,0,0,1,0-2.67,2.99,2.99,0,0,1,.5639-1.0259,2.4668,2.4668,0,0,1,.876-.6538,2.7783,2.7783,0,0,1,1.146-.2281,2.6341,2.6341,0,0,1,1.1157.2271,2.48,2.48,0,0,1,.84.6279,2.7735,2.7735,0,0,1,.5333.9507,3.7245,3.7245,0,0,1,.1865,1.208v.4541h-4.4522v.2881a2.1079,2.1079,0,0,0,.1265.7383,1.745,1.745,0,0,0,.36.5937,1.6431,1.6431,0,0,0,.5756.396,1.9767,1.9767,0,0,0,.7745.1441,1.883,1.883,0,0,0,1.0258-.2759,1.813,1.813,0,0,0,.6778-.792l.6845.4951a2.3894,2.3894,0,0,1-.9365,1.0322A2.82,2.82,0,0,1,374.0752,158.7221Zm0-5.6762a1.8243,1.8243,0,0,0-.72.1377,1.624,1.624,0,0,0-.5581.3872,1.8183,1.8183,0,0,0-.3657.59,2.0344,2.0344,0,0,0-.1324.7456v.0835h3.42v-.1314a1.8845,1.8845,0,0,0-.45-1.3178A1.5354,1.5354,0,0,0,374.0752,153.0459Z"/></g><g id="Layer_4" data-name="Layer 4"><g id="lock"><g id="lock-2" data-name="lock"><rect class="cls-15" x="642.5" y="126.5942" width="7" height="4"/><path class="cls-7" d="M646,138.5942v-2.8m-4-6.53v-5.07a3.076,3.076,0,0,1,.04-.53,3.9975,3.9975,0,0,1,7.96.53v5.07m0,0c-.16-.09-.33-.18-.5-.26a7.8992,7.8992,0,0,0-3.5-.81,8.2823,8.2823,0,0,0-1.74.19,7.9834,7.9834,0,0,0-1.76.62c-.17.08-.34.17-.5.26a8,8,0,1,0,8,0Z"/><circle cx="646" cy="135.7925" r="1.2"/></g></g><path class="cls-11" d="M613.73,110.7842c-3.17-4.97-4.36-9.06-2.73-10.69,2.21-2.21,8.92.75,16.23,6.8q1.86,1.53,3.75,3.32c.49.46.98.94,1.47,1.43l.63.63c1.2,1.23,2.33,2.47,3.37,3.7a53.7341,53.7341,0,0,1,5.59,7.69"/><path class="cls-11" d="M638.62,133.1142a28.1463,28.1463,0,0,1-4.97-2.53"/></g></svg>